SplineFontDB: 3.0
FontName: Geostar-Regular
FullName: Geostar
FamilyName: Geostar
Weight: Regular
Copyright: Copyright (c) 2011 by Admix Designs. All rights reserved.
Version: 001.001
ItalicAngle: 0
UnderlinePosition: -50
UnderlineWidth: 50
Ascent: 800
Descent: 200
sfntRevision: 0x00010000
LayerCount: 2
Layer: 0 1 "Back"  1
Layer: 1 1 "Fore"  0
NeedsXUIDChange: 1
XUID: [1021 288 713564382 3352116]
FSType: 0
OS2Version: 2
OS2_WeightWidthSlopeOnly: 0
OS2_UseTypoMetrics: 1
CreationTime: 1310982984
ModificationTime: 1311372231
PfmFamily: 17
TTFWeight: 400
TTFWidth: 5
LineGap: 0
VLineGap: 0
Panose: 2 0 0 0 0 0 0 0 0 0
OS2TypoAscent: 922
OS2TypoAOffset: 0
OS2TypoDescent: -195
OS2TypoDOffset: 0
OS2TypoLinegap: 0
OS2WinAscent: 922
OS2WinAOffset: 0
OS2WinDescent: 195
OS2WinDOffset: 0
HheadAscent: 922
HheadAOffset: 0
HheadDescent: -195
HheadDOffset: 0
OS2SubXSize: 700
OS2SubYSize: 650
OS2SubXOff: 0
OS2SubYOff: 140
OS2SupXSize: 700
OS2SupYSize: 650
OS2SupXOff: 0
OS2SupYOff: 477
OS2StrikeYSize: 50
OS2StrikeYPos: 250
OS2Vendor: 'pyrs'
OS2CodePages: 20000111.00000000
OS2UnicodeRanges: 8000002f.0000004a.00000000.00000000
Lookup: 258 0 0 "'kern' Horizontal Kerning in Latin lookup 0"  {"'kern' Horizontal Kerning in Latin lookup 0 per glyph data 0"  "'kern' Horizontal Kerning in Latin lookup 0 kerning class 1"  } ['kern' ('latn' <'dflt' > ) ]
MarkAttachClasses: 1
DEI: 91125
KernClass2: 44+ 35 "'kern' Horizontal Kerning in Latin lookup 0 kerning class 1" 
 10 exclamdown
 12 questiondown
 6 period
 5 comma
 20 hyphen endash emdash
 5 slash
 9 backslash
 3 one
 5 colon
 9 semicolon
 27 quotesinglbase quotedblbase
 11 quotesingle
 24 quoteright quotedblright
 22 quoteleft quotedblleft
 8 quotedbl
 8 asterisk
 9 trademark
 27 guilsinglleft guillemotleft
 29 guilsinglright guillemotright
 101 A a Agrave agrave Aacute aacute Acircumflex acircumflex Atilde atilde Adieresis adieresis Aring aring
 14 B b germandbls
 21 C c Ccedilla ccedilla
 11 D d Eth eth

StartChar: A
Encoding: 65 65 2
Width: 1063
Flags: HMW
HStem: 0 45<31 131 176 252 298 397 31 131 803 902 947 1046> 325 45<298 902 298 902> 650 45<31 131 31 947 176 176 176 252 298 298 298 902>
VStem: 131 45<45 650 45 650> 252 46<45 325 370 650> 902 45<45 325 325 325 370 650 650 650>
CounterMasks: 1 e0
LayerCount: 2
Fore
SplineSet
947 45 m 1,0,-1
 1046 45 l 1,1,-1
 1046 0 l 1,2,-1
 803 0 l 1,3,-1
 803 45 l 1,4,-1
 902 45 l 1,5,-1
 902 325 l 1,6,-1
 298 325 l 1,7,-1
 298 45 l 1,8,-1
 397 45 l 1,9,-1
 397 0 l 1,10,-1
 31 0 l 1,11,-1
 31 45 l 1,12,-1
 131 45 l 1,13,-1
 131 650 l 1,14,-1
 31 650 l 1,15,-1
 31 695 l 1,16,-1
 947 695 l 1,17,-1
 947 45 l 1,0,-1
252 45 m 1,18,-1
 252 650 l 1,19,-1
 176 650 l 1,20,-1
 176 45 l 1,21,-1
 252 45 l 1,18,-1
298 370 m 1,22,-1
 902 370 l 1,23,-1
 902 650 l 1,24,-1
 298 650 l 1,25,-1
 298 370 l 1,22,-1
EndSplineSet
EndChar

StartChar: B
Encoding: 66 66 3
Width: 1013
Flags: HMW
HStem: 0 45<32 131 176 253 298 902 32 131> 325 46<298 844 298 844> 650 45<32 131 32 948 176 176 176 253 298 298 298 902>
VStem: 131 45<45 650 45 650> 253 45<45 325 371 650> 902 46<45 266 0 282.5 430 650 650 650>
LayerCount: 2
Fore
SplineSet
32 695 m 1,0,-1
 948 695 l 1,1,-1
 948 430 l 2,2,3
 948 380 948 380 908 348 c 1,4,5
 948 316 948 316 948 266 c 2,6,-1
 948 0 l 1,7,-1
 32 0 l 1,8,-1
 32 45 l 1,9,-1
 131 45 l 1,10,-1
 131 650 l 1,11,-1
 32 650 l 1,12,-1
 32 695 l 1,0,-1
253 45 m 1,13,-1
 253 650 l 1,14,-1
 176 650 l 1,15,-1
 176 45 l 1,16,-1
 253 45 l 1,13,-1
902 45 m 1,17,-1
 902 266 l 2,18,19
 902 291 902 291 885 308 c 128,-1,20
 868 325 868 325 844 325 c 2,21,-1
 298 325 l 1,22,-1
 298 45 l 1,23,-1
 902 45 l 1,17,-1
902 430 m 2,24,-1
 902 650 l 1,25,-1
 298 650 l 1,26,-1
 298 371 l 1,27,-1
 844 371 l 2,28,29
 868 371 868 371 885 388 c 128,-1,30
 902 405 902 405 902 430 c 2,24,-1
EndSplineSet
EndChar

StartChar: C
Encoding: 67 67 4
Width: 951
Flags: HMW
HStem: 0 45<32 131 177 253 298 855 32 131> 650 45<32 131 32 900 177 177 177 253 298 855 298 298>
VStem: 131 46<45 650 45 650> 253 45<45 650 45 650> 855 45<45 185 0 185 510 650 650 650>
LayerCount: 2
Fore
SplineSet
900 510 m 1,0,-1
 855 510 l 1,1,-1
 855 650 l 1,2,-1
 298 650 l 1,3,-1
 298 45 l 1,4,-1
 855 45 l 1,5,-1
 855 185 l 1,6,-1
 900 185 l 1,7,-1
 900 0 l 1,8,-1
 32 0 l 1,9,-1
 32 45 l 1,10,-1
 131 45 l 1,11,-1
 131 650 l 1,12,-1
 32 650 l 1,13,-1
 32 695 l 1,14,-1
 900 695 l 1,15,-1
 900 510 l 1,0,-1
253 45 m 1,16,-1
 253 650 l 1,17,-1
 177 650 l 1,18,-1
 177 45 l 1,19,-1
 253 45 l 1,16,-1
EndSplineSet
EndChar

StartChar: D
Encoding: 68 68 5
Width: 1008
Flags: HMW
HStem: 0 45<32 131 177 253 298 804 32 131> 650 45<32 131 32 804 177 177 177 253 298 298 298 804>
VStem: 131 46<45 650 45 650> 253 45<45 650 45 650> 903 45<144 550>
LayerCount: 2
Fore
SplineSet
804 695 m 2,0,1
 863 695 863 695 905.5 652.5 c 128,-1,2
 948 610 948 610 948 550 c 2,3,-1
 948 144 l 2,4,5
 948 85 948 85 905.5 42.5 c 128,-1,6
 863 0 863 0 804 0 c 2,7,-1
 32 0 l 1,8,-1
 32 45 l 1,9,-1
 131 45 l 1,10,-1
 131 650 l 1,11,-1
 32 650 l 1,12,-1
 32 695 l 1,13,-1
 804 695 l 2,0,1
253 45 m 1,14,-1
 253 650 l 1,15,-1
 177 650 l 1,16,-1
 177 45 l 1,17,-1
 253 45 l 1,14,-1
903 144 m 2,18,-1
 903 550 l 2,19,20
 903 591 903 591 874 620.5 c 128,-1,21
 845 650 845 650 804 650 c 2,22,-1
 298 650 l 1,23,-1
 298 45 l 1,24,-1
 804 45 l 2,25,26
 844 45 844 45 873.5 74.5 c 128,-1,27
 903 104 903 104 903 144 c 2,18,-1
EndSplineSet
EndChar

StartChar: E
Encoding: 69 69 6
Width: 997
Flags: HMW
HStem: 0 45<32 131 176 253 298 903 32 131> 325 45<298 740 298 740> 650 45<32 131 32 948 176 176 176 253 298 903 298 298>
VStem: 131 45<45 650 45 650> 253 45<45 325 370 650> 740 46<226 325 325 325 370 469 226 469> 903 45<45 185 0 185 510 650 650 650>
CounterMasks: 1 e0
LayerCount: 2
Fore
SplineSet
948 510 m 1,0,-1
 903 510 l 1,1,-1
 903 650 l 1,2,-1
 298 650 l 1,3,-1
 298 370 l 1,4,-1
 740 370 l 1,5,-1
 740 469 l 1,6,-1
 786 469 l 1,7,-1
 786 226 l 1,8,-1
 740 226 l 1,9,-1
 740 325 l 1,10,-1
 298 325 l 1,11,-1
 298 45 l 1,12,-1
 903 45 l 1,13,-1
 903 185 l 1,14,-1
 948 185 l 1,15,-1
 948 0 l 1,16,-1
 32 0 l 1,17,-1
 32 45 l 1,18,-1
 131 45 l 1,19,-1
 131 650 l 1,20,-1
 32 650 l 1,21,-1
 32 695 l 1,22,-1
 948 695 l 1,23,-1
 948 510 l 1,0,-1
253 45 m 1,24,-1
 253 650 l 1,25,-1
 176 650 l 1,26,-1
 176 45 l 1,27,-1
 253 45 l 1,24,-1
EndSplineSet
EndChar

StartChar: F
Encoding: 70 70 7
Width: 937
Flags: HMW
HStem: 0 45<32 131 176 253 298 397 32 131> 325 45<298 714 298 714> 650 45<32 131 32 922 176 176 176 253 298 877 298 298>
VStem: 131 45<45 650 45 650> 253 45<45 325 370 650> 714 45<226 325 325 325 370 469 226 469> 877 45<510 650 650 650>
CounterMasks: 1 e0
LayerCount: 2
Fore
SplineSet
32 695 m 1,0,-1
 922 695 l 1,1,-1
 922 510 l 1,2,-1
 877 510 l 1,3,-1
 877 650 l 1,4,-1
 298 650 l 1,5,-1
 298 370 l 1,6,-1
 714 370 l 1,7,-1
 714 469 l 1,8,-1
 759 469 l 1,9,-1
 759 226 l 1,10,-1
 714 226 l 1,11,-1
 714 325 l 1,12,-1
 298 325 l 1,13,-1
 298 45 l 1,14,-1
 397 45 l 1,15,-1
 397 0 l 1,16,-1
 32 0 l 1,17,-1
 32 45 l 1,18,-1
 131 45 l 1,19,-1
 131 650 l 1,20,-1
 32 650 l 1,21,-1
 32 695 l 1,0,-1
253 45 m 1,22,-1
 253 650 l 1,23,-1
 176 650 l 1,24,-1
 176 45 l 1,25,-1
 253 45 l 1,22,-1
EndSplineSet
EndChar

StartChar: G
Encoding: 71 71 8
Width: 1009
Flags: HMW
HStem: 0 45<31 131 176 252 298 902 31 131> 325 45<519 902 519 947> 650 45<31 131 31 947 176 176 176 252 298 902 298 298>
VStem: 131 45<45 650 45 650> 252 46<45 650 45 650> 902 45<45 325 325 325 510 650 650 650>
CounterMasks: 1 e0
LayerCount: 2
Fore
SplineSet
947 510 m 1,0,-1
 902 510 l 1,1,-1
 902 650 l 1,2,-1
 298 650 l 1,3,-1
 298 45 l 1,4,-1
 902 45 l 1,5,-1
 902 325 l 1,6,-1
 519 325 l 1,7,-1
 519 370 l 1,8,-1
 947 370 l 1,9,-1
 947 0 l 1,10,-1
 31 0 l 1,11,-1
 31 45 l 1,12,-1
 131 45 l 1,13,-1
 131 650 l 1,14,-1
 31 650 l 1,15,-1
 31 695 l 1,16,-1
 947 695 l 1,17,-1
 947 510 l 1,0,-1
252 45 m 1,18,-1
 252 650 l 1,19,-1
 176 650 l 1,20,-1
 176 45 l 1,21,-1
 252 45 l 1,18,-1
EndSplineSet
EndChar

StartChar: H
Encoding: 72 72 9
Width: 1078
Flags: HMW
HStem: 0 45<31 131 176 252 297 397 31 131 803 902 947 1046> 325 45<297 902 297 902> 650 45<31 131 31 397 176 176 176 252 297 297 297 397 803 902 947 1046 947 947>
VStem: 131 45<45 650 45 650> 252 45<45 325 370 650> 803 243<0 45 0 45 650 695> 902 45<45 325 325 325 370 650 45 650>
CounterMasks: 1 e0
LayerCount: 2
Fore
SplineSet
1046 650 m 1,0,-1
 947 650 l 1,1,-1
 947 45 l 1,2,-1
 1046 45 l 1,3,-1
 1046 0 l 1,4,-1
 803 0 l 1,5,-1
 803 45 l 1,6,-1
 902 45 l 1,7,-1
 902 325 l 1,8,-1
 297 325 l 1,9,-1
 297 45 l 1,10,-1
 397 45 l 1,11,-1
 397 0 l 1,12,-1
 31 0 l 1,13,-1
 31 45 l 1,14,-1
 131 45 l 1,15,-1
 131 650 l 1,16,-1
 31 650 l 1,17,-1
 31 695 l 1,18,-1
 397 695 l 1,19,-1
 397 650 l 1,20,-1
 297 650 l 1,21,-1
 297 370 l 1,22,-1
 902 370 l 1,23,-1
 902 650 l 1,24,-1
 803 650 l 1,25,-1
 803 695 l 1,26,-1
 1046 695 l 1,27,-1
 1046 650 l 1,0,-1
252 45 m 1,28,-1
 252 650 l 1,29,-1
 176 650 l 1,30,-1
 176 45 l 1,31,-1
 252 45 l 1,28,-1
EndSplineSet
EndChar

StartChar: I
Encoding: 73 73 10
Width: 565
Flags: HMW
HStem: 0 45<19 199 244 321 366 546 19 199> 650 45<19 199 19 546 244 244 244 321 366 546 366 366>
VStem: 199 45<45 650 45 650> 321 45<45 650 45 650>
LayerCount: 2
Fore
SplineSet
546 650 m 1,0,-1
 366 650 l 1,1,-1
 366 45 l 1,2,-1
 546 45 l 1,3,-1
 546 0 l 1,4,-1
 19 0 l 1,5,-1
 19 45 l 1,6,-1
 199 45 l 1,7,-1
 199 650 l 1,8,-1
 19 650 l 1,9,-1
 19 695 l 1,10,-1
 546 695 l 1,11,-1
 546 650 l 1,0,-1
321 45 m 1,12,-1
 321 650 l 1,13,-1
 244 650 l 1,14,-1
 244 45 l 1,15,-1
 321 45 l 1,12,-1
EndSplineSet
EndChar

StartChar: J
Encoding: 74 74 11
Width: 889
Flags: HMW
HStem: 0 45<66 591 636 712 758 857> 650 45<491 591 491 857 636 636 636 712 758 857 758 758>
VStem: 21 45<45 185 45 185 45 185> 591 45<45 650 45 650> 712 46<45 650 45 650>
LayerCount: 2
Fore
SplineSet
857 650 m 1,0,-1
 758 650 l 1,1,-1
 758 45 l 1,2,-1
 857 45 l 1,3,-1
 857 0 l 1,4,-1
 21 0 l 1,5,-1
 21 185 l 1,6,-1
 66 185 l 1,7,-1
 66 45 l 1,8,-1
 591 45 l 1,9,-1
 591 650 l 1,10,-1
 491 650 l 1,11,-1
 491 695 l 1,12,-1
 857 695 l 1,13,-1
 857 650 l 1,0,-1
712 45 m 1,14,-1
 712 650 l 1,15,-1
 636 650 l 1,16,-1
 636 45 l 1,17,-1
 712 45 l 1,14,-1
EndSplineSet
EndChar

StartChar: K
Encoding: 75 75 12
Width: 1001
Flags: HMW
HStem: 0 45<32 131 176 253 298 398 32 131 763 840 896 1007> 325 45<298 629 298 630 298 629> 650 45<32 131 32 398 176 176 176 253 298 298 298 398 722 803 857 857 857 966>
VStem: 131 45<45 650> 253 45<45 325 370 650>
CounterMasks: 1 e0
LayerCount: 2
Fore
SplineSet
669 349 m 1,0,-1
 896 45 l 1,1,-1
 1007 45 l 1,2,-1
 1007 0 l 1,3,-1
 763 0 l 1,4,-1
 763 45 l 1,5,-1
 840 45 l 1,6,-1
 630 325 l 1,7,-1
 298 325 l 1,8,-1
 298 45 l 1,9,-1
 398 45 l 1,10,-1
 398 0 l 1,11,-1
 32 0 l 1,12,-1
 32 45 l 1,13,-1
 131 45 l 1,14,-1
 131 650 l 1,15,-1
 32 650 l 1,16,-1
 32 695 l 1,17,-1
 398 695 l 1,18,-1
 398 650 l 1,19,-1
 298 650 l 1,20,-1
 298 370 l 1,21,-1
 629 370 l 1,22,-1
 803 650 l 1,23,-1
 722 650 l 1,24,-1
 722 695 l 1,25,-1
 966 695 l 1,26,-1
 966 650 l 1,27,-1
 857 650 l 1,28,-1
 669 349 l 1,0,-1
176 45 m 1,29,-1
 253 45 l 1,30,-1
 253 650 l 1,31,-1
 176 650 l 1,32,-1
 176 45 l 1,29,-1
EndSplineSet
EndChar

StartChar: L
Encoding: 76 76 13
Width: 918
Flags: HMW
HStem: 0 45<31 131 176 252 298 852 31 131> 650 45<31 131 31 397 176 176 176 252 298 298 298 397>
VStem: 131 45<45 650 45 650> 252 46<45 650 45 650> 852 45<45 185 0 185>
LayerCount: 2
Fore
SplineSet
852 185 m 1,0,-1
 897 185 l 1,1,-1
 897 0 l 1,2,-1
 31 0 l 1,3,-1
 31 45 l 1,4,-1
 131 45 l 1,5,-1
 131 650 l 1,6,-1
 31 650 l 1,7,-1
 31 695 l 1,8,-1
 397 695 l 1,9,-1
 397 650 l 1,10,-1
 298 650 l 1,11,-1
 298 45 l 1,12,-1
 852 45 l 1,13,-1
 852 185 l 1,0,-1
252 45 m 1,14,-1
 252 650 l 1,15,-1
 176 650 l 1,16,-1
 176 45 l 1,17,-1
 252 45 l 1,14,-1
EndSplineSet
EndChar

StartChar: M
Encoding: 77 77 14
Width: 1281
Flags: HMW
HStem: -23 21G<640 640> 0 45<31 131 176 252 298 397 31 131 884 983 1028 1105 1150 1249> 650 45<31 131 31 288 176 176 176 252 1028 1028 1028 1105 1150 1249 1150 1150>
VStem: 131 45<45 650> 252 46<45 586 45 650> 983 45<45 586 586 586> 1105 45<45 650 45 650>
LayerCount: 2
Fore
SplineSet
1249 650 m 1,0,-1
 1150 650 l 1,1,-1
 1150 45 l 1,2,-1
 1249 45 l 1,3,-1
 1249 0 l 1,4,-1
 884 0 l 1,5,-1
 884 45 l 1,6,-1
 983 45 l 1,7,-1
 983 586 l 1,8,-1
 640 -23 l 1,9,-1
 298 586 l 1,10,-1
 298 45 l 1,11,-1
 397 45 l 1,12,-1
 397 0 l 1,13,-1
 31 0 l 1,14,-1
 31 45 l 1,15,-1
 131 45 l 1,16,-1
 131 650 l 1,17,-1
 31 650 l 1,18,-1
 31 695 l 1,19,-1
 288 695 l 1,20,-1
 640 69 l 1,21,-1
 993 695 l 1,22,-1
 1249 695 l 1,23,-1
 1249 650 l 1,0,-1
176 45 m 1,24,-1
 252 45 l 1,25,-1
 252 650 l 1,26,-1
 176 650 l 1,27,-1
 176 45 l 1,24,-1
1028 45 m 1,28,-1
 1105 45 l 1,29,-1
 1105 650 l 1,30,-1
 1028 650 l 1,31,-1
 1028 45 l 1,28,-1
EndSplineSet
EndChar

StartChar: N
Encoding: 78 78 15
Width: 1119
Flags: HMW
HStem: 0 45<32 131 176 253 298 397 32 131 866 943 988 1087> 650 45<32 131 32 286 176 176 176 253 722 821 866 866 866 943 988 1087 988 988>
VStem: 131 45<45 650> 253 45<45 612 45 650 45 650> 821 45<83 650 45 650> 943 45<45 650 45 650>
LayerCount: 2
Fore
SplineSet
1087 650 m 1,0,-1
 988 650 l 1,1,-1
 988 45 l 1,2,-1
 1087 45 l 1,3,-1
 1087 0 l 1,4,-1
 834 0 l 1,5,-1
 298 612 l 1,6,-1
 298 45 l 1,7,-1
 397 45 l 1,8,-1
 397 0 l 1,9,-1
 32 0 l 1,10,-1
 32 45 l 1,11,-1
 131 45 l 1,12,-1
 131 650 l 1,13,-1
 32 650 l 1,14,-1
 32 695 l 1,15,-1
 286 695 l 1,16,-1
 821 83 l 1,17,-1
 821 650 l 1,18,-1
 722 650 l 1,19,-1
 722 695 l 1,20,-1
 1087 695 l 1,21,-1
 1087 650 l 1,0,-1
176 45 m 1,22,-1
 253 45 l 1,23,-1
 253 650 l 1,24,-1
 176 650 l 1,25,-1
 176 45 l 1,22,-1
943 45 m 1,26,-1
 943 650 l 1,27,-1
 866 650 l 1,28,-1
 866 45 l 1,29,-1
 943 45 l 1,26,-1
EndSplineSet
EndChar

StartChar: O
Encoding: 79 79 16
Width: 948
Flags: HMW
HStem: 0 45<111 188 233 837> 650 45<111 188 111 111 233 233 233 837>
VStem: 66 45<45 45 45 650> 188 45<45 650 45 650> 837 45<45 650 650 650>
LayerCount: 2
Fore
SplineSet
66 695 m 1,0,-1
 882 695 l 1,1,-1
 882 0 l 1,2,-1
 66 0 l 1,3,-1
 66 695 l 1,0,-1
111 45 m 1,4,-1
 188 45 l 1,5,-1
 188 650 l 1,6,-1
 111 650 l 1,7,-1
 111 45 l 1,4,-1
837 45 m 1,8,-1
 837 650 l 1,9,-1
 233 650 l 1,10,-1
 233 45 l 1,11,-1
 837 45 l 1,8,-1
EndSplineSet
EndChar

StartChar: P
Encoding: 80 80 17
Width: 956
Flags: HMW
HStem: 0 45<32 131 177 253 298 398 32 131> 325 45<298 872 298 917 298 872> 650 45<32 131 32 917 177 177 177 253 298 298 298 872>
VStem: 131 46<45 650> 253 45<45 325 370 650> 872 45<370 650 650 650>
CounterMasks: 1 e0
LayerCount: 2
Fore
SplineSet
917 325 m 1,0,-1
 298 325 l 1,1,-1
 298 45 l 1,2,-1
 398 45 l 1,3,-1
 398 0 l 1,4,-1
 32 0 l 1,5,-1
 32 45 l 1,6,-1
 131 45 l 1,7,-1
 131 650 l 1,8,-1
 32 650 l 1,9,-1
 32 695 l 1,10,-1
 917 695 l 1,11,-1
 917 325 l 1,0,-1
872 650 m 1,12,-1
 298 650 l 1,13,-1
 298 370 l 1,14,-1
 872 370 l 1,15,-1
 872 650 l 1,12,-1
177 45 m 1,16,-1
 253 45 l 1,17,-1
 253 650 l 1,18,-1
 177 650 l 1,19,-1
 177 45 l 1,16,-1
EndSplineSet
EndChar

StartChar: Q
Encoding: 81 81 18
Width: 948
Flags: HMW
HStem: -118 21G<806 806> 0 45<111 187 232 562 711 837 711 711> 650 45<111 187 111 111 232 232 232 837>
VStem: 66 45<45 45 45 650> 187 45<45 650 45 650> 837 45<45 650 650 650>
LayerCount: 2
Fore
SplineSet
882 695 m 1,0,-1
 882 0 l 1,1,-1
 711 0 l 1,2,-1
 832 -80 l 1,3,-1
 806 -118 l 1,4,-1
 629 0 l 1,5,-1
 66 0 l 1,6,-1
 66 695 l 1,7,-1
 882 695 l 1,0,-1
111 45 m 1,8,-1
 187 45 l 1,9,-1
 187 650 l 1,10,-1
 111 650 l 1,11,-1
 111 45 l 1,8,-1
837 45 m 1,12,-1
 837 650 l 1,13,-1
 232 650 l 1,14,-1
 232 45 l 1,15,-1
 562 45 l 1,16,-1
 441 126 l 1,17,-1
 466 163 l 1,18,-1
 643 45 l 1,19,-1
 837 45 l 1,12,-1
EndSplineSet
EndChar

StartChar: R
Encoding: 82 82 19
Width: 1064
Flags: HMW
HStem: 0 45<32 131 177 253 298 398 32 131 804 902 948 1047> 325 46<298 844 298 844> 650 45<32 131 32 948 177 177 177 253 298 298 298 902>
VStem: 131 46<45 650 45 650> 253 45<45 325 371 650> 902 46<45 266 430 650 650 650>
LayerCount: 2
Fore
SplineSet
948 45 m 1,0,-1
 1047 45 l 1,1,-1
 1047 0 l 1,2,-1
 804 0 l 1,3,-1
 804 45 l 1,4,-1
 902 45 l 1,5,-1
 902 266 l 2,6,7
 902 291 902 291 885 308 c 128,-1,8
 868 325 868 325 844 325 c 2,9,-1
 298 325 l 1,10,-1
 298 45 l 1,11,-1
 398 45 l 1,12,-1
 398 0 l 1,13,-1
 32 0 l 1,14,-1
 32 45 l 1,15,-1
 131 45 l 1,16,-1
 131 650 l 1,17,-1
 32 650 l 1,18,-1
 32 695 l 1,19,-1
 948 695 l 1,20,-1
 948 430 l 2,21,22
 948 380 948 380 908 348 c 1,23,24
 948 316 948 316 948 266 c 2,25,-1
 948 45 l 1,0,-1
253 45 m 1,26,-1
 253 650 l 1,27,-1
 177 650 l 1,28,-1
 177 45 l 1,29,-1
 253 45 l 1,26,-1
902 430 m 2,30,-1
 902 650 l 1,31,-1
 298 650 l 1,32,-1
 298 371 l 1,33,-1
 844 371 l 2,34,35
 868 371 868 371 885 388 c 128,-1,36
 902 405 902 405 902 430 c 2,30,-1
EndSplineSet
EndChar

StartChar: S
Encoding: 83 83 20
Width: 940
Flags: HMW
HStem: 0 45<107 711 756 833> 325 45<107 183 229 711 756 756 756 833> 650 45<107 183 107 107 229 833 229 229>
VStem: 62 45<45 185 45 185 45 185 370 650> 183 46<370 650 370 650> 711 45<45 325 45 325> 833 45<45 325 325 325 510 650 650 650>
CounterMasks: 1 e0
LayerCount: 2
Fore
SplineSet
62 695 m 1,0,-1
 878 695 l 1,1,-1
 878 510 l 1,2,-1
 833 510 l 1,3,-1
 833 650 l 1,4,-1
 229 650 l 1,5,-1
 229 370 l 1,6,-1
 878 370 l 1,7,-1
 878 0 l 1,8,-1
 62 0 l 1,9,-1
 62 185 l 1,10,-1
 107 185 l 1,11,-1
 107 45 l 1,12,-1
 711 45 l 1,13,-1
 711 325 l 1,14,-1
 62 325 l 1,15,-1
 62 695 l 1,0,-1
833 325 m 1,16,-1
 756 325 l 1,17,-1
 756 45 l 1,18,-1
 833 45 l 1,19,-1
 833 325 l 1,16,-1
183 370 m 1,20,-1
 183 650 l 1,21,-1
 107 650 l 1,22,-1
 107 370 l 1,23,-1
 183 370 l 1,20,-1
EndSplineSet
EndChar

StartChar: T
Encoding: 84 84 21
Width: 971
Flags: HMW
HStem: 0 45<303 402 447 524 569 669 303 402> 510 185<19 64 19 952 907 952 907 907> 650 45<64 402 64 64 447 447 447 524 569 907 569 569>
VStem: 19 45<510 650 510 695> 402 45<45 650 45 650> 524 45<45 650 45 650> 907 45<510 650 650 650>
LayerCount: 2
Fore
SplineSet
19 695 m 1,0,-1
 952 695 l 1,1,-1
 952 510 l 1,2,-1
 907 510 l 1,3,-1
 907 650 l 1,4,-1
 569 650 l 1,5,-1
 569 45 l 1,6,-1
 669 45 l 1,7,-1
 669 0 l 1,8,-1
 303 0 l 1,9,-1
 303 45 l 1,10,-1
 402 45 l 1,11,-1
 402 650 l 1,12,-1
 64 650 l 1,13,-1
 64 510 l 1,14,-1
 19 510 l 1,15,-1
 19 695 l 1,0,-1
524 45 m 1,16,-1
 524 650 l 1,17,-1
 447 650 l 1,18,-1
 447 45 l 1,19,-1
 524 45 l 1,16,-1
EndSplineSet
EndChar

StartChar: U
Encoding: 85 85 22
Width: 1063
Flags: HMW
HStem: 0 45<32 131 176 253 298 903 32 131> 650 45<32 131 32 397 176 176 176 253 298 298 298 397 803 903 948 1047 948 948>
VStem: 131 45<45 650 45 650> 253 45<45 650 45 650> 903 45<45 650 0 650>
LayerCount: 2
Fore
SplineSet
1047 695 m 1,0,-1
 1047 650 l 1,1,-1
 948 650 l 1,2,-1
 948 0 l 1,3,-1
 32 0 l 1,4,-1
 32 45 l 1,5,-1
 131 45 l 1,6,-1
 131 650 l 1,7,-1
 32 650 l 1,8,-1
 32 695 l 1,9,-1
 397 695 l 1,10,-1
 397 650 l 1,11,-1
 298 650 l 1,12,-1
 298 45 l 1,13,-1
 903 45 l 1,14,-1
 903 650 l 1,15,-1
 803 650 l 1,16,-1
 803 695 l 1,17,-1
 1047 695 l 1,0,-1
253 45 m 1,18,-1
 253 650 l 1,19,-1
 176 650 l 1,20,-1
 176 45 l 1,21,-1
 253 45 l 1,18,-1
EndSplineSet
EndChar

StartChar: V
Encoding: 86 86 23
Width: 1040
Flags: HMW
HStem: 0 45<32 131 176 253 298 662 32 131> 650 45<32 131 32 397 176 176 176 253 298 298 298 397 803 889 939 939 939 1047>
VStem: 131 45<45 650 45 650> 253 45<45 650 45 650>
LayerCount: 2
Fore
SplineSet
803 650 m 1,0,-1
 803 695 l 1,1,-1
 1047 695 l 1,2,-1
 1047 650 l 1,3,-1
 939 650 l 1,4,-1
 695 0 l 1,5,-1
 32 0 l 1,6,-1
 32 45 l 1,7,-1
 131 45 l 1,8,-1
 131 650 l 1,9,-1
 32 650 l 1,10,-1
 32 695 l 1,11,-1
 397 695 l 1,12,-1
 397 650 l 1,13,-1
 298 650 l 1,14,-1
 298 45 l 1,15,-1
 662 45 l 1,16,-1
 889 650 l 1,17,-1
 803 650 l 1,0,-1
253 45 m 1,18,-1
 253 650 l 1,19,-1
 176 650 l 1,20,-1
 176 45 l 1,21,-1
 253 45 l 1,18,-1
EndSplineSet
EndChar

StartChar: W
Encoding: 87 87 24
Width: 1363
Flags: HMW
HStem: 0 45<32 131 177 253 298 659 704 1065 1110 1187 1232 1331 32 131> 650 45<32 131 32 398 177 177 177 253 298 298 298 398 560 659 704 704 704 803 966 1065 1110 1110 1110 1187 1232 1331 1232 1232>
VStem: 131 46<45 650 45 650> 253 45<45 650 45 650> 659 45<45 650 45 650> 1065 45<45 650 45 650> 1187 45<45 650 45 650>
LayerCount: 2
Fore
SplineSet
1331 650 m 1,0,-1
 1232 650 l 1,1,-1
 1232 45 l 1,2,-1
 1331 45 l 1,3,-1
 1331 0 l 1,4,-1
 32 0 l 1,5,-1
 32 45 l 1,6,-1
 131 45 l 1,7,-1
 131 650 l 1,8,-1
 32 650 l 1,9,-1
 32 695 l 1,10,-1
 398 695 l 1,11,-1
 398 650 l 1,12,-1
 298 650 l 1,13,-1
 298 45 l 1,14,-1
 659 45 l 1,15,-1
 659 650 l 1,16,-1
 560 650 l 1,17,-1
 560 695 l 1,18,-1
 803 695 l 1,19,-1
 803 650 l 1,20,-1
 704 650 l 1,21,-1
 704 45 l 1,22,-1
 1065 45 l 1,23,-1
 1065 650 l 1,24,-1
 966 650 l 1,25,-1
 966 695 l 1,26,-1
 1331 695 l 1,27,-1
 1331 650 l 1,0,-1
253 45 m 1,28,-1
 253 650 l 1,29,-1
 177 650 l 1,30,-1
 177 45 l 1,31,-1
 253 45 l 1,28,-1
1187 45 m 1,32,-1
 1187 650 l 1,33,-1
 1110 650 l 1,34,-1
 1110 45 l 1,35,-1
 1187 45 l 1,32,-1
EndSplineSet
EndChar

StartChar: X
Encoding: 88 88 25
Width: 938
Flags: HMW
HStem: 0 45<28 128 193 271 28 128 525 604 664 765 824 931> 650 45<-3 88 -3 403 147 147 147 248 307 307 307 403 677 746 810 810 810 921>
LayerCount: 2
Fore
SplineSet
536 382 m 1,0,-1
 824 45 l 1,1,-1
 931 45 l 1,2,-1
 931 0 l 1,3,-1
 525 0 l 1,4,-1
 525 45 l 1,5,-1
 604 45 l 1,6,-1
 417 265 l 1,7,-1
 193 45 l 1,8,-1
 271 45 l 1,9,-1
 271 0 l 1,10,-1
 28 0 l 1,11,-1
 28 45 l 1,12,-1
 128 45 l 1,13,-1
 387 299 l 1,14,-1
 88 650 l 1,15,-1
 -3 650 l 1,16,-1
 -3 695 l 1,17,-1
 403 695 l 1,18,-1
 403 650 l 1,19,-1
 307 650 l 1,20,-1
 507 416 l 1,21,-1
 746 650 l 1,22,-1
 677 650 l 1,23,-1
 677 695 l 1,24,-1
 921 695 l 1,25,-1
 921 650 l 1,26,-1
 810 650 l 1,27,-1
 536 382 l 1,0,-1
664 45 m 1,28,-1
 765 45 l 1,29,-1
 248 650 l 1,30,-1
 147 650 l 1,31,-1
 664 45 l 1,28,-1
EndSplineSet
EndChar

StartChar: Y
Encoding: 89 89 26
Width: 924
Flags: HMW
HStem: 0 45<280 379 424 501 546 645 280 379> 325 45<424 501 424 424> 650 45<-5 107 -5 239 167 167 167 239 686 758 818 818 818 929>
VStem: 379 45<45 325> 501 45<45 325 325 325>
CounterMasks: 1 e0
LayerCount: 2
Fore
SplineSet
686 650 m 1,0,-1
 686 695 l 1,1,-1
 929 695 l 1,2,-1
 929 650 l 1,3,-1
 818 650 l 1,4,-1
 546 339 l 1,5,-1
 546 45 l 1,6,-1
 645 45 l 1,7,-1
 645 0 l 1,8,-1
 280 0 l 1,9,-1
 280 45 l 1,10,-1
 379 45 l 1,11,-1
 379 339 l 1,12,-1
 107 650 l 1,13,-1
 -5 650 l 1,14,-1
 -5 695 l 1,15,-1
 239 695 l 1,16,-1
 239 650 l 1,17,-1
 167 650 l 1,18,-1
 412 370 l 1,19,-1
 513 370 l 1,20,-1
 758 650 l 1,21,-1
 686 650 l 1,0,-1
424 45 m 1,22,-1
 501 45 l 1,23,-1
 501 325 l 1,24,-1
 424 325 l 1,25,-1
 424 45 l 1,22,-1
EndSplineSet
EndChar

StartChar: Z
Encoding: 90 90 27
Width: 901
Flags: HMW
HStem: 0 45<127 230 291 818> 650 45<84 612 84 84 672 672 672 776>
VStem: 39 45<510 650 510 695> 818 45<45 185 0 185>
LayerCount: 2
Fore
SplineSet
818 185 m 1,0,-1
 863 185 l 1,1,-1
 863 0 l 1,2,-1
 25 0 l 1,3,-1
 612 650 l 1,4,-1
 84 650 l 1,5,-1
 84 510 l 1,6,-1
 39 510 l 1,7,-1
 39 695 l 1,8,-1
 877 695 l 1,9,-1
 291 45 l 1,10,-1
 818 45 l 1,11,-1
 818 185 l 1,0,-1
230 45 m 1,12,-1
 776 650 l 1,13,-1
 672 650 l 1,14,-1
 127 45 l 1,15,-1
 230 45 l 1,12,-1
EndSplineSet
EndChar

StartChar: at
Encoding: 64 64 28
Width: 855
Flags: HMW
HStem: 33 45<114 789 114 789> 154 45<235 311 235 357 668 744> 314 45<357 623 357 623> 495 45<235 311 235 235 357 357 357 623> 616 45<114 744 114 114>
VStem: 69 45<78 616 78 661> 190 45<199 495 199 540> 311 46<199 314 359 495> 623 45<199 314 314 314 359 495 495 495> 744 45<199 616 616 616>
LayerCount: 2
Fore
SplineSet
623 154 m 1,0,-1
 623 314 l 1,1,-1
 357 314 l 1,2,-1
 357 154 l 1,3,-1
 190 154 l 1,4,-1
 190 540 l 1,5,-1
 668 540 l 1,6,-1
 668 199 l 1,7,-1
 744 199 l 1,8,-1
 744 616 l 1,9,-1
 114 616 l 1,10,-1
 114 78 l 1,11,-1
 789 78 l 1,12,-1
 789 33 l 1,13,-1
 69 33 l 1,14,-1
 69 661 l 1,15,-1
 789 661 l 1,16,-1
 789 154 l 1,17,-1
 623 154 l 1,0,-1
311 199 m 1,18,-1
 311 495 l 1,19,-1
 235 495 l 1,20,-1
 235 199 l 1,21,-1
 311 199 l 1,18,-1
357 359 m 1,22,-1
 623 359 l 1,23,-1
 623 495 l 1,24,-1
 357 495 l 1,25,-1
 357 359 l 1,22,-1
EndSplineSet
EndChar

StartChar: ampersand
Encoding: 38 38 29
Width: 686
Flags: HMW
HStem: -73 21G<345 390 345 345> 68 45<95 172 217 345 390 650 390 390> 326 45<217 513 217 513> 583 45<95 172 95 95 217 345 390 650 217 217> 750 20G<345 390 390 390>
VStem: 50 45<113 583 113 628> 172 45<113 326 371 583> 345 45<-73 68 -73 68 628 770>
LayerCount: 2
Fore
SplineSet
650 583 m 1,0,-1
 217 583 l 1,1,-1
 217 371 l 1,2,-1
 513 371 l 1,3,-1
 513 326 l 1,4,-1
 217 326 l 1,5,-1
 217 113 l 1,6,-1
 650 113 l 1,7,-1
 650 68 l 1,8,-1
 390 68 l 1,9,-1
 390 -73 l 1,10,-1
 345 -73 l 1,11,-1
 345 68 l 1,12,-1
 50 68 l 1,13,-1
 50 628 l 1,14,-1
 345 628 l 1,15,-1
 345 770 l 1,16,-1
 390 770 l 1,17,-1
 390 628 l 1,18,-1
 650 628 l 1,19,-1
 650 583 l 1,0,-1
172 113 m 1,20,-1
 172 583 l 1,21,-1
 95 583 l 1,22,-1
 95 113 l 1,23,-1
 172 113 l 1,20,-1
EndSplineSet
EndChar

StartChar: numbersign
Encoding: 35 35 30
Width: 857
Flags: HMW
HStem: 56 45<215 291 215 337 564 640> 204 45<52 170 52 170 337 519 686 805> 403 45<52 170 52 170 337 519 686 805> 552 45<215 291 215 215 564 564 564 640>
VStem: 52 163<204 249 249 249 403 448 448 448> 170 45<101 204 204 204 249 403 403 403 448 552 101 597> 291 46<101 204 249 403 448 552 552 552> 519 45<101 204 204 204 249 403 403 403 448 552 101 597> 640 46<101 204 249 403 448 552 552 552> 640 165<204 249 403 448>
LayerCount: 2
Fore
SplineSet
805 403 m 1,0,-1
 686 403 l 1,1,-1
 686 249 l 1,2,-1
 805 249 l 1,3,-1
 805 204 l 1,4,-1
 686 204 l 1,5,-1
 686 56 l 1,6,-1
 519 56 l 1,7,-1
 519 204 l 1,8,-1
 337 204 l 1,9,-1
 337 56 l 1,10,-1
 170 56 l 1,11,-1
 170 204 l 1,12,-1
 52 204 l 1,13,-1
 52 249 l 1,14,-1
 170 249 l 1,15,-1
 170 403 l 1,16,-1
 52 403 l 1,17,-1
 52 448 l 1,18,-1
 170 448 l 1,19,-1
 170 597 l 1,20,-1
 337 597 l 1,21,-1
 337 448 l 1,22,-1
 519 448 l 1,23,-1
 519 597 l 1,24,-1
 686 597 l 1,25,-1
 686 448 l 1,26,-1
 805 448 l 1,27,-1
 805 403 l 1,0,-1
291 101 m 1,28,-1
 291 552 l 1,29,-1
 215 552 l 1,30,-1
 215 101 l 1,31,-1
 291 101 l 1,28,-1
337 249 m 1,32,-1
 519 249 l 1,33,-1
 519 403 l 1,34,-1
 337 403 l 1,35,-1
 337 249 l 1,32,-1
640 101 m 1,36,-1
 640 552 l 1,37,-1
 564 552 l 1,38,-1
 564 101 l 1,39,-1
 640 101 l 1,36,-1
EndSplineSet
EndChar

StartChar: exclam
Encoding: 33 33 31
Width: 342
Flags: HMW
HStem: 0 45<120 222 120 267> 108 45<120 222 120 120> 225 45<138 203 138 246 95 203> 650 45<115 226 115 115>
VStem: 81 45 214 46
LayerCount: 2
Fore
SplineSet
274 695 m 1,0,-1
 246 225 l 1,1,-1
 95 225 l 1,2,-1
 67 695 l 1,3,-1
 274 695 l 1,0,-1
203 270 m 1,4,-1
 226 650 l 1,5,-1
 115 650 l 1,6,-1
 138 270 l 1,7,-1
 203 270 l 1,4,-1
267 153 m 1,8,-1
 267 0 l 1,9,-1
 75 0 l 1,10,-1
 75 153 l 1,11,-1
 267 153 l 1,8,-1
222 45 m 1,12,-1
 222 108 l 1,13,-1
 120 108 l 1,14,-1
 120 45 l 1,15,-1
 222 45 l 1,12,-1
EndSplineSet
EndChar

StartChar: question
Encoding: 63 63 32
Width: 732
Flags: HMW
HStem: 0 45<276 378 276 423> 108 45<276 378 276 276> 212 45<289 366 289 411> 325 45<289 366 289 289 411 507 553 629 411 411> 650 45<89 507 89 89 553 629 553 553>
VStem: 44 45<510 650 510 695> 231 45<45 108 45 153> 244 45<257 325 257 370> 366 45<257 325 212 325> 378 45<45 108 108 108> 507 46<370 650 370 650> 629 45<370 650 650 650>
LayerCount: 2
Fore
SplineSet
44 695 m 1,0,-1
 674 695 l 1,1,-1
 674 325 l 1,2,-1
 411 325 l 1,3,-1
 411 212 l 1,4,-1
 244 212 l 1,5,-1
 244 370 l 1,6,-1
 507 370 l 1,7,-1
 507 650 l 1,8,-1
 89 650 l 1,9,-1
 89 510 l 1,10,-1
 44 510 l 1,11,-1
 44 695 l 1,0,-1
366 325 m 1,12,-1
 289 325 l 1,13,-1
 289 257 l 1,14,-1
 366 257 l 1,15,-1
 366 325 l 1,12,-1
553 650 m 1,16,-1
 553 370 l 1,17,-1
 629 370 l 1,18,-1
 629 650 l 1,19,-1
 553 650 l 1,16,-1
423 153 m 1,20,-1
 423 0 l 1,21,-1
 231 0 l 1,22,-1
 231 153 l 1,23,-1
 423 153 l 1,20,-1
378 45 m 1,24,-1
 378 108 l 1,25,-1
 276 108 l 1,26,-1
 276 45 l 1,27,-1
 378 45 l 1,24,-1
EndSplineSet
EndChar

StartChar: exclamdown
Encoding: 161 161 33
Width: 334
Flags: HMW
HStem: -195 45<111 222 111 270> 230 45<134 199 134 134> 347 45<116 218 116 263> 455 45<116 218 116 116>
VStem: 77 45 210 46
LayerCount: 2
Fore
SplineSet
242 275 m 1,0,-1
 270 -195 l 1,1,-1
 63 -195 l 1,2,-1
 91 275 l 1,3,-1
 242 275 l 1,0,-1
222 -150 m 1,4,-1
 199 230 l 1,5,-1
 134 230 l 1,6,-1
 111 -150 l 1,7,-1
 222 -150 l 1,4,-1
263 500 m 1,8,-1
 263 347 l 1,9,-1
 71 347 l 1,10,-1
 71 500 l 1,11,-1
 263 500 l 1,8,-1
218 392 m 1,12,-1
 218 455 l 1,13,-1
 116 455 l 1,14,-1
 116 392 l 1,15,-1
 218 392 l 1,12,-1
EndSplineSet
EndChar

StartChar: questiondown
Encoding: 191 191 34
Width: 774
Flags: HMW
HStem: -195 45<161 237 283 701> 130 45<161 237 161 161 283 379 424 501 283 283> 243 45<424 501 424 424> 347 45<412 514 412 559> 455 45<412 412 412 514>
VStem: 116 45<-150 130 -150 175> 237 46<-150 130 -150 130> 367 45<392 455 392 500> 379 45<175 243> 501 45<175 243 243 243> 514 45<392 455 455 455> 701 45<-150 -10>
LayerCount: 2
Fore
SplineSet
746 -195 m 1,0,-1
 116 -195 l 1,1,-1
 116 175 l 1,2,-1
 379 175 l 1,3,-1
 379 288 l 1,4,-1
 546 288 l 1,5,-1
 546 130 l 1,6,-1
 283 130 l 1,7,-1
 283 -150 l 1,8,-1
 701 -150 l 1,9,-1
 701 -10 l 1,10,-1
 746 -10 l 1,11,-1
 746 -195 l 1,0,-1
424 175 m 1,12,-1
 501 175 l 1,13,-1
 501 243 l 1,14,-1
 424 243 l 1,15,-1
 424 175 l 1,12,-1
237 -150 m 1,16,-1
 237 130 l 1,17,-1
 161 130 l 1,18,-1
 161 -150 l 1,19,-1
 237 -150 l 1,16,-1
367 347 m 1,20,-1
 367 500 l 1,21,-1
 559 500 l 1,22,-1
 559 347 l 1,23,-1
 367 347 l 1,20,-1
412 455 m 1,24,-1
 412 392 l 1,25,-1
 514 392 l 1,26,-1
 514 455 l 1,27,-1
 412 455 l 1,24,-1
EndSplineSet
EndChar

StartChar: a
Encoding: 97 97 35
Width: 1063
Flags: HMW
HStem: 0 45<31 131 176 252 298 397 31 131 803 902 947 1046> 325 45<298 902 298 902> 650 45<31 131 31 947 176 176 176 252 298 298 298 902>
VStem: 131 45<45 650 45 650> 252 46<45 325 370 650> 902 45<45 325 325 325 370 650 650 650>
CounterMasks: 1 e0
LayerCount: 2
Fore
SplineSet
947 45 m 1,0,-1
 1046 45 l 1,1,-1
 1046 0 l 1,2,-1
 803 0 l 1,3,-1
 803 45 l 1,4,-1
 902 45 l 1,5,-1
 902 325 l 1,6,-1
 298 325 l 1,7,-1
 298 45 l 1,8,-1
 397 45 l 1,9,-1
 397 0 l 1,10,-1
 31 0 l 1,11,-1
 31 45 l 1,12,-1
 131 45 l 1,13,-1
 131 650 l 1,14,-1
 31 650 l 1,15,-1
 31 695 l 1,16,-1
 947 695 l 1,17,-1
 947 45 l 1,0,-1
252 45 m 1,18,-1
 252 650 l 1,19,-1
 176 650 l 1,20,-1
 176 45 l 1,21,-1
 252 45 l 1,18,-1
298 370 m 1,22,-1
 902 370 l 1,23,-1
 902 650 l 1,24,-1
 298 650 l 1,25,-1
 298 370 l 1,22,-1
EndSplineSet
EndChar

StartChar: b
Encoding: 98 98 36
Width: 1013
Flags: HMW
HStem: 0 45<32 131 176 253 298 902 32 131> 325 46<298 844 298 844> 650 45<32 131 32 948 176 176 176 253 298 298 298 902>
VStem: 131 45<45 650 45 650> 253 45<45 325 371 650> 902 46<45 266 0 282.5 430 650 650 650>
LayerCount: 2
Fore
SplineSet
32 695 m 1,0,-1
 948 695 l 1,1,-1
 948 430 l 2,2,3
 948 380 948 380 908 348 c 1,4,5
 948 316 948 316 948 266 c 2,6,-1
 948 0 l 1,7,-1
 32 0 l 1,8,-1
 32 45 l 1,9,-1
 131 45 l 1,10,-1
 131 650 l 1,11,-1
 32 650 l 1,12,-1
 32 695 l 1,0,-1
253 45 m 1,13,-1
 253 650 l 1,14,-1
 176 650 l 1,15,-1
 176 45 l 1,16,-1
 253 45 l 1,13,-1
902 45 m 1,17,-1
 902 266 l 2,18,19
 902 291 902 291 885 308 c 128,-1,20
 868 325 868 325 844 325 c 2,21,-1
 298 325 l 1,22,-1
 298 45 l 1,23,-1
 902 45 l 1,17,-1
902 430 m 2,24,-1
 902 650 l 1,25,-1
 298 650 l 1,26,-1
 298 371 l 1,27,-1
 844 371 l 2,28,29
 868 371 868 371 885 388 c 128,-1,30
 902 405 902 405 902 430 c 2,24,-1
EndSplineSet
EndChar

StartChar: c
Encoding: 99 99 37
Width: 951
Flags: HMW
HStem: 0 45<32 131 177 253 298 855 32 131> 650 45<32 131 32 900 177 177 177 253 298 855 298 298>
VStem: 131 46<45 650 45 650> 253 45<45 650 45 650> 855 45<45 185 0 185 510 650 650 650>
LayerCount: 2
Fore
SplineSet
900 510 m 1,0,-1
 855 510 l 1,1,-1
 855 650 l 1,2,-1
 298 650 l 1,3,-1
 298 45 l 1,4,-1
 855 45 l 1,5,-1
 855 185 l 1,6,-1
 900 185 l 1,7,-1
 900 0 l 1,8,-1
 32 0 l 1,9,-1
 32 45 l 1,10,-1
 131 45 l 1,11,-1
 131 650 l 1,12,-1
 32 650 l 1,13,-1
 32 695 l 1,14,-1
 900 695 l 1,15,-1
 900 510 l 1,0,-1
253 45 m 1,16,-1
 253 650 l 1,17,-1
 177 650 l 1,18,-1
 177 45 l 1,19,-1
 253 45 l 1,16,-1
EndSplineSet
EndChar

StartChar: d
Encoding: 100 100 38
Width: 1008
Flags: HMW
HStem: 0 45<32 131 177 253 298 804 32 131> 650 45<32 131 32 804 177 177 177 253 298 298 298 804>
VStem: 131 46<45 650 45 650> 253 45<45 650 45 650> 903 45<144 550>
LayerCount: 2
Fore
SplineSet
804 695 m 2,0,1
 863 695 863 695 905.5 652.5 c 128,-1,2
 948 610 948 610 948 550 c 2,3,-1
 948 144 l 2,4,5
 948 85 948 85 905.5 42.5 c 128,-1,6
 863 0 863 0 804 0 c 2,7,-1
 32 0 l 1,8,-1
 32 45 l 1,9,-1
 131 45 l 1,10,-1
 131 650 l 1,11,-1
 32 650 l 1,12,-1
 32 695 l 1,13,-1
 804 695 l 2,0,1
253 45 m 1,14,-1
 253 650 l 1,15,-1
 177 650 l 1,16,-1
 177 45 l 1,17,-1
 253 45 l 1,14,-1
903 144 m 2,18,-1
 903 550 l 2,19,20
 903 591 903 591 874 620.5 c 128,-1,21
 845 650 845 650 804 650 c 2,22,-1
 298 650 l 1,23,-1
 298 45 l 1,24,-1
 804 45 l 2,25,26
 844 45 844 45 873.5 74.5 c 128,-1,27
 903 104 903 104 903 144 c 2,18,-1
EndSplineSet
EndChar

StartChar: e
Encoding: 101 101 39
Width: 997
Flags: HMW
HStem: 0 45<32 131 176 253 298 903 32 131> 325 45<298 740 298 740> 650 45<32 131 32 948 176 176 176 253 298 903 298 298>
VStem: 131 45<45 650 45 650> 253 45<45 325 370 650> 740 46<226 325 325 325 370 469 226 469> 903 45<45 185 0 185 510 650 650 650>
CounterMasks: 1 e0
LayerCount: 2
Fore
SplineSet
948 510 m 1,0,-1
 903 510 l 1,1,-1
 903 650 l 1,2,-1
 298 650 l 1,3,-1
 298 370 l 1,4,-1
 740 370 l 1,5,-1
 740 469 l 1,6,-1
 786 469 l 1,7,-1
 786 226 l 1,8,-1
 740 226 l 1,9,-1
 740 325 l 1,10,-1
 298 325 l 1,11,-1
 298 45 l 1,12,-1
 903 45 l 1,13,-1
 903 185 l 1,14,-1
 948 185 l 1,15,-1
 948 0 l 1,16,-1
 32 0 l 1,17,-1
 32 45 l 1,18,-1
 131 45 l 1,19,-1
 131 650 l 1,20,-1
 32 650 l 1,21,-1
 32 695 l 1,22,-1
 948 695 l 1,23,-1
 948 510 l 1,0,-1
253 45 m 1,24,-1
 253 650 l 1,25,-1
 176 650 l 1,26,-1
 176 45 l 1,27,-1
 253 45 l 1,24,-1
EndSplineSet
EndChar

StartChar: f
Encoding: 102 102 40
Width: 937
Flags: HMW
HStem: 0 45<32 131 176 253 298 397 32 131> 325 45<298 714 298 714> 650 45<32 131 32 922 176 176 176 253 298 877 298 298>
VStem: 131 45<45 650 45 650> 253 45<45 325 370 650> 714 45<226 325 325 325 370 469 226 469> 877 45<510 650 650 650>
CounterMasks: 1 e0
LayerCount: 2
Fore
SplineSet
32 695 m 1,0,-1
 922 695 l 1,1,-1
 922 510 l 1,2,-1
 877 510 l 1,3,-1
 877 650 l 1,4,-1
 298 650 l 1,5,-1
 298 370 l 1,6,-1
 714 370 l 1,7,-1
 714 469 l 1,8,-1
 759 469 l 1,9,-1
 759 226 l 1,10,-1
 714 226 l 1,11,-1
 714 325 l 1,12,-1
 298 325 l 1,13,-1
 298 45 l 1,14,-1
 397 45 l 1,15,-1
 397 0 l 1,16,-1
 32 0 l 1,17,-1
 32 45 l 1,18,-1
 131 45 l 1,19,-1
 131 650 l 1,20,-1
 32 650 l 1,21,-1
 32 695 l 1,0,-1
253 45 m 1,22,-1
 253 650 l 1,23,-1
 176 650 l 1,24,-1
 176 45 l 1,25,-1
 253 45 l 1,22,-1
EndSplineSet
EndChar

StartChar: g
Encoding: 103 103 41
Width: 1009
Flags: HMW
HStem: 0 45<31 131 176 252 298 902 31 131> 325 45<519 902 519 947> 650 45<31 131 31 947 176 176 176 252 298 902 298 298>
VStem: 131 45<45 650 45 650> 252 46<45 650 45 650> 902 45<45 325 325 325 510 650 650 650>
CounterMasks: 1 e0
LayerCount: 2
Fore
SplineSet
947 510 m 1,0,-1
 902 510 l 1,1,-1
 902 650 l 1,2,-1
 298 650 l 1,3,-1
 298 45 l 1,4,-1
 902 45 l 1,5,-1
 902 325 l 1,6,-1
 519 325 l 1,7,-1
 519 370 l 1,8,-1
 947 370 l 1,9,-1
 947 0 l 1,10,-1
 31 0 l 1,11,-1
 31 45 l 1,12,-1
 131 45 l 1,13,-1
 131 650 l 1,14,-1
 31 650 l 1,15,-1
 31 695 l 1,16,-1
 947 695 l 1,17,-1
 947 510 l 1,0,-1
252 45 m 1,18,-1
 252 650 l 1,19,-1
 176 650 l 1,20,-1
 176 45 l 1,21,-1
 252 45 l 1,18,-1
EndSplineSet
EndChar

StartChar: h
Encoding: 104 104 42
Width: 1078
Flags: HMW
HStem: 0 45<31 131 176 252 297 397 31 131 803 902 947 1046> 325 45<297 902 297 902> 650 45<31 131 31 397 176 176 176 252 297 297 297 397 803 902 947 1046 947 947>
VStem: 131 45<45 650 45 650> 252 45<45 325 370 650> 803 243<0 45 0 45 650 695> 902 45<45 325 325 325 370 650 45 650>
CounterMasks: 1 e0
LayerCount: 2
Fore
SplineSet
1046 650 m 1,0,-1
 947 650 l 1,1,-1
 947 45 l 1,2,-1
 1046 45 l 1,3,-1
 1046 0 l 1,4,-1
 803 0 l 1,5,-1
 803 45 l 1,6,-1
 902 45 l 1,7,-1
 902 325 l 1,8,-1
 297 325 l 1,9,-1
 297 45 l 1,10,-1
 397 45 l 1,11,-1
 397 0 l 1,12,-1
 31 0 l 1,13,-1
 31 45 l 1,14,-1
 131 45 l 1,15,-1
 131 650 l 1,16,-1
 31 650 l 1,17,-1
 31 695 l 1,18,-1
 397 695 l 1,19,-1
 397 650 l 1,20,-1
 297 650 l 1,21,-1
 297 370 l 1,22,-1
 902 370 l 1,23,-1
 902 650 l 1,24,-1
 803 650 l 1,25,-1
 803 695 l 1,26,-1
 1046 695 l 1,27,-1
 1046 650 l 1,0,-1
252 45 m 1,28,-1
 252 650 l 1,29,-1
 176 650 l 1,30,-1
 176 45 l 1,31,-1
 252 45 l 1,28,-1
EndSplineSet
EndChar

StartChar: i
Encoding: 105 105 43
Width: 565
Flags: HMW
HStem: 0 45<19 199 244 321 366 546 19 199> 650 45<19 199 19 546 244 244 244 321 366 546 366 366>
VStem: 199 45<45 650 45 650> 321 45<45 650 45 650>
LayerCount: 2
Fore
SplineSet
546 650 m 1,0,-1
 366 650 l 1,1,-1
 366 45 l 1,2,-1
 546 45 l 1,3,-1
 546 0 l 1,4,-1
 19 0 l 1,5,-1
 19 45 l 1,6,-1
 199 45 l 1,7,-1
 199 650 l 1,8,-1
 19 650 l 1,9,-1
 19 695 l 1,10,-1
 546 695 l 1,11,-1
 546 650 l 1,0,-1
321 45 m 1,12,-1
 321 650 l 1,13,-1
 244 650 l 1,14,-1
 244 45 l 1,15,-1
 321 45 l 1,12,-1
EndSplineSet
EndChar

StartChar: j
Encoding: 106 106 44
Width: 889
Flags: HMW
HStem: 0 45<66 591 636 712 758 857> 650 45<491 591 491 857 636 636 636 712 758 857 758 758>
VStem: 21 45<45 185 45 185 45 185> 591 45<45 650 45 650> 712 46<45 650 45 650>
LayerCount: 2
Fore
SplineSet
857 650 m 1,0,-1
 758 650 l 1,1,-1
 758 45 l 1,2,-1
 857 45 l 1,3,-1
 857 0 l 1,4,-1
 21 0 l 1,5,-1
 21 185 l 1,6,-1
 66 185 l 1,7,-1
 66 45 l 1,8,-1
 591 45 l 1,9,-1
 591 650 l 1,10,-1
 491 650 l 1,11,-1
 491 695 l 1,12,-1
 857 695 l 1,13,-1
 857 650 l 1,0,-1
712 45 m 1,14,-1
 712 650 l 1,15,-1
 636 650 l 1,16,-1
 636 45 l 1,17,-1
 712 45 l 1,14,-1
EndSplineSet
EndChar

StartChar: k
Encoding: 107 107 45
Width: 1001
Flags: HMW
HStem: 0 45<32 131 176 253 298 398 32 131 763 840 896 1007> 325 45<298 629 298 630 298 629> 650 45<32 131 32 398 176 176 176 253 298 298 298 398 722 803 857 857 857 966>
VStem: 131 45<45 650> 253 45<45 325 370 650>
CounterMasks: 1 e0
LayerCount: 2
Fore
SplineSet
669 349 m 1,0,-1
 896 45 l 1,1,-1
 1007 45 l 1,2,-1
 1007 0 l 1,3,-1
 763 0 l 1,4,-1
 763 45 l 1,5,-1
 840 45 l 1,6,-1
 630 325 l 1,7,-1
 298 325 l 1,8,-1
 298 45 l 1,9,-1
 398 45 l 1,10,-1
 398 0 l 1,11,-1
 32 0 l 1,12,-1
 32 45 l 1,13,-1
 131 45 l 1,14,-1
 131 650 l 1,15,-1
 32 650 l 1,16,-1
 32 695 l 1,17,-1
 398 695 l 1,18,-1
 398 650 l 1,19,-1
 298 650 l 1,20,-1
 298 370 l 1,21,-1
 629 370 l 1,22,-1
 803 650 l 1,23,-1
 722 650 l 1,24,-1
 722 695 l 1,25,-1
 966 695 l 1,26,-1
 966 650 l 1,27,-1
 857 650 l 1,28,-1
 669 349 l 1,0,-1
176 45 m 1,29,-1
 253 45 l 1,30,-1
 253 650 l 1,31,-1
 176 650 l 1,32,-1
 176 45 l 1,29,-1
EndSplineSet
EndChar

StartChar: l
Encoding: 108 108 46
Width: 918
Flags: HMW
HStem: 0 45<31 131 176 252 298 852 31 131> 650 45<31 131 31 397 176 176 176 252 298 298 298 397>
VStem: 131 45<45 650 45 650> 252 46<45 650 45 650> 852 45<45 185 0 185>
LayerCount: 2
Fore
SplineSet
852 185 m 1,0,-1
 897 185 l 1,1,-1
 897 0 l 1,2,-1
 31 0 l 1,3,-1
 31 45 l 1,4,-1
 131 45 l 1,5,-1
 131 650 l 1,6,-1
 31 650 l 1,7,-1
 31 695 l 1,8,-1
 397 695 l 1,9,-1
 397 650 l 1,10,-1
 298 650 l 1,11,-1
 298 45 l 1,12,-1
 852 45 l 1,13,-1
 852 185 l 1,0,-1
252 45 m 1,14,-1
 252 650 l 1,15,-1
 176 650 l 1,16,-1
 176 45 l 1,17,-1
 252 45 l 1,14,-1
EndSplineSet
EndChar

StartChar: m
Encoding: 109 109 47
Width: 1281
Flags: HMW
HStem: -23 21G<640 640> 0 45<31 131 176 252 298 397 31 131 884 983 1028 1105 1150 1249> 650 45<31 131 31 288 176 176 176 252 1028 1028 1028 1105 1150 1249 1150 1150>
VStem: 131 45<45 650> 252 46<45 586 45 650> 983 45<45 586 586 586> 1105 45<45 650 45 650>
LayerCount: 2
Fore
SplineSet
1249 650 m 1,0,-1
 1150 650 l 1,1,-1
 1150 45 l 1,2,-1
 1249 45 l 1,3,-1
 1249 0 l 1,4,-1
 884 0 l 1,5,-1
 884 45 l 1,6,-1
 983 45 l 1,7,-1
 983 586 l 1,8,-1
 640 -23 l 1,9,-1
 298 586 l 1,10,-1
 298 45 l 1,11,-1
 397 45 l 1,12,-1
 397 0 l 1,13,-1
 31 0 l 1,14,-1
 31 45 l 1,15,-1
 131 45 l 1,16,-1
 131 650 l 1,17,-1
 31 650 l 1,18,-1
 31 695 l 1,19,-1
 288 695 l 1,20,-1
 640 69 l 1,21,-1
 993 695 l 1,22,-1
 1249 695 l 1,23,-1
 1249 650 l 1,0,-1
176 45 m 1,24,-1
 252 45 l 1,25,-1
 252 650 l 1,26,-1
 176 650 l 1,27,-1
 176 45 l 1,24,-1
1028 45 m 1,28,-1
 1105 45 l 1,29,-1
 1105 650 l 1,30,-1
 1028 650 l 1,31,-1
 1028 45 l 1,28,-1
EndSplineSet
EndChar

StartChar: n
Encoding: 110 110 48
Width: 1119
Flags: HMW
HStem: 0 45<32 131 176 253 298 397 32 131 866 943 988 1087> 650 45<32 131 32 286 176 176 176 253 722 821 866 866 866 943 988 1087 988 988>
VStem: 131 45<45 650> 253 45<45 612 45 650 45 650> 821 45<83 650 45 650> 943 45<45 650 45 650>
LayerCount: 2
Fore
SplineSet
1087 650 m 1,0,-1
 988 650 l 1,1,-1
 988 45 l 1,2,-1
 1087 45 l 1,3,-1
 1087 0 l 1,4,-1
 834 0 l 1,5,-1
 298 612 l 1,6,-1
 298 45 l 1,7,-1
 397 45 l 1,8,-1
 397 0 l 1,9,-1
 32 0 l 1,10,-1
 32 45 l 1,11,-1
 131 45 l 1,12,-1
 131 650 l 1,13,-1
 32 650 l 1,14,-1
 32 695 l 1,15,-1
 286 695 l 1,16,-1
 821 83 l 1,17,-1
 821 650 l 1,18,-1
 722 650 l 1,19,-1
 722 695 l 1,20,-1
 1087 695 l 1,21,-1
 1087 650 l 1,0,-1
176 45 m 1,22,-1
 253 45 l 1,23,-1
 253 650 l 1,24,-1
 176 650 l 1,25,-1
 176 45 l 1,22,-1
943 45 m 1,26,-1
 943 650 l 1,27,-1
 866 650 l 1,28,-1
 866 45 l 1,29,-1
 943 45 l 1,26,-1
EndSplineSet
EndChar

StartChar: o
Encoding: 111 111 49
Width: 948
Flags: HMW
HStem: 0 45<111 188 233 837> 650 45<111 188 111 111 233 233 233 837>
VStem: 66 45<45 45 45 650> 188 45<45 650 45 650> 837 45<45 650 650 650>
LayerCount: 2
Fore
SplineSet
66 695 m 1,0,-1
 882 695 l 1,1,-1
 882 0 l 1,2,-1
 66 0 l 1,3,-1
 66 695 l 1,0,-1
111 45 m 1,4,-1
 188 45 l 1,5,-1
 188 650 l 1,6,-1
 111 650 l 1,7,-1
 111 45 l 1,4,-1
837 45 m 1,8,-1
 837 650 l 1,9,-1
 233 650 l 1,10,-1
 233 45 l 1,11,-1
 837 45 l 1,8,-1
EndSplineSet
EndChar

StartChar: p
Encoding: 112 112 50
Width: 956
Flags: HMW
HStem: 0 45<32 131 177 253 298 398 32 131> 325 45<298 872 298 917 298 872> 650 45<32 131 32 917 177 177 177 253 298 298 298 872>
VStem: 131 46<45 650> 253 45<45 325 370 650> 872 45<370 650 650 650>
CounterMasks: 1 e0
LayerCount: 2
Fore
SplineSet
917 325 m 1,0,-1
 298 325 l 1,1,-1
 298 45 l 1,2,-1
 398 45 l 1,3,-1
 398 0 l 1,4,-1
 32 0 l 1,5,-1
 32 45 l 1,6,-1
 131 45 l 1,7,-1
 131 650 l 1,8,-1
 32 650 l 1,9,-1
 32 695 l 1,10,-1
 917 695 l 1,11,-1
 917 325 l 1,0,-1
872 650 m 1,12,-1
 298 650 l 1,13,-1
 298 370 l 1,14,-1
 872 370 l 1,15,-1
 872 650 l 1,12,-1
177 45 m 1,16,-1
 253 45 l 1,17,-1
 253 650 l 1,18,-1
 177 650 l 1,19,-1
 177 45 l 1,16,-1
EndSplineSet
EndChar

StartChar: q
Encoding: 113 113 51
Width: 948
Flags: HMW
HStem: -118 21G<806 806> 0 45<111 187 232 562 711 837 711 711> 650 45<111 187 111 111 232 232 232 837>
VStem: 66 45<45 45 45 650> 187 45<45 650 45 650> 837 45<45 650 650 650>
LayerCount: 2
Fore
SplineSet
882 695 m 1,0,-1
 882 0 l 1,1,-1
 711 0 l 1,2,-1
 832 -80 l 1,3,-1
 806 -118 l 1,4,-1
 629 0 l 1,5,-1
 66 0 l 1,6,-1
 66 695 l 1,7,-1
 882 695 l 1,0,-1
111 45 m 1,8,-1
 187 45 l 1,9,-1
 187 650 l 1,10,-1
 111 650 l 1,11,-1
 111 45 l 1,8,-1
837 45 m 1,12,-1
 837 650 l 1,13,-1
 232 650 l 1,14,-1
 232 45 l 1,15,-1
 562 45 l 1,16,-1
 441 126 l 1,17,-1
 466 163 l 1,18,-1
 643 45 l 1,19,-1
 837 45 l 1,12,-1
EndSplineSet
EndChar

StartChar: r
Encoding: 114 114 52
Width: 1064
Flags: HMW
HStem: 0 45<32 131 177 253 298 398 32 131 804 902 948 1047> 325 46<298 844 298 844> 650 45<32 131 32 948 177 177 177 253 298 298 298 902>
VStem: 131 46<45 650 45 650> 253 45<45 325 371 650> 902 46<45 266 430 650 650 650>
LayerCount: 2
Fore
SplineSet
948 45 m 1,0,-1
 1047 45 l 1,1,-1
 1047 0 l 1,2,-1
 804 0 l 1,3,-1
 804 45 l 1,4,-1
 902 45 l 1,5,-1
 902 266 l 2,6,7
 902 291 902 291 885 308 c 128,-1,8
 868 325 868 325 844 325 c 2,9,-1
 298 325 l 1,10,-1
 298 45 l 1,11,-1
 398 45 l 1,12,-1
 398 0 l 1,13,-1
 32 0 l 1,14,-1
 32 45 l 1,15,-1
 131 45 l 1,16,-1
 131 650 l 1,17,-1
 32 650 l 1,18,-1
 32 695 l 1,19,-1
 948 695 l 1,20,-1
 948 430 l 2,21,22
 948 380 948 380 908 348 c 1,23,24
 948 316 948 316 948 266 c 2,25,-1
 948 45 l 1,0,-1
253 45 m 1,26,-1
 253 650 l 1,27,-1
 177 650 l 1,28,-1
 177 45 l 1,29,-1
 253 45 l 1,26,-1
902 430 m 2,30,-1
 902 650 l 1,31,-1
 298 650 l 1,32,-1
 298 371 l 1,33,-1
 844 371 l 2,34,35
 868 371 868 371 885 388 c 128,-1,36
 902 405 902 405 902 430 c 2,30,-1
EndSplineSet
EndChar

StartChar: s
Encoding: 115 115 53
Width: 940
Flags: HMW
HStem: 0 45<107 711 756 833> 325 45<107 183 229 711 756 756 756 833> 650 45<107 183 107 107 229 833 229 229>
VStem: 62 45<45 185 45 185 45 185 370 650> 183 46<370 650 370 650> 711 45<45 325 45 325> 833 45<45 325 325 325 510 650 650 650>
CounterMasks: 1 e0
LayerCount: 2
Fore
SplineSet
62 695 m 1,0,-1
 878 695 l 1,1,-1
 878 510 l 1,2,-1
 833 510 l 1,3,-1
 833 650 l 1,4,-1
 229 650 l 1,5,-1
 229 370 l 1,6,-1
 878 370 l 1,7,-1
 878 0 l 1,8,-1
 62 0 l 1,9,-1
 62 185 l 1,10,-1
 107 185 l 1,11,-1
 107 45 l 1,12,-1
 711 45 l 1,13,-1
 711 325 l 1,14,-1
 62 325 l 1,15,-1
 62 695 l 1,0,-1
833 325 m 1,16,-1
 756 325 l 1,17,-1
 756 45 l 1,18,-1
 833 45 l 1,19,-1
 833 325 l 1,16,-1
183 370 m 1,20,-1
 183 650 l 1,21,-1
 107 650 l 1,22,-1
 107 370 l 1,23,-1
 183 370 l 1,20,-1
EndSplineSet
EndChar

StartChar: t
Encoding: 116 116 54
Width: 971
Flags: HMW
HStem: 0 45<303 402 447 524 569 669 303 402> 510 185<19 64 19 952 907 952 907 907> 650 45<64 402 64 64 447 447 447 524 569 907 569 569>
VStem: 19 45<510 650 510 695> 402 45<45 650 45 650> 524 45<45 650 45 650> 907 45<510 650 650 650>
LayerCount: 2
Fore
SplineSet
19 695 m 1,0,-1
 952 695 l 1,1,-1
 952 510 l 1,2,-1
 907 510 l 1,3,-1
 907 650 l 1,4,-1
 569 650 l 1,5,-1
 569 45 l 1,6,-1
 669 45 l 1,7,-1
 669 0 l 1,8,-1
 303 0 l 1,9,-1
 303 45 l 1,10,-1
 402 45 l 1,11,-1
 402 650 l 1,12,-1
 64 650 l 1,13,-1
 64 510 l 1,14,-1
 19 510 l 1,15,-1
 19 695 l 1,0,-1
524 45 m 1,16,-1
 524 650 l 1,17,-1
 447 650 l 1,18,-1
 447 45 l 1,19,-1
 524 45 l 1,16,-1
EndSplineSet
EndChar

StartChar: u
Encoding: 117 117 55
Width: 1063
Flags: HMW
HStem: 0 45<32 131 176 253 298 903 32 131> 650 45<32 131 32 397 176 176 176 253 298 298 298 397 803 903 948 1047 948 948>
VStem: 131 45<45 650 45 650> 253 45<45 650 45 650> 903 45<45 650 0 650>
LayerCount: 2
Fore
SplineSet
1047 695 m 1,0,-1
 1047 650 l 1,1,-1
 948 650 l 1,2,-1
 948 0 l 1,3,-1
 32 0 l 1,4,-1
 32 45 l 1,5,-1
 131 45 l 1,6,-1
 131 650 l 1,7,-1
 32 650 l 1,8,-1
 32 695 l 1,9,-1
 397 695 l 1,10,-1
 397 650 l 1,11,-1
 298 650 l 1,12,-1
 298 45 l 1,13,-1
 903 45 l 1,14,-1
 903 650 l 1,15,-1
 803 650 l 1,16,-1
 803 695 l 1,17,-1
 1047 695 l 1,0,-1
253 45 m 1,18,-1
 253 650 l 1,19,-1
 176 650 l 1,20,-1
 176 45 l 1,21,-1
 253 45 l 1,18,-1
EndSplineSet
EndChar

StartChar: v
Encoding: 118 118 56
Width: 1040
Flags: HMW
HStem: 0 45<32 131 176 253 298 662 32 131> 650 45<32 131 32 397 176 176 176 253 298 298 298 397 803 889 939 939 939 1047>
VStem: 131 45<45 650 45 650> 253 45<45 650 45 650>
LayerCount: 2
Fore
SplineSet
803 650 m 1,0,-1
 803 695 l 1,1,-1
 1047 695 l 1,2,-1
 1047 650 l 1,3,-1
 939 650 l 1,4,-1
 695 0 l 1,5,-1
 32 0 l 1,6,-1
 32 45 l 1,7,-1
 131 45 l 1,8,-1
 131 650 l 1,9,-1
 32 650 l 1,10,-1
 32 695 l 1,11,-1
 397 695 l 1,12,-1
 397 650 l 1,13,-1
 298 650 l 1,14,-1
 298 45 l 1,15,-1
 662 45 l 1,16,-1
 889 650 l 1,17,-1
 803 650 l 1,0,-1
253 45 m 1,18,-1
 253 650 l 1,19,-1
 176 650 l 1,20,-1
 176 45 l 1,21,-1
 253 45 l 1,18,-1
EndSplineSet
EndChar

StartChar: w
Encoding: 119 119 57
Width: 1363
Flags: HMW
HStem: 0 45<32 131 177 253 298 659 704 1065 1110 1187 1232 1331 32 131> 650 45<32 131 32 398 177 177 177 253 298 298 298 398 560 659 704 704 704 803 966 1065 1110 1110 1110 1187 1232 1331 1232 1232>
VStem: 131 46<45 650 45 650> 253 45<45 650 45 650> 659 45<45 650 45 650> 1065 45<45 650 45 650> 1187 45<45 650 45 650>
LayerCount: 2
Fore
SplineSet
1331 650 m 1,0,-1
 1232 650 l 1,1,-1
 1232 45 l 1,2,-1
 1331 45 l 1,3,-1
 1331 0 l 1,4,-1
 32 0 l 1,5,-1
 32 45 l 1,6,-1
 131 45 l 1,7,-1
 131 650 l 1,8,-1
 32 650 l 1,9,-1
 32 695 l 1,10,-1
 398 695 l 1,11,-1
 398 650 l 1,12,-1
 298 650 l 1,13,-1
 298 45 l 1,14,-1
 659 45 l 1,15,-1
 659 650 l 1,16,-1
 560 650 l 1,17,-1
 560 695 l 1,18,-1
 803 695 l 1,19,-1
 803 650 l 1,20,-1
 704 650 l 1,21,-1
 704 45 l 1,22,-1
 1065 45 l 1,23,-1
 1065 650 l 1,24,-1
 966 650 l 1,25,-1
 966 695 l 1,26,-1
 1331 695 l 1,27,-1
 1331 650 l 1,0,-1
253 45 m 1,28,-1
 253 650 l 1,29,-1
 177 650 l 1,30,-1
 177 45 l 1,31,-1
 253 45 l 1,28,-1
1187 45 m 1,32,-1
 1187 650 l 1,33,-1
 1110 650 l 1,34,-1
 1110 45 l 1,35,-1
 1187 45 l 1,32,-1
EndSplineSet
EndChar

StartChar: x
Encoding: 120 120 58
Width: 938
Flags: HMW
HStem: 0 45<28 128 193 271 28 128 525 604 664 765 824 931> 650 45<-3 88 -3 403 147 147 147 248 307 307 307 403 677 746 810 810 810 921>
LayerCount: 2
Fore
SplineSet
536 382 m 1,0,-1
 824 45 l 1,1,-1
 931 45 l 1,2,-1
 931 0 l 1,3,-1
 525 0 l 1,4,-1
 525 45 l 1,5,-1
 604 45 l 1,6,-1
 417 265 l 1,7,-1
 193 45 l 1,8,-1
 271 45 l 1,9,-1
 271 0 l 1,10,-1
 28 0 l 1,11,-1
 28 45 l 1,12,-1
 128 45 l 1,13,-1
 387 299 l 1,14,-1
 88 650 l 1,15,-1
 -3 650 l 1,16,-1
 -3 695 l 1,17,-1
 403 695 l 1,18,-1
 403 650 l 1,19,-1
 307 650 l 1,20,-1
 507 416 l 1,21,-1
 746 650 l 1,22,-1
 677 650 l 1,23,-1
 677 695 l 1,24,-1
 921 695 l 1,25,-1
 921 650 l 1,26,-1
 810 650 l 1,27,-1
 536 382 l 1,0,-1
664 45 m 1,28,-1
 765 45 l 1,29,-1
 248 650 l 1,30,-1
 147 650 l 1,31,-1
 664 45 l 1,28,-1
EndSplineSet
EndChar

StartChar: y
Encoding: 121 121 59
Width: 924
Flags: HMW
HStem: 0 45<280 379 424 501 546 645 280 379> 325 45<424 501 424 424> 650 45<-5 107 -5 239 167 167 167 239 686 758 818 818 818 929>
VStem: 379 45<45 325> 501 45<45 325 325 325>
CounterMasks: 1 e0
LayerCount: 2
Fore
SplineSet
686 650 m 1,0,-1
 686 695 l 1,1,-1
 929 695 l 1,2,-1
 929 650 l 1,3,-1
 818 650 l 1,4,-1
 546 339 l 1,5,-1
 546 45 l 1,6,-1
 645 45 l 1,7,-1
 645 0 l 1,8,-1
 280 0 l 1,9,-1
 280 45 l 1,10,-1
 379 45 l 1,11,-1
 379 339 l 1,12,-1
 107 650 l 1,13,-1
 -5 650 l 1,14,-1
 -5 695 l 1,15,-1
 239 695 l 1,16,-1
 239 650 l 1,17,-1
 167 650 l 1,18,-1
 412 370 l 1,19,-1
 513 370 l 1,20,-1
 758 650 l 1,21,-1
 686 650 l 1,0,-1
424 45 m 1,22,-1
 501 45 l 1,23,-1
 501 325 l 1,24,-1
 424 325 l 1,25,-1
 424 45 l 1,22,-1
EndSplineSet
EndChar

StartChar: z
Encoding: 122 122 60
Width: 901
Flags: HMW
HStem: 0 45<127 230 291 818> 650 45<84 612 84 84 672 672 672 776>
VStem: 39 45<510 650 510 695> 818 45<45 185 0 185>
LayerCount: 2
Fore
SplineSet
818 185 m 1,0,-1
 863 185 l 1,1,-1
 863 0 l 1,2,-1
 25 0 l 1,3,-1
 612 650 l 1,4,-1
 84 650 l 1,5,-1
 84 510 l 1,6,-1
 39 510 l 1,7,-1
 39 695 l 1,8,-1
 877 695 l 1,9,-1
 291 45 l 1,10,-1
 818 45 l 1,11,-1
 818 185 l 1,0,-1
230 45 m 1,12,-1
 776 650 l 1,13,-1
 672 650 l 1,14,-1
 127 45 l 1,15,-1
 230 45 l 1,12,-1
EndSplineSet
EndChar

StartChar: period
Encoding: 46 46 61
Width: 322
Flags: HMW
HStem: 0 45<110 212 110 257> 108 45<110 212 110 110>
VStem: 65 45<45 108 45 153> 212 45<45 108 108 108>
LayerCount: 2
Fore
SplineSet
257 153 m 1,0,-1
 257 0 l 1,1,-1
 65 0 l 1,2,-1
 65 153 l 1,3,-1
 257 153 l 1,0,-1
212 45 m 1,4,-1
 212 108 l 1,5,-1
 110 108 l 1,6,-1
 110 45 l 1,7,-1
 212 45 l 1,4,-1
EndSplineSet
EndChar

StartChar: comma
Encoding: 44 44 62
Width: 356
Flags: HMW
HStem: -147 45<31 117 31 145> 108 45<140 226 140 140>
LayerCount: 2
Fore
SplineSet
113 153 m 1,0,-1
 301 153 l 1,1,-1
 145 -147 l 1,2,-1
 -43 -147 l 1,3,-1
 113 153 l 1,0,-1
31 -102 m 1,4,-1
 117 -102 l 1,5,-1
 226 108 l 1,6,-1
 140 108 l 1,7,-1
 31 -102 l 1,4,-1
EndSplineSet
EndChar

StartChar: hyphen
Encoding: 45 45 63
Width: 597
Flags: HMW
HStem: 256 45<110 487 110 532> 364 45<110 487 110 110>
VStem: 65 45<301 364 301 409> 487 45<301 364 364 364>
LayerCount: 2
Fore
SplineSet
532 409 m 1,0,-1
 532 256 l 1,1,-1
 65 256 l 1,2,-1
 65 409 l 1,3,-1
 532 409 l 1,0,-1
487 301 m 1,4,-1
 487 364 l 1,5,-1
 110 364 l 1,6,-1
 110 301 l 1,7,-1
 487 301 l 1,4,-1
EndSplineSet
EndChar

StartChar: underscore
Encoding: 95 95 64
Width: 1083
Flags: HMW
HStem: -97 45<185 898 185 898>
LayerCount: 2
Fore
SplineSet
898 -52 m 1,0,-1
 898 -97 l 1,1,-1
 185 -97 l 1,2,-1
 185 -52 l 1,3,-1
 898 -52 l 1,0,-1
EndSplineSet
EndChar

StartChar: bar
Encoding: 124 124 65
Width: 311
Flags: HMW
HStem: -185 45<117 193 117 239> 705 45<117 193 117 117>
VStem: 72 45<-140 705 -140 750> 193 46<-140 705 705 705>
LayerCount: 2
Fore
SplineSet
239 750 m 1,0,-1
 239 -185 l 1,1,-1
 72 -185 l 1,2,-1
 72 750 l 1,3,-1
 239 750 l 1,0,-1
193 -140 m 1,4,-1
 193 705 l 1,5,-1
 117 705 l 1,6,-1
 117 -140 l 1,7,-1
 193 -140 l 1,4,-1
EndSplineSet
EndChar

StartChar: brokenbar
Encoding: 166 166 66
Width: 189
Flags: HMW
HStem: -48 21G<72 117 72 72> 814 20G<72 117 117 117>
VStem: 72 45<-48 327 -48 327 459 834>
LayerCount: 2
Fore
SplineSet
72 834 m 1,0,-1
 117 834 l 1,1,-1
 117 459 l 1,2,-1
 72 459 l 1,3,-1
 72 834 l 1,0,-1
72 327 m 1,4,-1
 117 327 l 1,5,-1
 117 -48 l 1,6,-1
 72 -48 l 1,7,-1
 72 327 l 1,4,-1
EndSplineSet
EndChar

StartChar: bracketleft
Encoding: 91 91 67
Width: 438
Flags: HMW
HStem: -99 45<115 192 237 417> 722 45<115 192 115 115 237 417 237 237>
VStem: 70 45<-54 722 -54 767> 192 45<-54 722 -54 722>
LayerCount: 2
Fore
SplineSet
417 722 m 1,0,-1
 237 722 l 1,1,-1
 237 -54 l 1,2,-1
 417 -54 l 1,3,-1
 417 -99 l 1,4,-1
 70 -99 l 1,5,-1
 70 767 l 1,6,-1
 417 767 l 1,7,-1
 417 722 l 1,0,-1
192 -54 m 1,8,-1
 192 722 l 1,9,-1
 115 722 l 1,10,-1
 115 -54 l 1,11,-1
 192 -54 l 1,8,-1
EndSplineSet
EndChar

StartChar: bracketright
Encoding: 93 93 68
Width: 438
Flags: HMW
HStem: -99 45<21 201 246 323 21 201> 722 45<21 201 21 368 246 323 246 246>
VStem: 201 45<-54 722 -54 722> 323 45<-54 722 722 722>
LayerCount: 2
Fore
SplineSet
201 722 m 1,0,-1
 21 722 l 1,1,-1
 21 767 l 1,2,-1
 368 767 l 1,3,-1
 368 -99 l 1,4,-1
 21 -99 l 1,5,-1
 21 -54 l 1,6,-1
 201 -54 l 1,7,-1
 201 722 l 1,0,-1
246 722 m 1,8,-1
 246 -54 l 1,9,-1
 323 -54 l 1,10,-1
 323 722 l 1,11,-1
 246 722 l 1,8,-1
EndSplineSet
EndChar

StartChar: slash
Encoding: 47 47 69
Width: 714
Flags: HMW
HStem: -147 45<101 187 101 215> 712 45<526 612 526 526>
LayerCount: 2
Fore
SplineSet
499 757 m 1,0,-1
 687 757 l 1,1,-1
 215 -147 l 1,2,-1
 27 -147 l 1,3,-1
 499 757 l 1,0,-1
101 -102 m 1,4,-1
 187 -102 l 1,5,-1
 612 712 l 1,6,-1
 526 712 l 1,7,-1
 101 -102 l 1,4,-1
EndSplineSet
EndChar

StartChar: backslash
Encoding: 92 92 70
Width: 714
Flags: HMW
HStem: -147 45<527 613 527 687 499 613> 712 45<102 188 102 102>
LayerCount: 2
Fore
SplineSet
27 757 m 1,0,-1
 215 757 l 1,1,-1
 687 -147 l 1,2,-1
 499 -147 l 1,3,-1
 27 757 l 1,0,-1
527 -102 m 1,4,-1
 613 -102 l 1,5,-1
 188 712 l 1,6,-1
 102 712 l 1,7,-1
 527 -102 l 1,4,-1
EndSplineSet
EndChar

StartChar: parenleft
Encoding: 40 40 71
Width: 385
Flags: HMW
HStem: -99 21G<312 384 312 312> 747 20G<312 384 384 384>
VStem: 48 45<137 137 137 532> 170 45<75 594 594 594>
LayerCount: 2
Fore
SplineSet
215 631 m 1,0,-1
 215 38 l 1,1,-1
 384 -99 l 1,2,-1
 312 -99 l 1,3,-1
 48 115 l 1,4,-1
 48 554 l 1,5,-1
 312 767 l 1,6,-1
 384 767 l 1,7,-1
 215 631 l 1,0,-1
93 137 m 1,8,-1
 170 75 l 1,9,-1
 170 594 l 1,10,-1
 93 532 l 1,11,-1
 93 137 l 1,8,-1
EndSplineSet
EndChar

StartChar: parenright
Encoding: 41 41 72
Width: 385
Flags: HMW
HStem: -99 21G<1 73 1 1> 747 20G<1 73 73 73>
VStem: 170 45<75 75 75 594> 292 45<137 532 532 532>
LayerCount: 2
Fore
SplineSet
170 38 m 1,0,-1
 170 631 l 1,1,-1
 1 767 l 1,2,-1
 73 767 l 1,3,-1
 337 554 l 1,4,-1
 337 115 l 1,5,-1
 73 -99 l 1,6,-1
 1 -99 l 1,7,-1
 170 38 l 1,0,-1
215 75 m 1,8,-1
 292 137 l 1,9,-1
 292 532 l 1,10,-1
 215 594 l 1,11,-1
 215 75 l 1,8,-1
EndSplineSet
EndChar

StartChar: braceleft
Encoding: 123 123 73
Width: 465
Flags: HMW
HStem: -92 45<370 444 370 444 353 444> 312 45<20 97 20 97> 716 45<369 369 369 444>
VStem: 97 45<137 312 312 312 357 532 137 554 137 554> 219 45<75 594 594 594>
CounterMasks: 1 e0
LayerCount: 2
Fore
SplineSet
369 716 m 1,0,-1
 264 631 l 1,1,-1
 264 38 l 1,2,-1
 370 -47 l 1,3,-1
 444 -47 l 1,4,-1
 444 -92 l 1,5,-1
 353 -92 l 1,6,-1
 97 115 l 1,7,-1
 97 312 l 1,8,-1
 20 312 l 1,9,-1
 20 357 l 1,10,-1
 97 357 l 1,11,-1
 97 554 l 1,12,-1
 353 761 l 1,13,-1
 444 761 l 1,14,-1
 444 716 l 1,15,-1
 369 716 l 1,0,-1
219 594 m 1,16,-1
 142 532 l 1,17,-1
 142 137 l 1,18,-1
 219 75 l 1,19,-1
 219 594 l 1,16,-1
EndSplineSet
EndChar

StartChar: braceright
Encoding: 125 125 74
Width: 465
Flags: HMW
HStem: -92 45<21 95 21 112 21 95> 312 45<368 445 368 445> 716 45<21 96 21 112>
VStem: 201 45<75 594 75 631 75 631> 323 45<137 312 357 532 532 532>
CounterMasks: 1 e0
LayerCount: 2
Fore
SplineSet
201 631 m 1,0,-1
 96 716 l 1,1,-1
 21 716 l 1,2,-1
 21 761 l 1,3,-1
 112 761 l 1,4,-1
 368 554 l 1,5,-1
 368 357 l 1,6,-1
 445 357 l 1,7,-1
 445 312 l 1,8,-1
 368 312 l 1,9,-1
 368 115 l 1,10,-1
 112 -92 l 1,11,-1
 21 -92 l 1,12,-1
 21 -47 l 1,13,-1
 95 -47 l 1,14,-1
 201 38 l 1,15,-1
 201 631 l 1,0,-1
323 532 m 1,16,-1
 246 594 l 1,17,-1
 246 75 l 1,18,-1
 323 137 l 1,19,-1
 323 532 l 1,16,-1
EndSplineSet
EndChar

StartChar: zero
Encoding: 48 48 75
Width: 948
Flags: HMW
HStem: 0 45<111 188 269 837> 650 45<111 188 111 111 233 813 233 233>
VStem: 66 45<45 45 45 650> 188 45<73 650 73 650 73 650> 837 45<45 611 611 611>
LayerCount: 2
Fore
SplineSet
66 695 m 1,0,-1
 882 695 l 1,1,-1
 882 0 l 1,2,-1
 66 0 l 1,3,-1
 66 695 l 1,0,-1
111 45 m 1,4,-1
 188 45 l 1,5,-1
 188 650 l 1,6,-1
 111 650 l 1,7,-1
 111 45 l 1,4,-1
233 650 m 1,8,-1
 233 73 l 1,9,-1
 813 650 l 1,10,-1
 233 650 l 1,8,-1
837 45 m 1,11,-1
 837 611 l 1,12,-1
 269 45 l 1,13,-1
 837 45 l 1,11,-1
EndSplineSet
EndChar

StartChar: one
Encoding: 49 49 76
Width: 652
Flags: HMW
HStem: 0 45<34 272 317 394 439 652 34 272> 650 45<34 272 34 439 317 317 317 394>
VStem: 272 45<45 650 45 650> 394 45<45 650 650 650>
LayerCount: 2
Fore
SplineSet
439 695 m 1,0,-1
 439 45 l 1,1,-1
 652 45 l 1,2,-1
 652 0 l 1,3,-1
 34 0 l 1,4,-1
 34 45 l 1,5,-1
 272 45 l 1,6,-1
 272 650 l 1,7,-1
 34 650 l 1,8,-1
 34 695 l 1,9,-1
 439 695 l 1,0,-1
394 45 m 1,10,-1
 394 650 l 1,11,-1
 317 650 l 1,12,-1
 317 45 l 1,13,-1
 394 45 l 1,10,-1
EndSplineSet
EndChar

StartChar: two
Encoding: 50 50 77
Width: 940
Flags: HMW
HStem: 0 45<107 184 229 833> 325 45<107 184 107 107 229 711 757 833 229 229> 650 45<107 711 107 107 757 833 757 757>
VStem: 62 45<45 325 45 370 510 650> 184 45<45 325 45 325> 711 46<370 650 370 650> 833 45<45 185 0 185 370 650 650 650>
CounterMasks: 1 e0
LayerCount: 2
Fore
SplineSet
62 695 m 1,0,-1
 878 695 l 1,1,-1
 878 325 l 1,2,-1
 229 325 l 1,3,-1
 229 45 l 1,4,-1
 833 45 l 1,5,-1
 833 185 l 1,6,-1
 878 185 l 1,7,-1
 878 0 l 1,8,-1
 62 0 l 1,9,-1
 62 370 l 1,10,-1
 711 370 l 1,11,-1
 711 650 l 1,12,-1
 107 650 l 1,13,-1
 107 510 l 1,14,-1
 62 510 l 1,15,-1
 62 695 l 1,0,-1
184 325 m 1,16,-1
 107 325 l 1,17,-1
 107 45 l 1,18,-1
 184 45 l 1,19,-1
 184 325 l 1,16,-1
757 650 m 1,20,-1
 757 370 l 1,21,-1
 833 370 l 1,22,-1
 833 650 l 1,23,-1
 757 650 l 1,20,-1
EndSplineSet
EndChar

StartChar: three
Encoding: 51 51 78
Width: 939
Flags: HMW
HStem: 0 45<102 706 751 828> 325 45<219 706 219 706> 650 45<102 706 102 102 751 828 751 751>
VStem: 57 45<45 185 45 185 45 185 510 650> 706 45<45 325 325 325 370 650 45 650> 828 45<45 650 650 650>
CounterMasks: 1 e0
LayerCount: 2
Fore
SplineSet
102 510 m 1,0,-1
 57 510 l 1,1,-1
 57 695 l 1,2,-1
 873 695 l 1,3,-1
 873 0 l 1,4,-1
 57 0 l 1,5,-1
 57 185 l 1,6,-1
 102 185 l 1,7,-1
 102 45 l 1,8,-1
 706 45 l 1,9,-1
 706 325 l 1,10,-1
 219 325 l 1,11,-1
 219 370 l 1,12,-1
 706 370 l 1,13,-1
 706 650 l 1,14,-1
 102 650 l 1,15,-1
 102 510 l 1,0,-1
751 650 m 1,16,-1
 751 45 l 1,17,-1
 828 45 l 1,18,-1
 828 650 l 1,19,-1
 751 650 l 1,16,-1
EndSplineSet
EndChar

StartChar: four
Encoding: 52 52 79
Width: 923
Flags: HMW
HStem: 0 45<736 812 736 857> 325 45<86 690 86 690> 650 45<736 812 736 736>
VStem: 41 45<370 695 370 695 370 695> 690 46<45 325 325 325 370 650 45 695 45 695> 812 45<45 650 650 650>
CounterMasks: 1 e0
LayerCount: 2
Fore
SplineSet
857 695 m 1,0,-1
 857 0 l 1,1,-1
 690 0 l 1,2,-1
 690 325 l 1,3,-1
 41 325 l 1,4,-1
 41 695 l 1,5,-1
 86 695 l 1,6,-1
 86 370 l 1,7,-1
 690 370 l 1,8,-1
 690 695 l 1,9,-1
 857 695 l 1,0,-1
812 45 m 1,10,-1
 812 650 l 1,11,-1
 736 650 l 1,12,-1
 736 45 l 1,13,-1
 812 45 l 1,10,-1
EndSplineSet
EndChar

StartChar: five
Encoding: 53 53 80
Width: 940
Flags: HMW
HStem: 0 45<107 711 756 833> 325 45<107 183 229 711 756 756 756 833> 650 45<107 183 107 107 229 833 229 229>
VStem: 62 45<45 185 45 185 45 185 370 650> 183 46<370 650 370 650> 711 45<45 325 45 325> 833 45<45 325 325 325 510 650 650 650>
CounterMasks: 1 e0
LayerCount: 2
Fore
SplineSet
62 695 m 1,0,-1
 878 695 l 1,1,-1
 878 510 l 1,2,-1
 833 510 l 1,3,-1
 833 650 l 1,4,-1
 229 650 l 1,5,-1
 229 370 l 1,6,-1
 878 370 l 1,7,-1
 878 0 l 1,8,-1
 62 0 l 1,9,-1
 62 185 l 1,10,-1
 107 185 l 1,11,-1
 107 45 l 1,12,-1
 711 45 l 1,13,-1
 711 325 l 1,14,-1
 62 325 l 1,15,-1
 62 695 l 1,0,-1
833 325 m 1,16,-1
 756 325 l 1,17,-1
 756 45 l 1,18,-1
 833 45 l 1,19,-1
 833 325 l 1,16,-1
183 370 m 1,20,-1
 183 650 l 1,21,-1
 107 650 l 1,22,-1
 107 370 l 1,23,-1
 183 370 l 1,20,-1
EndSplineSet
EndChar

StartChar: six
Encoding: 54 54 81
Width: 944
Flags: HMW
HStem: 0 45<111 187 233 837> 325 45<233 837 233 882> 650 45<111 187 111 111 233 837 233 233>
VStem: 66 45<45 650 45 695> 187 46<45 325 370 650> 837 45<45 325 325 325 510 650 650 650>
CounterMasks: 1 e0
LayerCount: 2
Fore
SplineSet
882 510 m 1,0,-1
 837 510 l 1,1,-1
 837 650 l 1,2,-1
 233 650 l 1,3,-1
 233 370 l 1,4,-1
 882 370 l 1,5,-1
 882 0 l 1,6,-1
 66 0 l 1,7,-1
 66 695 l 1,8,-1
 882 695 l 1,9,-1
 882 510 l 1,0,-1
837 325 m 1,10,-1
 233 325 l 1,11,-1
 233 45 l 1,12,-1
 837 45 l 1,13,-1
 837 325 l 1,10,-1
187 45 m 1,14,-1
 187 650 l 1,15,-1
 111 650 l 1,16,-1
 111 45 l 1,17,-1
 187 45 l 1,14,-1
EndSplineSet
EndChar

StartChar: seven
Encoding: 55 55 82
Width: 843
Flags: HMW
HStem: 0 45<655 731 655 777> 650 45<65 610 65 65 655 655 655 731>
VStem: 20 45<510 650 510 695> 610 45<45 650 45 650 45 650> 731 46<45 650 650 650>
LayerCount: 2
Fore
SplineSet
777 695 m 1,0,-1
 777 0 l 1,1,-1
 610 0 l 1,2,-1
 610 650 l 1,3,-1
 65 650 l 1,4,-1
 65 510 l 1,5,-1
 20 510 l 1,6,-1
 20 695 l 1,7,-1
 777 695 l 1,0,-1
731 45 m 1,8,-1
 731 650 l 1,9,-1
 655 650 l 1,10,-1
 655 45 l 1,11,-1
 731 45 l 1,8,-1
EndSplineSet
EndChar

StartChar: eight
Encoding: 56 56 83
Width: 948
Flags: HMW
HStem: 0 45<111 188 233 836> 325 46<233 836 233 836> 650 45<111 188 111 111 233 233 233 836>
VStem: 66 45<45 650 45 695> 188 45<45 325 371 650> 836 46<45 325 325 325 371 650 650 650>
LayerCount: 2
Fore
SplineSet
882 695 m 1,0,-1
 882 0 l 1,1,-1
 66 0 l 1,2,-1
 66 695 l 1,3,-1
 882 695 l 1,0,-1
836 45 m 1,4,-1
 836 325 l 1,5,-1
 233 325 l 1,6,-1
 233 45 l 1,7,-1
 836 45 l 1,4,-1
233 650 m 1,8,-1
 233 371 l 1,9,-1
 836 371 l 1,10,-1
 836 650 l 1,11,-1
 233 650 l 1,8,-1
188 45 m 1,12,-1
 188 650 l 1,13,-1
 111 650 l 1,14,-1
 111 45 l 1,15,-1
 188 45 l 1,12,-1
EndSplineSet
EndChar

StartChar: nine
Encoding: 57 57 84
Width: 944
Flags: HMW
HStem: 0 45<107 711 757 833> 325 45<107 711 107 711> 650 45<107 711 107 107 757 833 757 757>
VStem: 62 45<45 185 45 185 45 185 370 650> 711 46<45 325 325 325 370 650 45 650> 833 45<45 650 650 650>
CounterMasks: 1 e0
LayerCount: 2
Fore
SplineSet
62 185 m 1,0,-1
 107 185 l 1,1,-1
 107 45 l 1,2,-1
 711 45 l 1,3,-1
 711 325 l 1,4,-1
 62 325 l 1,5,-1
 62 695 l 1,6,-1
 878 695 l 1,7,-1
 878 0 l 1,8,-1
 62 0 l 1,9,-1
 62 185 l 1,0,-1
107 370 m 1,10,-1
 711 370 l 1,11,-1
 711 650 l 1,12,-1
 107 650 l 1,13,-1
 107 370 l 1,10,-1
757 650 m 1,14,-1
 757 45 l 1,15,-1
 833 45 l 1,16,-1
 833 650 l 1,17,-1
 757 650 l 1,14,-1
EndSplineSet
EndChar

StartChar: onesuperior
Encoding: 185 185 85
Width: 437
Flags: HMW
HStem: 320 45<62 174 219 260 305 394 62 174> 650 45<62 174 62 305 219 219 219 260>
VStem: 62 243<320 365 365 365 650 695> 174 45<365 650> 260 45<365 650 650 650>
LayerCount: 2
Fore
SplineSet
305 365 m 1,0,-1
 394 365 l 1,1,-1
 394 320 l 1,2,-1
 62 320 l 1,3,-1
 62 365 l 1,4,-1
 174 365 l 1,5,-1
 174 650 l 1,6,-1
 62 650 l 1,7,-1
 62 695 l 1,8,-1
 305 695 l 1,9,-1
 305 365 l 1,0,-1
219 365 m 1,10,-1
 260 365 l 1,11,-1
 260 650 l 1,12,-1
 219 650 l 1,13,-1
 219 365 l 1,10,-1
EndSplineSet
EndChar

StartChar: twosuperior
Encoding: 178 178 86
Width: 561
Flags: HMW
HStem: 320 45<110 150 195 450> 485 45<110 150 110 110 195 364 409 450 195 195> 650 45<110 364 110 110 409 450 409 409>
VStem: 65 45<365 485 365 530 590 650> 150 45<365 485 365 485> 364 45<530 650 530 650> 450 45<365 425 320 425 530 650 650 650>
CounterMasks: 1 e0
LayerCount: 2
Fore
SplineSet
495 485 m 1,0,-1
 195 485 l 1,1,-1
 195 365 l 1,2,-1
 450 365 l 1,3,-1
 450 425 l 1,4,-1
 495 425 l 1,5,-1
 495 320 l 1,6,-1
 65 320 l 1,7,-1
 65 530 l 1,8,-1
 364 530 l 1,9,-1
 364 650 l 1,10,-1
 110 650 l 1,11,-1
 110 590 l 1,12,-1
 65 590 l 1,13,-1
 65 695 l 1,14,-1
 495 695 l 1,15,-1
 495 485 l 1,0,-1
409 650 m 1,16,-1
 409 530 l 1,17,-1
 450 530 l 1,18,-1
 450 650 l 1,19,-1
 409 650 l 1,16,-1
150 365 m 1,20,-1
 150 485 l 1,21,-1
 110 485 l 1,22,-1
 110 365 l 1,23,-1
 150 365 l 1,20,-1
EndSplineSet
EndChar

StartChar: threesuperior
Encoding: 179 179 87
Width: 561
Flags: HMW
HStem: 320 45<110 364 409 450> 485 45<179 364 179 364> 650 45<110 364 110 110 409 409 409 450>
VStem: 65 45<365 425 365 425 365 425 590 650> 364 45<365 485 485 485 530 650 365 650> 450 45<365 650 650 650>
CounterMasks: 1 e0
LayerCount: 2
Fore
SplineSet
65 695 m 1,0,-1
 495 695 l 1,1,-1
 495 320 l 1,2,-1
 65 320 l 1,3,-1
 65 425 l 1,4,-1
 110 425 l 1,5,-1
 110 365 l 1,6,-1
 364 365 l 1,7,-1
 364 485 l 1,8,-1
 179 485 l 1,9,-1
 179 530 l 1,10,-1
 364 530 l 1,11,-1
 364 650 l 1,12,-1
 110 650 l 1,13,-1
 110 590 l 1,14,-1
 65 590 l 1,15,-1
 65 695 l 1,0,-1
450 365 m 1,16,-1
 450 650 l 1,17,-1
 409 650 l 1,18,-1
 409 365 l 1,19,-1
 450 365 l 1,16,-1
EndSplineSet
EndChar

StartChar: ellipsis
Encoding: 8230 8230 88
Width: 1192
Flags: HMW
HStem: 0 45<110 212 110 257 545 647 980 1082> 108 45<110 212 110 110 545 545 545 647 980 980 980 1082>
VStem: 65 45<45 108 45 153> 212 45<45 108 108 108> 500 45<45 108 45 153> 647 45<45 108 108 108> 935 45<45 108 45 153> 1082 45<45 108 108 108>
LayerCount: 2
Fore
SplineSet
257 153 m 1,0,-1
 257 0 l 1,1,-1
 65 0 l 1,2,-1
 65 153 l 1,3,-1
 257 153 l 1,0,-1
212 45 m 1,4,-1
 212 108 l 1,5,-1
 110 108 l 1,6,-1
 110 45 l 1,7,-1
 212 45 l 1,4,-1
692 153 m 1,8,-1
 692 0 l 1,9,-1
 500 0 l 1,10,-1
 500 153 l 1,11,-1
 692 153 l 1,8,-1
647 45 m 1,12,-1
 647 108 l 1,13,-1
 545 108 l 1,14,-1
 545 45 l 1,15,-1
 647 45 l 1,12,-1
1127 153 m 1,16,-1
 1127 0 l 1,17,-1
 935 0 l 1,18,-1
 935 153 l 1,19,-1
 1127 153 l 1,16,-1
1082 45 m 1,20,-1
 1082 108 l 1,21,-1
 980 108 l 1,22,-1
 980 45 l 1,23,-1
 1082 45 l 1,20,-1
EndSplineSet
EndChar

StartChar: colon
Encoding: 58 58 89
Width: 322
Flags: HMW
HStem: 0 45<110 212 110 257> 108 45<110 212 110 110> 401 45<110 212 110 257> 509 45<110 212 110 110>
VStem: 65 45<45 108 45 153 446 509> 212 45<45 108 108 108 446 509 509 509>
LayerCount: 2
Fore
SplineSet
257 153 m 1,0,-1
 257 0 l 1,1,-1
 65 0 l 1,2,-1
 65 153 l 1,3,-1
 257 153 l 1,0,-1
212 45 m 1,4,-1
 212 108 l 1,5,-1
 110 108 l 1,6,-1
 110 45 l 1,7,-1
 212 45 l 1,4,-1
257 554 m 1,8,-1
 257 401 l 1,9,-1
 65 401 l 1,10,-1
 65 554 l 1,11,-1
 257 554 l 1,8,-1
212 446 m 1,12,-1
 212 509 l 1,13,-1
 110 509 l 1,14,-1
 110 446 l 1,15,-1
 212 446 l 1,12,-1
EndSplineSet
EndChar

StartChar: semicolon
Encoding: 59 59 90
Width: 384
Flags: HMW
HStem: -147 45<42 128 42 156> 108 45<151 237 151 151> 401 45<156 258 156 303> 509 45<156 258 156 156>
VStem: 111 45<446 509> 258 45<446 509 509 509>
LayerCount: 2
Fore
SplineSet
303 554 m 1,0,-1
 303 401 l 1,1,-1
 111 401 l 1,2,-1
 111 554 l 1,3,-1
 303 554 l 1,0,-1
258 446 m 1,4,-1
 258 509 l 1,5,-1
 156 509 l 1,6,-1
 156 446 l 1,7,-1
 258 446 l 1,4,-1
124 153 m 1,8,-1
 312 153 l 1,9,-1
 156 -147 l 1,10,-1
 -32 -147 l 1,11,-1
 124 153 l 1,8,-1
42 -102 m 1,12,-1
 128 -102 l 1,13,-1
 237 108 l 1,14,-1
 151 108 l 1,15,-1
 42 -102 l 1,12,-1
EndSplineSet
EndChar

StartChar: onequarter
Encoding: 188 188 91
Width: 1265
Flags: HMW
HStem: -44 21G<193 363 193 193> -20 20G<1083 1214 1083 1083> 165 45<829 1083 829 1083> 320 55 650 45<47 159 47 290 204 204 204 245> 718 20G<793 963 963 963>
VStem: 47 243<320 365 365 365 650 695> 159 45<365 650> 245 45<365 650 650 650> 784 45<210 375 210 375 210 375> 1083 45<45 165 165 165 210 330 45 375> 1169 45<45 330 330 330>
LayerCount: 2
Fore
SplineSet
1083 375 m 1,0,-1
 1214 375 l 1,1,-1
 1214 0 l 1,2,-1
 1083 0 l 1,3,-1
 1083 165 l 1,4,-1
 784 165 l 1,5,-1
 784 375 l 1,6,-1
 829 375 l 1,7,-1
 829 210 l 1,8,-1
 1083 210 l 1,9,-1
 1083 375 l 1,0,-1
1169 45 m 1,10,-1
 1169 330 l 1,11,-1
 1128 330 l 1,12,-1
 1128 45 l 1,13,-1
 1169 45 l 1,10,-1
290 365 m 1,14,-1
 379 365 l 1,15,-1
 379 320 l 1,16,-1
 47 320 l 1,17,-1
 47 365 l 1,18,-1
 159 365 l 1,19,-1
 159 650 l 1,20,-1
 47 650 l 1,21,-1
 47 695 l 1,22,-1
 290 695 l 1,23,-1
 290 365 l 1,14,-1
204 365 m 1,24,-1
 245 365 l 1,25,-1
 245 650 l 1,26,-1
 204 650 l 1,27,-1
 204 365 l 1,24,-1
793 738 m 1,28,-1
 963 738 l 1,29,-1
 363 -44 l 1,30,-1
 193 -44 l 1,31,-1
 793 738 l 1,28,-1
340 1 m 1,32,-1
 871 693 l 1,33,-1
 815 693 l 1,34,-1
 284 1 l 1,35,-1
 340 1 l 1,32,-1
EndSplineSet
EndChar

StartChar: onehalf
Encoding: 189 189 92
Width: 1264
Flags: HMW
HStem: -44 21G<194 364 194 194> 0 45<829 869 914 1169> 165 45<829 869 829 829 914 1083 1128 1169 914 914> 320 55 650 45<47 159 47 290 204 204 204 245> 718 20G<794 964 964 964>
VStem: 47 243<320 365 365 365 650 695> 159 45<365 650> 245 45<365 650 650 650> 784 45<45 165 45 210 270 330> 869 45<45 165 45 165> 1083 45<210 330 210 330> 1169 45<45 105 0 105 210 330 330 330>
LayerCount: 2
Fore
SplineSet
290 365 m 1,0,-1
 379 365 l 1,1,-1
 379 320 l 1,2,-1
 47 320 l 1,3,-1
 47 365 l 1,4,-1
 159 365 l 1,5,-1
 159 650 l 1,6,-1
 47 650 l 1,7,-1
 47 695 l 1,8,-1
 290 695 l 1,9,-1
 290 365 l 1,0,-1
204 365 m 1,10,-1
 245 365 l 1,11,-1
 245 650 l 1,12,-1
 204 650 l 1,13,-1
 204 365 l 1,10,-1
794 738 m 1,14,-1
 964 738 l 1,15,-1
 364 -44 l 1,16,-1
 194 -44 l 1,17,-1
 794 738 l 1,14,-1
341 1 m 1,18,-1
 872 693 l 1,19,-1
 816 693 l 1,20,-1
 285 1 l 1,21,-1
 341 1 l 1,18,-1
1214 165 m 1,22,-1
 914 165 l 1,23,-1
 914 45 l 1,24,-1
 1169 45 l 1,25,-1
 1169 105 l 1,26,-1
 1214 105 l 1,27,-1
 1214 0 l 1,28,-1
 784 0 l 1,29,-1
 784 210 l 1,30,-1
 1083 210 l 1,31,-1
 1083 330 l 1,32,-1
 829 330 l 1,33,-1
 829 270 l 1,34,-1
 784 270 l 1,35,-1
 784 375 l 1,36,-1
 1214 375 l 1,37,-1
 1214 165 l 1,22,-1
1128 330 m 1,38,-1
 1128 210 l 1,39,-1
 1169 210 l 1,40,-1
 1169 330 l 1,41,-1
 1128 330 l 1,38,-1
869 45 m 1,42,-1
 869 165 l 1,43,-1
 829 165 l 1,44,-1
 829 45 l 1,45,-1
 869 45 l 1,42,-1
EndSplineSet
EndChar

StartChar: threequarters
Encoding: 190 190 93
Width: 1382
Flags: HMW
HStem: -44 21G<318 488 318 318> -20 20G<1202 1333 1202 1202> 165 45<948 1202 948 1202> 320 45<94 348 393 434> 485 45<163 348 163 348> 650 45<94 348 94 94 393 393 393 434> 718 20G<918 1088 1088 1088>
VStem: 49 45<365 425 365 425 365 425 590 650> 348 45<365 485 485 485 530 650 365 650> 434 45<365 650 650 650> 903 45<210 375 210 375 210 375> 1202 45<45 165 165 165 210 330 45 375> 1288 45<45 330 330 330>
LayerCount: 2
Fore
SplineSet
1202 375 m 1,0,-1
 1333 375 l 1,1,-1
 1333 0 l 1,2,-1
 1202 0 l 1,3,-1
 1202 165 l 1,4,-1
 903 165 l 1,5,-1
 903 375 l 1,6,-1
 948 375 l 1,7,-1
 948 210 l 1,8,-1
 1202 210 l 1,9,-1
 1202 375 l 1,0,-1
1288 45 m 1,10,-1
 1288 330 l 1,11,-1
 1247 330 l 1,12,-1
 1247 45 l 1,13,-1
 1288 45 l 1,10,-1
918 738 m 1,14,-1
 1088 738 l 1,15,-1
 488 -44 l 1,16,-1
 318 -44 l 1,17,-1
 918 738 l 1,14,-1
465 1 m 1,18,-1
 996 693 l 1,19,-1
 940 693 l 1,20,-1
 409 1 l 1,21,-1
 465 1 l 1,18,-1
49 695 m 1,22,-1
 479 695 l 1,23,-1
 479 320 l 1,24,-1
 49 320 l 1,25,-1
 49 425 l 1,26,-1
 94 425 l 1,27,-1
 94 365 l 1,28,-1
 348 365 l 1,29,-1
 348 485 l 1,30,-1
 163 485 l 1,31,-1
 163 530 l 1,32,-1
 348 530 l 1,33,-1
 348 650 l 1,34,-1
 94 650 l 1,35,-1
 94 590 l 1,36,-1
 49 590 l 1,37,-1
 49 695 l 1,22,-1
434 365 m 1,38,-1
 434 650 l 1,39,-1
 393 650 l 1,40,-1
 393 365 l 1,41,-1
 434 365 l 1,38,-1
EndSplineSet
EndChar

StartChar: quotesinglbase
Encoding: 8218 8218 94
Width: 356
Flags: HMW
HStem: -147 45<31 117 31 145> 108 45<140 226 140 140>
LayerCount: 2
Fore
SplineSet
113 153 m 1,0,-1
 301 153 l 1,1,-1
 145 -147 l 1,2,-1
 -43 -147 l 1,3,-1
 113 153 l 1,0,-1
31 -102 m 1,4,-1
 117 -102 l 1,5,-1
 226 108 l 1,6,-1
 140 108 l 1,7,-1
 31 -102 l 1,4,-1
EndSplineSet
EndChar

StartChar: quotedblbase
Encoding: 8222 8222 95
Width: 633
Flags: HMW
HStem: -147 45<31 117 31 145 308 394> 108 45<140 226 140 140 417 417 417 503>
LayerCount: 2
Fore
SplineSet
113 153 m 1,0,-1
 301 153 l 1,1,-1
 145 -147 l 1,2,-1
 -43 -147 l 1,3,-1
 113 153 l 1,0,-1
31 -102 m 1,4,-1
 117 -102 l 1,5,-1
 226 108 l 1,6,-1
 140 108 l 1,7,-1
 31 -102 l 1,4,-1
390 153 m 1,8,-1
 578 153 l 1,9,-1
 422 -147 l 1,10,-1
 234 -147 l 1,11,-1
 390 153 l 1,8,-1
308 -102 m 1,12,-1
 394 -102 l 1,13,-1
 503 108 l 1,14,-1
 417 108 l 1,15,-1
 308 -102 l 1,12,-1
EndSplineSet
EndChar

StartChar: quotesingle
Encoding: 39 39 96
Width: 375
Flags: HMW
HStem: 454 45<118 204 118 232> 709 45<227 313 227 227>
LayerCount: 2
Fore
SplineSet
200 754 m 1,0,-1
 388 754 l 1,1,-1
 232 454 l 1,2,-1
 44 454 l 1,3,-1
 200 754 l 1,0,-1
118 499 m 1,4,-1
 204 499 l 1,5,-1
 313 709 l 1,6,-1
 227 709 l 1,7,-1
 118 499 l 1,4,-1
EndSplineSet
EndChar

StartChar: quoteright
Encoding: 8217 8217 97
Width: 375
Flags: HMW
HStem: 454 45<118 204 118 232> 709 45<227 313 227 227>
LayerCount: 2
Fore
SplineSet
200 754 m 1,0,-1
 388 754 l 1,1,-1
 232 454 l 1,2,-1
 44 454 l 1,3,-1
 200 754 l 1,0,-1
118 499 m 1,4,-1
 204 499 l 1,5,-1
 313 709 l 1,6,-1
 227 709 l 1,7,-1
 118 499 l 1,4,-1
EndSplineSet
EndChar

StartChar: quoteleft
Encoding: 8216 8216 98
Width: 375
Flags: HMW
HStem: 454 45<171 257 171 331 143 257> 709 45<62 148 62 62>
LayerCount: 2
Fore
SplineSet
-13 754 m 1,0,-1
 175 754 l 1,1,-1
 331 454 l 1,2,-1
 143 454 l 1,3,-1
 -13 754 l 1,0,-1
171 499 m 1,4,-1
 257 499 l 1,5,-1
 148 709 l 1,6,-1
 62 709 l 1,7,-1
 171 499 l 1,4,-1
EndSplineSet
EndChar

StartChar: quotedblleft
Encoding: 8220 8220 99
Width: 652
Flags: HMW
HStem: 454 45<171 257 171 331 143 257 448 534> 709 45<62 148 62 62 339 425 339 339>
LayerCount: 2
Fore
SplineSet
264 754 m 1,0,-1
 452 754 l 1,1,-1
 608 454 l 1,2,-1
 420 454 l 1,3,-1
 264 754 l 1,0,-1
448 499 m 1,4,-1
 534 499 l 1,5,-1
 425 709 l 1,6,-1
 339 709 l 1,7,-1
 448 499 l 1,4,-1
-13 754 m 1,8,-1
 175 754 l 1,9,-1
 331 454 l 1,10,-1
 143 454 l 1,11,-1
 -13 754 l 1,8,-1
171 499 m 1,12,-1
 257 499 l 1,13,-1
 148 709 l 1,14,-1
 62 709 l 1,15,-1
 171 499 l 1,12,-1
EndSplineSet
EndChar

StartChar: quotedblright
Encoding: 8221 8221 100
Width: 652
Flags: HMW
HStem: 454 45<118 204 118 232 395 481> 709 45<227 313 227 227 504 504 504 590>
LayerCount: 2
Fore
SplineSet
200 754 m 1,0,-1
 388 754 l 1,1,-1
 232 454 l 1,2,-1
 44 454 l 1,3,-1
 200 754 l 1,0,-1
118 499 m 1,4,-1
 204 499 l 1,5,-1
 313 709 l 1,6,-1
 227 709 l 1,7,-1
 118 499 l 1,4,-1
477 754 m 1,8,-1
 665 754 l 1,9,-1
 509 454 l 1,10,-1
 321 454 l 1,11,-1
 477 754 l 1,8,-1
395 499 m 1,12,-1
 481 499 l 1,13,-1
 590 709 l 1,14,-1
 504 709 l 1,15,-1
 395 499 l 1,12,-1
EndSplineSet
EndChar

StartChar: quotedbl
Encoding: 34 34 101
Width: 571
Flags: HMW
HStem: 440 45<123 178 123 222 79 178 393 448> 709 45<103 198 103 103 373 373 373 468>
LayerCount: 2
Fore
SplineSet
49 754 m 1,0,-1
 252 754 l 1,1,-1
 222 440 l 1,2,-1
 79 440 l 1,3,-1
 49 754 l 1,0,-1
198 709 m 1,4,-1
 103 709 l 1,5,-1
 123 485 l 1,6,-1
 178 485 l 1,7,-1
 198 709 l 1,4,-1
319 754 m 1,8,-1
 522 754 l 1,9,-1
 492 440 l 1,10,-1
 349 440 l 1,11,-1
 319 754 l 1,8,-1
468 709 m 1,12,-1
 373 709 l 1,13,-1
 393 485 l 1,14,-1
 448 485 l 1,15,-1
 468 709 l 1,12,-1
EndSplineSet
EndChar

StartChar: minus
Encoding: 8722 8722 102
Width: 597
Flags: HMW
HStem: 256 45<110 487 110 532> 364 45<110 487 110 110>
VStem: 65 45<301 364 301 409> 487 45<301 364 364 364>
LayerCount: 2
Fore
SplineSet
532 409 m 1,0,-1
 532 256 l 1,1,-1
 65 256 l 1,2,-1
 65 409 l 1,3,-1
 532 409 l 1,0,-1
487 301 m 1,4,-1
 487 364 l 1,5,-1
 110 364 l 1,6,-1
 110 301 l 1,7,-1
 487 301 l 1,4,-1
EndSplineSet
EndChar

StartChar: endash
Encoding: 8211 8211 103
Width: 652
Flags: HMW
HStem: 256 45<110 542 110 587> 364 45<110 542 110 110>
VStem: 65 45<301 364 301 409> 542 45<301 364 364 364>
LayerCount: 2
Fore
SplineSet
587 409 m 1,0,-1
 587 256 l 1,1,-1
 65 256 l 1,2,-1
 65 409 l 1,3,-1
 587 409 l 1,0,-1
542 301 m 1,4,-1
 542 364 l 1,5,-1
 110 364 l 1,6,-1
 110 301 l 1,7,-1
 542 301 l 1,4,-1
EndSplineSet
EndChar

StartChar: emdash
Encoding: 8212 8212 104
Width: 797
Flags: HMW
HStem: 256 45<110 691 110 736> 364 45<110 691 110 110>
VStem: 65 45<301 364 301 409> 691 45<301 364 364 364>
LayerCount: 2
Fore
SplineSet
736 409 m 1,0,-1
 736 256 l 1,1,-1
 65 256 l 1,2,-1
 65 409 l 1,3,-1
 736 409 l 1,0,-1
691 301 m 1,4,-1
 691 364 l 1,5,-1
 110 364 l 1,6,-1
 110 301 l 1,7,-1
 691 301 l 1,4,-1
EndSplineSet
EndChar

StartChar: periodcentered
Encoding: 183 183 105
Width: 322
Flags: HMW
HStem: 273 45<110 212 110 257> 381 45<110 212 110 110>
VStem: 65 45<318 381 318 426> 212 45<318 381 381 381>
LayerCount: 2
Fore
SplineSet
257 426 m 1,0,-1
 257 273 l 1,1,-1
 65 273 l 1,2,-1
 65 426 l 1,3,-1
 257 426 l 1,0,-1
212 318 m 1,4,-1
 212 381 l 1,5,-1
 110 381 l 1,6,-1
 110 318 l 1,7,-1
 212 318 l 1,4,-1
EndSplineSet
EndChar

StartChar: bullet
Encoding: 8226 8226 106
Width: 408
Flags: HMW
HStem: 237 191<85 323 85 323>
VStem: 85 238<237 428 237 428>
LayerCount: 2
Fore
SplineSet
323 428 m 1,0,-1
 323 237 l 1,1,-1
 85 237 l 1,2,-1
 85 428 l 1,3,-1
 323 428 l 1,0,-1
EndSplineSet
EndChar

StartChar: degree
Encoding: 176 176 107
Width: 343
Flags: HMW
HStem: 459 45<110 233 110 278> 619 45<110 233 110 110>
VStem: 65 45<504 619 504 664> 233 45<504 619 619 619>
LayerCount: 2
Fore
SplineSet
278 664 m 1,0,-1
 278 459 l 1,1,-1
 65 459 l 1,2,-1
 65 664 l 1,3,-1
 278 664 l 1,0,-1
233 504 m 1,4,-1
 233 619 l 1,5,-1
 110 619 l 1,6,-1
 110 504 l 1,7,-1
 233 504 l 1,4,-1
EndSplineSet
EndChar

StartChar: asciitilde
Encoding: 126 126 108
Width: 805
Flags: HMW
HStem: 289 45<140 194 140 217 523 577> 408 45<196 267 196 196 579 650 579 579>
LayerCount: 2
Fore
SplineSet
756 453 m 1,0,-1
 600 289 l 1,1,-1
 466 289 l 1,2,-1
 315 392 l 1,3,-1
 217 289 l 1,4,-1
 50 289 l 1,5,-1
 174 453 l 1,6,-1
 314 453 l 1,7,-1
 473 343 l 1,8,-1
 557 453 l 1,9,-1
 756 453 l 1,0,-1
577 334 m 1,10,-1
 650 408 l 1,11,-1
 579 408 l 1,12,-1
 523 334 l 1,13,-1
 577 334 l 1,10,-1
194 334 m 1,14,-1
 267 408 l 1,15,-1
 196 408 l 1,16,-1
 140 334 l 1,17,-1
 194 334 l 1,14,-1
EndSplineSet
EndChar

StartChar: asciicircum
Encoding: 94 94 109
Width: 505
Flags: HMW
HStem: 318 45<123 208 123 235> 709 20G<256 256>
LayerCount: 2
Fore
SplineSet
256 729 m 1,0,-1
 464 318 l 1,1,-1
 414 318 l 1,2,-1
 324 494 l 1,3,-1
 235 318 l 1,4,-1
 49 318 l 1,5,-1
 256 729 l 1,0,-1
208 363 m 1,6,-1
 299 544 l 1,7,-1
 257 628 l 1,8,-1
 123 363 l 1,9,-1
 208 363 l 1,6,-1
EndSplineSet
EndChar

StartChar: ordfeminine
Encoding: 170 170 110
Width: 486
Flags: HMW
HStem: 416 45<66 95 140 167 212 239 66 95 316 350 396 429> 515 46<212 350 212 350> 616 45<66 95 66 396 140 140 140 167 212 212 212 350>
VStem: 95 45<461 616> 167 45<461 515 561 616> 350 46<461 515 515 515 561 616 616 616>
LayerCount: 2
Fore
SplineSet
396 461 m 1,0,-1
 429 461 l 1,1,-1
 429 416 l 1,2,-1
 316 416 l 1,3,-1
 316 461 l 1,4,-1
 350 461 l 1,5,-1
 350 515 l 1,6,-1
 212 515 l 1,7,-1
 212 461 l 1,8,-1
 239 461 l 1,9,-1
 239 416 l 1,10,-1
 66 416 l 1,11,-1
 66 461 l 1,12,-1
 95 461 l 1,13,-1
 95 616 l 1,14,-1
 66 616 l 1,15,-1
 66 661 l 1,16,-1
 396 661 l 1,17,-1
 396 461 l 1,0,-1
140 461 m 1,18,-1
 167 461 l 1,19,-1
 167 616 l 1,20,-1
 140 616 l 1,21,-1
 140 461 l 1,18,-1
212 561 m 1,22,-1
 350 561 l 1,23,-1
 350 616 l 1,24,-1
 212 616 l 1,25,-1
 212 561 l 1,22,-1
EndSplineSet
EndChar

StartChar: ordmasculine
Encoding: 186 186 111
Width: 431
Flags: HMW
HStem: 416 45<110 137 182 320> 616 45<110 137 110 110 182 182 182 320>
VStem: 65 45<461 616 461 661> 137 45<461 616 461 616> 320 46<461 616 616 616>
LayerCount: 2
Fore
SplineSet
65 661 m 1,0,-1
 366 661 l 1,1,-1
 366 416 l 1,2,-1
 65 416 l 1,3,-1
 65 661 l 1,0,-1
137 461 m 1,4,-1
 137 616 l 1,5,-1
 110 616 l 1,6,-1
 110 461 l 1,7,-1
 137 461 l 1,4,-1
320 461 m 1,8,-1
 320 616 l 1,9,-1
 182 616 l 1,10,-1
 182 461 l 1,11,-1
 320 461 l 1,8,-1
EndSplineSet
EndChar

StartChar: asterisk
Encoding: 42 42 112
Width: 589
Flags: HMW
HStem: 308 21G<238 238 350 350> 482 45<95 162 427 494 427 427> 590 45<95 162 50 240 95 95 427 494> 788 20G<238 238 350 350>
VStem: 50 45<527 590 527 635> 494 45<527 590 590 590>
LayerCount: 2
Fore
SplineSet
427 635 m 1,0,-1
 539 635 l 1,1,-1
 539 482 l 1,2,-1
 427 482 l 1,3,-1
 483 385 l 1,4,-1
 350 308 l 1,5,-1
 294 405 l 1,6,-1
 238 308 l 1,7,-1
 106 385 l 1,8,-1
 162 482 l 1,9,-1
 50 482 l 1,10,-1
 50 635 l 1,11,-1
 162 635 l 1,12,-1
 106 732 l 1,13,-1
 238 808 l 1,14,-1
 294 711 l 1,15,-1
 350 808 l 1,16,-1
 483 732 l 1,17,-1
 427 635 l 1,0,-1
494 527 m 1,18,-1
 494 590 l 1,19,-1
 349 590 l 1,20,-1
 421 715 l 1,21,-1
 367 747 l 1,22,-1
 294 621 l 1,23,-1
 222 747 l 1,24,-1
 167 715 l 1,25,-1
 240 590 l 1,26,-1
 95 590 l 1,27,-1
 95 527 l 1,28,-1
 240 527 l 1,29,-1
 167 401 l 1,30,-1
 222 370 l 1,31,-1
 294 495 l 1,32,-1
 367 370 l 1,33,-1
 421 401 l 1,34,-1
 349 527 l 1,35,-1
 494 527 l 1,18,-1
EndSplineSet
EndChar

StartChar: logicalnot
Encoding: 172 172 113
Width: 614
Flags: HMW
HStem: 252 21G<499 544 499 499> 344 45<110 499 110 499> 452 45<110 110 110 499>
VStem: 65 45<389 452 389 497> 499 45<252 344 344 344 389 452 452 452>
LayerCount: 2
Fore
SplineSet
65 497 m 1,0,-1
 544 497 l 1,1,-1
 544 252 l 1,2,-1
 499 252 l 1,3,-1
 499 344 l 1,4,-1
 65 344 l 1,5,-1
 65 497 l 1,0,-1
110 452 m 1,6,-1
 110 389 l 1,7,-1
 499 389 l 1,8,-1
 499 452 l 1,9,-1
 110 452 l 1,6,-1
EndSplineSet
EndChar

StartChar: percent
Encoding: 37 37 114
Width: 924
Flags: HMW
HStem: 0 45<146 230 146 251 629 812> 153 45<629 629 629 812> 497 45<116 299 116 344> 650 45<116 116 116 299 696 780 696 696>
VStem: 71 45<542 650 542 695> 299 45<542 650 650 650> 584 45<45 153 45 198> 812 45<45 153 153 153>
LayerCount: 2
Fore
SplineSet
676 695 m 1,0,-1
 883 695 l 1,1,-1
 251 0 l 1,2,-1
 44 0 l 1,3,-1
 676 695 l 1,0,-1
230 45 m 1,4,-1
 780 650 l 1,5,-1
 696 650 l 1,6,-1
 146 45 l 1,7,-1
 230 45 l 1,4,-1
71 497 m 1,8,-1
 71 695 l 1,9,-1
 344 695 l 1,10,-1
 344 497 l 1,11,-1
 71 497 l 1,8,-1
116 650 m 1,12,-1
 116 542 l 1,13,-1
 299 542 l 1,14,-1
 299 650 l 1,15,-1
 116 650 l 1,12,-1
584 0 m 1,16,-1
 584 198 l 1,17,-1
 857 198 l 1,18,-1
 857 0 l 1,19,-1
 584 0 l 1,16,-1
629 153 m 1,20,-1
 629 45 l 1,21,-1
 812 45 l 1,22,-1
 812 153 l 1,23,-1
 629 153 l 1,20,-1
EndSplineSet
EndChar

StartChar: perthousand
Encoding: 8240 8240 115
Width: 1236
Flags: HMW
HStem: 0 45<146 229 146 250 628 811 965 1148> 153 45<628 628 628 811 965 1148 965 965> 497 45<116 299 116 344> 650 45<116 116 116 299 696 779 696 696>
VStem: 71 45<542 650 542 695> 299 45<542 650 650 650> 583 45<45 153 45 198> 811 45<45 153 153 153> 920 45<45 153 45 198> 1148 45<45 153 153 153>
LayerCount: 2
Fore
SplineSet
676 695 m 1,0,-1
 882 695 l 1,1,-1
 250 0 l 1,2,-1
 44 0 l 1,3,-1
 676 695 l 1,0,-1
229 45 m 1,4,-1
 779 650 l 1,5,-1
 696 650 l 1,6,-1
 146 45 l 1,7,-1
 229 45 l 1,4,-1
71 497 m 1,8,-1
 71 695 l 1,9,-1
 344 695 l 1,10,-1
 344 497 l 1,11,-1
 71 497 l 1,8,-1
116 650 m 1,12,-1
 116 542 l 1,13,-1
 299 542 l 1,14,-1
 299 650 l 1,15,-1
 116 650 l 1,12,-1
583 0 m 1,16,-1
 583 198 l 1,17,-1
 856 198 l 1,18,-1
 856 0 l 1,19,-1
 583 0 l 1,16,-1
628 153 m 1,20,-1
 628 45 l 1,21,-1
 811 45 l 1,22,-1
 811 153 l 1,23,-1
 628 153 l 1,20,-1
920 0 m 1,24,-1
 920 198 l 1,25,-1
 1193 198 l 1,26,-1
 1193 0 l 1,27,-1
 920 0 l 1,24,-1
965 153 m 1,28,-1
 965 45 l 1,29,-1
 1148 45 l 1,30,-1
 1148 153 l 1,31,-1
 965 153 l 1,28,-1
EndSplineSet
EndChar

StartChar: fraction
Encoding: 8260 8260 116
Width: 718
Flags: HMW
HStem: -44 21G<-24 146 -24 -24> 718 20G<576 746 746 746>
LayerCount: 2
Fore
SplineSet
576 738 m 1,0,-1
 746 738 l 1,1,-1
 146 -44 l 1,2,-1
 -24 -44 l 1,3,-1
 576 738 l 1,0,-1
123 1 m 1,4,-1
 654 693 l 1,5,-1
 598 693 l 1,6,-1
 67 1 l 1,7,-1
 123 1 l 1,4,-1
EndSplineSet
EndChar

StartChar: equal
Encoding: 61 61 117
Width: 684
Flags: HMW
HStem: 133 45<110 574 110 619> 241 45<110 574 110 110> 396 45<110 574 110 619> 504 45<110 574 110 110>
VStem: 65 45<178 241 178 286 441 504> 574 45<178 241 241 241 441 504 504 504>
LayerCount: 2
Fore
SplineSet
619 549 m 1,0,-1
 619 396 l 1,1,-1
 65 396 l 1,2,-1
 65 549 l 1,3,-1
 619 549 l 1,0,-1
574 441 m 1,4,-1
 574 504 l 1,5,-1
 110 504 l 1,6,-1
 110 441 l 1,7,-1
 574 441 l 1,4,-1
619 286 m 1,8,-1
 619 133 l 1,9,-1
 65 133 l 1,10,-1
 65 286 l 1,11,-1
 619 286 l 1,8,-1
574 178 m 1,12,-1
 574 241 l 1,13,-1
 110 241 l 1,14,-1
 110 178 l 1,15,-1
 574 178 l 1,12,-1
EndSplineSet
EndChar

StartChar: divide
Encoding: 247 247 118
Width: 643
Flags: HMW
HStem: 65 45<270 372 270 417> 173 45<270 270 270 372> 256 45<96 547 96 592> 364 45<96 547 96 96> 448 45<270 372 270 417> 556 45<270 372 270 270>
VStem: 51 45<301 364 301 409> 225 45<110 173 110 218 493 556> 372 45<110 173 173 173 493 556 556 556> 547 45<301 364 364 364>
LayerCount: 2
Fore
SplineSet
51 409 m 1,0,-1
 592 409 l 1,1,-1
 592 256 l 1,2,-1
 51 256 l 1,3,-1
 51 409 l 1,0,-1
547 301 m 1,4,-1
 547 364 l 1,5,-1
 96 364 l 1,6,-1
 96 301 l 1,7,-1
 547 301 l 1,4,-1
225 65 m 1,8,-1
 225 218 l 1,9,-1
 417 218 l 1,10,-1
 417 65 l 1,11,-1
 225 65 l 1,8,-1
270 173 m 1,12,-1
 270 110 l 1,13,-1
 372 110 l 1,14,-1
 372 173 l 1,15,-1
 270 173 l 1,12,-1
417 601 m 1,16,-1
 417 448 l 1,17,-1
 225 448 l 1,18,-1
 225 601 l 1,19,-1
 417 601 l 1,16,-1
372 493 m 1,20,-1
 372 556 l 1,21,-1
 270 556 l 1,22,-1
 270 493 l 1,23,-1
 372 493 l 1,20,-1
EndSplineSet
EndChar

StartChar: plusminus
Encoding: 177 177 119
Width: 581
Flags: HMW
HStem: 0 45<102 479 102 524> 108 45<102 479 102 102> 356 45<102 268 313 479 102 524 313 313> 464 45<102 268 313 479 102 102> 646 20G<268 313 313 313>
VStem: 57 45<45 108 45 153 401 464> 268 45<199 356 199 356 509 666> 479 45<45 108 108 108 401 464 464 464>
CounterMasks: 1 07
LayerCount: 2
Fore
SplineSet
313 509 m 1,0,-1
 524 509 l 1,1,-1
 524 356 l 1,2,-1
 313 356 l 1,3,-1
 313 199 l 1,4,-1
 268 199 l 1,5,-1
 268 356 l 1,6,-1
 57 356 l 1,7,-1
 57 509 l 1,8,-1
 268 509 l 1,9,-1
 268 666 l 1,10,-1
 313 666 l 1,11,-1
 313 509 l 1,0,-1
479 401 m 1,12,-1
 479 464 l 1,13,-1
 102 464 l 1,14,-1
 102 401 l 1,15,-1
 479 401 l 1,12,-1
524 153 m 1,16,-1
 524 0 l 1,17,-1
 57 0 l 1,18,-1
 57 153 l 1,19,-1
 524 153 l 1,16,-1
479 45 m 1,20,-1
 479 108 l 1,21,-1
 102 108 l 1,22,-1
 102 45 l 1,23,-1
 479 45 l 1,20,-1
EndSplineSet
EndChar

StartChar: plus
Encoding: 43 43 120
Width: 567
Flags: HMW
HStem: 99 21G<261 306 261 261> 256 45<95 261 306 472 95 517 306 306> 364 45<95 261 306 472 95 95> 546 20G<261 306 306 306>
VStem: 50 45<301 364 301 409> 261 45<99 256 99 256 409 566> 472 45<301 364 364 364>
CounterMasks: 1 0e
LayerCount: 2
Fore
SplineSet
306 409 m 1,0,-1
 517 409 l 1,1,-1
 517 256 l 1,2,-1
 306 256 l 1,3,-1
 306 99 l 1,4,-1
 261 99 l 1,5,-1
 261 256 l 1,6,-1
 50 256 l 1,7,-1
 50 409 l 1,8,-1
 261 409 l 1,9,-1
 261 566 l 1,10,-1
 306 566 l 1,11,-1
 306 409 l 1,0,-1
472 301 m 1,12,-1
 472 364 l 1,13,-1
 95 364 l 1,14,-1
 95 301 l 1,15,-1
 472 301 l 1,12,-1
EndSplineSet
EndChar

StartChar: multiply
Encoding: 215 215 121
Width: 810
Flags: HMW
HStem: 125 45<530 645 530 762 512 645> 494 45<167 282 167 167>
LayerCount: 2
Fore
SplineSet
490 369 m 1,0,-1
 762 125 l 1,1,-1
 512 125 l 1,2,-1
 355 265 l 1,3,-1
 173 125 l 1,4,-1
 98 125 l 1,5,-1
 321 296 l 1,6,-1
 48 539 l 1,7,-1
 298 539 l 1,8,-1
 455 400 l 1,9,-1
 638 539 l 1,10,-1
 713 539 l 1,11,-1
 490 369 l 1,0,-1
530 170 m 1,12,-1
 645 170 l 1,13,-1
 282 494 l 1,14,-1
 167 494 l 1,15,-1
 530 170 l 1,12,-1
EndSplineSet
EndChar

StartChar: florin
Encoding: 402 402 122
Width: 759
Flags: HMW
HStem: -141 45<32 131 176 253 298 397 32 131> 306 45<32 131 32 131 298 581> 650 45<32 131 32 744 176 176 176 253 298 699 298 298>
VStem: 32 144<-141 650 -96 650 306 351 351 351 -96 695 -96 695> 131 45<-96 306 306 306 351 650 -96 650> 253 45<-96 306 351 650> 699 45<510 650 650 650>
LayerCount: 2
Fore
SplineSet
32 695 m 1,0,-1
 744 695 l 1,1,-1
 744 510 l 1,2,-1
 699 510 l 1,3,-1
 699 650 l 1,4,-1
 298 650 l 1,5,-1
 298 351 l 1,6,-1
 581 351 l 1,7,-1
 581 306 l 1,8,-1
 298 306 l 1,9,-1
 298 -96 l 1,10,-1
 397 -96 l 1,11,-1
 397 -141 l 1,12,-1
 32 -141 l 1,13,-1
 32 -96 l 1,14,-1
 131 -96 l 1,15,-1
 131 306 l 1,16,-1
 32 306 l 1,17,-1
 32 351 l 1,18,-1
 131 351 l 1,19,-1
 131 650 l 1,20,-1
 32 650 l 1,21,-1
 32 695 l 1,0,-1
253 -96 m 1,22,-1
 253 650 l 1,23,-1
 176 650 l 1,24,-1
 176 -96 l 1,25,-1
 253 -96 l 1,22,-1
EndSplineSet
EndChar

StartChar: currency
Encoding: 164 164 123
Width: 670
Flags: HMW
HStem: 51 21G<154 154 516 516> 159 45<262 408 262 262> 454 45<244 408 262 408 262 426> 587 20G<154 154 516 516>
VStem: 165 45<257 402 402 402> 460 45<256 403 256 421 256 421>
LayerCount: 2
Fore
SplineSet
505 403 m 1,0,-1
 505 256 l 1,1,-1
 613 148 l 1,2,-1
 581 116 l 1,3,-1
 460 237 l 1,4,-1
 460 421 l 1,5,-1
 581 542 l 1,6,-1
 613 510 l 1,7,-1
 505 403 l 1,0,-1
210 238 m 1,8,-1
 89 116 l 1,9,-1
 57 148 l 1,10,-1
 165 257 l 1,11,-1
 165 402 l 1,12,-1
 57 510 l 1,13,-1
 89 542 l 1,14,-1
 210 421 l 1,15,-1
 210 238 l 1,8,-1
244 454 m 1,16,-1
 122 575 l 1,17,-1
 154 607 l 1,18,-1
 262 499 l 1,19,-1
 408 499 l 1,20,-1
 516 607 l 1,21,-1
 548 575 l 1,22,-1
 426 454 l 1,23,-1
 244 454 l 1,16,-1
427 204 m 1,24,-1
 548 83 l 1,25,-1
 516 51 l 1,26,-1
 408 159 l 1,27,-1
 262 159 l 1,28,-1
 154 51 l 1,29,-1
 122 83 l 1,30,-1
 243 204 l 1,31,-1
 427 204 l 1,24,-1
EndSplineSet
EndChar

StartChar: cent
Encoding: 162 162 124
Width: 672
Flags: HMW
HStem: 148 21G<375 420 375 375> 249 45<52 151 197 273 318 375 52 151 420 569 420 420> 650 45<52 151 52 375 197 197 197 273 318 375 420 569 318 318> 776 20G<375 420 420 420>
VStem: 151 46<294 650 294 650> 273 45<294 650 294 650> 375 45<148 249 148 249 695 796> 569 45<294 378 249 378 566 650 650 650>
LayerCount: 2
Fore
SplineSet
614 566 m 1,0,-1
 569 566 l 1,1,-1
 569 650 l 1,2,-1
 318 650 l 1,3,-1
 318 294 l 1,4,-1
 569 294 l 1,5,-1
 569 378 l 1,6,-1
 614 378 l 1,7,-1
 614 249 l 1,8,-1
 420 249 l 1,9,-1
 420 148 l 1,10,-1
 375 148 l 1,11,-1
 375 249 l 1,12,-1
 52 249 l 1,13,-1
 52 294 l 1,14,-1
 151 294 l 1,15,-1
 151 650 l 1,16,-1
 52 650 l 1,17,-1
 52 695 l 1,18,-1
 375 695 l 1,19,-1
 375 796 l 1,20,-1
 420 796 l 1,21,-1
 420 695 l 1,22,-1
 614 695 l 1,23,-1
 614 566 l 1,0,-1
273 294 m 1,24,-1
 273 650 l 1,25,-1
 197 650 l 1,26,-1
 197 294 l 1,27,-1
 273 294 l 1,24,-1
EndSplineSet
EndChar

StartChar: Euro
Encoding: 8364 8364 125
Width: 981
Flags: HMW
HStem: 0 45<55 154 200 276 321 878 55 154> 265 45<55 154 55 154 321 545> 386 45<55 154 55 154 321 545> 650 45<55 154 55 923 200 200 200 276 321 878 321 321>
VStem: 55 145<0 650 45 650 265 310 310 310 386 431 431 431 45 695 45 695> 154 46<45 265 265 265 310 386 386 386 431 650 45 650> 276 45<45 265 310 386 431 650> 878 45<45 185 0 185 510 650 650 650>
LayerCount: 2
Fore
SplineSet
923 510 m 1,0,-1
 878 510 l 1,1,-1
 878 650 l 1,2,-1
 321 650 l 1,3,-1
 321 431 l 1,4,-1
 545 431 l 1,5,-1
 545 386 l 1,6,-1
 321 386 l 1,7,-1
 321 310 l 1,8,-1
 545 310 l 1,9,-1
 545 265 l 1,10,-1
 321 265 l 1,11,-1
 321 45 l 1,12,-1
 878 45 l 1,13,-1
 878 185 l 1,14,-1
 923 185 l 1,15,-1
 923 0 l 1,16,-1
 55 0 l 1,17,-1
 55 45 l 1,18,-1
 154 45 l 1,19,-1
 154 265 l 1,20,-1
 55 265 l 1,21,-1
 55 310 l 1,22,-1
 154 310 l 1,23,-1
 154 386 l 1,24,-1
 55 386 l 1,25,-1
 55 431 l 1,26,-1
 154 431 l 1,27,-1
 154 650 l 1,28,-1
 55 650 l 1,29,-1
 55 695 l 1,30,-1
 923 695 l 1,31,-1
 923 510 l 1,0,-1
276 45 m 1,32,-1
 276 650 l 1,33,-1
 200 650 l 1,34,-1
 200 45 l 1,35,-1
 276 45 l 1,32,-1
EndSplineSet
EndChar

StartChar: sterling
Encoding: 163 163 126
Width: 849
Flags: HMW
HStem: 0 45<50 150 195 271 317 726 50 150> 251 45<50 150 50 150 317 507> 650 45<195 271 195 195 317 758 317 317>
VStem: 50 145<0 650 45 650 251 296 296 296> 150 45<45 251 251 251 296 650 45 695> 271 46<45 251 296 650> 758 45<510 650 650 650>
LayerCount: 2
Fore
SplineSet
150 695 m 1,0,-1
 803 695 l 1,1,-1
 803 510 l 1,2,-1
 758 510 l 1,3,-1
 758 650 l 1,4,-1
 317 650 l 1,5,-1
 317 296 l 1,6,-1
 507 296 l 1,7,-1
 507 251 l 1,8,-1
 317 251 l 1,9,-1
 317 45 l 1,10,-1
 726 45 l 1,11,-1
 726 0 l 1,12,-1
 50 0 l 1,13,-1
 50 45 l 1,14,-1
 150 45 l 1,15,-1
 150 251 l 1,16,-1
 50 251 l 1,17,-1
 50 296 l 1,18,-1
 150 296 l 1,19,-1
 150 695 l 1,0,-1
271 45 m 1,20,-1
 271 650 l 1,21,-1
 195 650 l 1,22,-1
 195 45 l 1,23,-1
 271 45 l 1,20,-1
EndSplineSet
EndChar

StartChar: dollar
Encoding: 36 36 127
Width: 926
Flags: HMW
HStem: -122 21G<440 485 440 440> 0 45<100 440 100 440 485 704 749 826> 325 45<100 176 222 440 485 704 749 826 749 749> 650 45<100 176 100 100 222 222 222 440 485 826> 797 20G<440 485 485 485>
VStem: 55 45<45 185 45 185 45 185 370 650> 176 46<370 650 370 650> 440 45<-122 0 -122 0 45 325 370 650 695 817> 704 45<45 325 45 325> 826 45<45 325 325 325 510 650 650 650>
LayerCount: 2
Fore
SplineSet
871 510 m 1,0,-1
 826 510 l 1,1,-1
 826 650 l 1,2,-1
 485 650 l 1,3,-1
 485 370 l 1,4,-1
 871 370 l 1,5,-1
 871 0 l 1,6,-1
 485 0 l 1,7,-1
 485 -122 l 1,8,-1
 440 -122 l 1,9,-1
 440 0 l 1,10,-1
 55 0 l 1,11,-1
 55 185 l 1,12,-1
 100 185 l 1,13,-1
 100 45 l 1,14,-1
 440 45 l 1,15,-1
 440 325 l 1,16,-1
 55 325 l 1,17,-1
 55 695 l 1,18,-1
 440 695 l 1,19,-1
 440 817 l 1,20,-1
 485 817 l 1,21,-1
 485 695 l 1,22,-1
 871 695 l 1,23,-1
 871 510 l 1,0,-1
176 370 m 1,24,-1
 176 650 l 1,25,-1
 100 650 l 1,26,-1
 100 370 l 1,27,-1
 176 370 l 1,24,-1
749 325 m 1,28,-1
 749 45 l 1,29,-1
 826 45 l 1,30,-1
 826 325 l 1,31,-1
 749 325 l 1,28,-1
704 325 m 1,32,-1
 485 325 l 1,33,-1
 485 45 l 1,34,-1
 704 45 l 1,35,-1
 704 325 l 1,32,-1
440 370 m 1,36,-1
 440 650 l 1,37,-1
 222 650 l 1,38,-1
 222 370 l 1,39,-1
 440 370 l 1,36,-1
EndSplineSet
EndChar

StartChar: dollar.alt
Encoding: 65537 -1 128
Width: 926
Flags: HMW
HStem: -146 21G<440 485 440 440> 0 45<100 440 485 704 749 826 485 485> 325 45<100 176 222 704 749 826 749 749> 650 45<100 176 100 100 222 440 485 826 222 222> 821 20G<440 485 485 485>
VStem: 55 45<45 185 45 185 45 185 370 650> 176 46<370 650 370 650> 440 45<-146 0 -146 0 695 841> 704 45<45 325 45 325> 826 45<45 325 325 325 510 650 650 650>
LayerCount: 2
Fore
SplineSet
871 510 m 1,0,-1
 826 510 l 1,1,-1
 826 650 l 1,2,-1
 222 650 l 1,3,-1
 222 370 l 1,4,-1
 871 370 l 1,5,-1
 871 0 l 1,6,-1
 485 0 l 1,7,-1
 485 -146 l 1,8,-1
 440 -146 l 1,9,-1
 440 0 l 1,10,-1
 55 0 l 1,11,-1
 55 185 l 1,12,-1
 100 185 l 1,13,-1
 100 45 l 1,14,-1
 704 45 l 1,15,-1
 704 325 l 1,16,-1
 55 325 l 1,17,-1
 55 695 l 1,18,-1
 440 695 l 1,19,-1
 440 841 l 1,20,-1
 485 841 l 1,21,-1
 485 695 l 1,22,-1
 871 695 l 1,23,-1
 871 510 l 1,0,-1
749 325 m 1,24,-1
 749 45 l 1,25,-1
 826 45 l 1,26,-1
 826 325 l 1,27,-1
 749 325 l 1,24,-1
176 370 m 1,28,-1
 176 650 l 1,29,-1
 100 650 l 1,30,-1
 100 370 l 1,31,-1
 176 370 l 1,28,-1
EndSplineSet
EndChar

StartChar: section
Encoding: 167 167 129
Width: 764
Flags: HMW
HStem: -163 45<108 534 580 656> 78 45<108 185 230 534 580 656 580 580> 168 45<579 656 579 701> 319 45<108 185 108 108> 409 45<108 184 230 534 579 656 579 579> 650 45<108 184 108 108 230 656 230 230>
VStem: 63 45<-118 -20 -118 -20 -118 -20 123 319 454 650> 184 46<454 650> 534 45<213 409 213 409 213 409> 656 45<-118 78 78 78 213 409 409 409 552 650 650 650>
LayerCount: 2
Fore
SplineSet
701 552 m 1,0,-1
 656 552 l 1,1,-1
 656 650 l 1,2,-1
 230 650 l 1,3,-1
 230 454 l 1,4,-1
 701 454 l 1,5,-1
 701 168 l 1,6,-1
 534 168 l 1,7,-1
 534 409 l 1,8,-1
 63 409 l 1,9,-1
 63 695 l 1,10,-1
 701 695 l 1,11,-1
 701 552 l 1,0,-1
579 409 m 1,12,-1
 579 213 l 1,13,-1
 656 213 l 1,14,-1
 656 409 l 1,15,-1
 579 409 l 1,12,-1
184 454 m 1,16,-1
 184 650 l 1,17,-1
 108 650 l 1,18,-1
 108 454 l 1,19,-1
 184 454 l 1,16,-1
63 -20 m 1,20,-1
 108 -20 l 1,21,-1
 108 -118 l 1,22,-1
 534 -118 l 1,23,-1
 534 78 l 1,24,-1
 63 78 l 1,25,-1
 63 364 l 1,26,-1
 230 364 l 1,27,-1
 230 123 l 1,28,-1
 701 123 l 1,29,-1
 701 -163 l 1,30,-1
 63 -163 l 1,31,-1
 63 -20 l 1,20,-1
185 123 m 1,32,-1
 185 319 l 1,33,-1
 108 319 l 1,34,-1
 108 123 l 1,35,-1
 185 123 l 1,32,-1
580 78 m 1,36,-1
 580 -118 l 1,37,-1
 656 -118 l 1,38,-1
 656 78 l 1,39,-1
 580 78 l 1,36,-1
EndSplineSet
EndChar

StartChar: yen
Encoding: 165 165 130
Width: 1002
Flags: HMW
HStem: 0 45<319 418 463 540 585 684 319 418> 240 45<226 418 226 418 585 777> 325 45<463 540 463 463> 374 45<226 348 226 388 226 348 655 777> 650 45<34 146 34 278 206 206 206 278 725 797 857 968 857 857>
VStem: 226 237<240 285 285 285 45 419 45 419> 418 45<45 240 240 240 285 325 45 339 45 339> 540 45<45 240 285 325 325 325> 540 237<240 285 240 325 240 325>
LayerCount: 2
Fore
SplineSet
725 695 m 1,0,-1
 968 695 l 1,1,-1
 968 650 l 1,2,-1
 857 650 l 1,3,-1
 655 419 l 1,4,-1
 777 419 l 1,5,-1
 777 374 l 1,6,-1
 616 374 l 1,7,-1
 585 339 l 1,8,-1
 585 285 l 1,9,-1
 777 285 l 1,10,-1
 777 240 l 1,11,-1
 585 240 l 1,12,-1
 585 45 l 1,13,-1
 684 45 l 1,14,-1
 684 0 l 1,15,-1
 319 0 l 1,16,-1
 319 45 l 1,17,-1
 418 45 l 1,18,-1
 418 240 l 1,19,-1
 226 240 l 1,20,-1
 226 285 l 1,21,-1
 418 285 l 1,22,-1
 418 339 l 1,23,-1
 388 374 l 1,24,-1
 226 374 l 1,25,-1
 226 419 l 1,26,-1
 348 419 l 1,27,-1
 146 650 l 1,28,-1
 34 650 l 1,29,-1
 34 695 l 1,30,-1
 278 695 l 1,31,-1
 278 650 l 1,32,-1
 206 650 l 1,33,-1
 451 370 l 1,34,-1
 552 370 l 1,35,-1
 797 650 l 1,36,-1
 725 650 l 1,37,-1
 725 695 l 1,0,-1
540 45 m 1,38,-1
 540 325 l 1,39,-1
 463 325 l 1,40,-1
 463 45 l 1,41,-1
 540 45 l 1,38,-1
EndSplineSet
EndChar

StartChar: copyright
Encoding: 169 169 131
Width: 824
Flags: HMW
HStem: 30 45<114 710 114 755> 133 45<218 294 339 607> 515 45<218 294 218 218 339 607 339 339> 618 45<114 114 114 710>
VStem: 69 45<75 618 75 663> 172 46<178 515 178 560 178 560> 294 45<178 515 178 515> 607 45<178 250 133 250 442 515 515 515> 710 45<75 618 618 618>
LayerCount: 2
Fore
SplineSet
755 663 m 1,0,-1
 755 30 l 1,1,-1
 69 30 l 1,2,-1
 69 663 l 1,3,-1
 755 663 l 1,0,-1
114 618 m 1,4,-1
 114 75 l 1,5,-1
 710 75 l 1,6,-1
 710 618 l 1,7,-1
 114 618 l 1,4,-1
652 442 m 1,8,-1
 607 442 l 1,9,-1
 607 515 l 1,10,-1
 339 515 l 1,11,-1
 339 178 l 1,12,-1
 607 178 l 1,13,-1
 607 250 l 1,14,-1
 652 250 l 1,15,-1
 652 133 l 1,16,-1
 172 133 l 1,17,-1
 172 560 l 1,18,-1
 652 560 l 1,19,-1
 652 442 l 1,8,-1
294 178 m 1,20,-1
 294 515 l 1,21,-1
 218 515 l 1,22,-1
 218 178 l 1,23,-1
 294 178 l 1,20,-1
EndSplineSet
EndChar

StartChar: registered
Encoding: 174 174 132
Width: 824
Flags: HMW
HStem: 30 45<114 710 114 755> 133 45<218 294 218 339> 315 46<339 548 339 548> 515 45<218 294 218 218 339 606 339 339> 618 45<114 710 114 114>
VStem: 69 45<75 618 75 663> 172 46<178 515 178 560 178 560> 294 45<178 315 361 515> 606 46<133 256 133 272.5 420 515 515 515> 710 45<75 618 618 618>
LayerCount: 2
Fore
SplineSet
69 663 m 1,0,-1
 755 663 l 1,1,-1
 755 30 l 1,2,-1
 69 30 l 1,3,-1
 69 663 l 1,0,-1
710 75 m 1,4,-1
 710 618 l 1,5,-1
 114 618 l 1,6,-1
 114 75 l 1,7,-1
 710 75 l 1,4,-1
339 315 m 1,8,-1
 339 133 l 1,9,-1
 172 133 l 1,10,-1
 172 560 l 1,11,-1
 652 560 l 1,12,-1
 652 420 l 2,13,14
 652 370 652 370 612 338 c 1,15,16
 652 306 652 306 652 256 c 2,17,-1
 652 133 l 1,18,-1
 606 133 l 1,19,-1
 606 256 l 2,20,21
 606 281 606 281 589 298 c 128,-1,22
 572 315 572 315 548 315 c 2,23,-1
 339 315 l 1,8,-1
606 515 m 1,24,-1
 339 515 l 1,25,-1
 339 361 l 1,26,-1
 548 361 l 2,27,28
 572 361 572 361 589 378 c 128,-1,29
 606 395 606 395 606 420 c 2,30,-1
 606 515 l 1,24,-1
294 178 m 1,31,-1
 294 515 l 1,32,-1
 218 515 l 1,33,-1
 218 178 l 1,34,-1
 294 178 l 1,31,-1
EndSplineSet
EndChar

StartChar: trademark
Encoding: 8482 8482 133
Width: 1550
Flags: HMW
HStem: 350 30<184 252 282 374 404 473 184 252 661 729 759 850 881 949 1196 1264 1295 1386 1416 1484> 602 93<67 97 67 589 559 559 559 589> 665 30<97 97 97 252 282 374 282 282 404 404 404 559 661 729 759 759 759 850 1295 1295 1295 1386 1416 1484 1416 1416>
VStem: 67 30<602 665 602 695> 252 30<380 665 380 665> 374 30<380 665 380 665> 559 30<602 665 665 665> 729 30<380 665 380 665> 850 31<380 627 380 665> 1264 31<380 627 627 627> 1386 30<380 665 380 665>
LayerCount: 2
Fore
SplineSet
97 665 m 1,0,-1
 97 602 l 1,1,-1
 67 602 l 1,2,-1
 67 695 l 1,3,-1
 589 695 l 1,4,-1
 589 602 l 1,5,-1
 559 602 l 1,6,-1
 559 665 l 1,7,-1
 404 665 l 1,8,-1
 404 380 l 1,9,-1
 473 380 l 1,10,-1
 473 350 l 1,11,-1
 184 350 l 1,12,-1
 184 380 l 1,13,-1
 252 380 l 1,14,-1
 252 665 l 1,15,-1
 97 665 l 1,0,-1
282 665 m 1,16,-1
 282 380 l 1,17,-1
 374 380 l 1,18,-1
 374 665 l 1,19,-1
 282 665 l 1,16,-1
1416 665 m 1,20,-1
 1416 380 l 1,21,-1
 1484 380 l 1,22,-1
 1484 350 l 1,23,-1
 1196 350 l 1,24,-1
 1196 380 l 1,25,-1
 1264 380 l 1,26,-1
 1264 627 l 1,27,-1
 1072 352 l 1,28,-1
 881 627 l 1,29,-1
 881 380 l 1,30,-1
 949 380 l 1,31,-1
 949 350 l 1,32,-1
 661 350 l 1,33,-1
 661 380 l 1,34,-1
 729 380 l 1,35,-1
 729 665 l 1,36,-1
 661 665 l 1,37,-1
 661 695 l 1,38,-1
 875 695 l 1,39,-1
 1072 411 l 1,40,-1
 1270 695 l 1,41,-1
 1484 695 l 1,42,-1
 1484 665 l 1,43,-1
 1416 665 l 1,20,-1
850 380 m 1,44,-1
 850 665 l 1,45,-1
 759 665 l 1,46,-1
 759 380 l 1,47,-1
 850 380 l 1,44,-1
1386 380 m 1,48,-1
 1386 665 l 1,49,-1
 1295 665 l 1,50,-1
 1295 380 l 1,51,-1
 1386 380 l 1,48,-1
EndSplineSet
EndChar

StartChar: paragraph
Encoding: 182 182 134
Width: 730
Flags: HMW
HStem: -122 21G<422 467 422 422 543 589 543 543> 650 45<467 543 467 467 589 688 589 589>
VStem: 422 45<-122 325 325 325> 543 46<-122 650 -122 650>
LayerCount: 2
Fore
SplineSet
688 650 m 1,0,-1
 589 650 l 1,1,-1
 589 -122 l 1,2,-1
 543 -122 l 1,3,-1
 543 650 l 1,4,-1
 467 650 l 1,5,-1
 467 -122 l 1,6,-1
 422 -122 l 1,7,-1
 422 325 l 1,8,-1
 50 325 l 1,9,-1
 50 695 l 1,10,-1
 688 695 l 1,11,-1
 688 650 l 1,0,-1
EndSplineSet
EndChar

StartChar: germandbls
Encoding: 223 223 135
Width: 1014
Flags: HMW
HStem: -81 45<33 132 178 254 33 132> 0 45<430 903 430 949 430 903> 325 46<430 845 430 845> 650 45<33 132 33 949 178 178 178 254 299 903 299 299>
VStem: 132 46<-36 650 -36 650> 254 45<-36 650 -81 650> 903 46<45 266 0 282.5 430 650 650 650>
LayerCount: 2
Fore
SplineSet
949 430 m 2,0,1
 949 380 949 380 909 348 c 1,2,3
 949 316 949 316 949 266 c 2,4,-1
 949 0 l 1,5,-1
 430 0 l 1,6,-1
 430 45 l 1,7,-1
 903 45 l 1,8,-1
 903 266 l 2,9,10
 903 291 903 291 886 308 c 128,-1,11
 869 325 869 325 845 325 c 2,12,-1
 430 325 l 1,13,-1
 430 371 l 1,14,-1
 845 371 l 2,15,16
 869 371 869 371 886 388 c 128,-1,17
 903 405 903 405 903 430 c 2,18,-1
 903 650 l 1,19,-1
 299 650 l 1,20,-1
 299 -81 l 1,21,-1
 33 -81 l 1,22,-1
 33 -36 l 1,23,-1
 132 -36 l 1,24,-1
 132 650 l 1,25,-1
 33 650 l 1,26,-1
 33 695 l 1,27,-1
 949 695 l 1,28,-1
 949 430 l 2,0,1
254 -36 m 1,29,-1
 254 650 l 1,30,-1
 178 650 l 1,31,-1
 178 -36 l 1,32,-1
 254 -36 l 1,29,-1
EndSplineSet
EndChar

StartChar: dagger
Encoding: 8224 8224 136
Width: 560
Flags: HMW
HStem: -61 45<241 317 241 363> 442 46<38 196 38 196 363 522> 665 45<241 317 241 241>
VStem: 196 45<-16 442 442 442 488 665 -16 710> 317 46<-16 442 488 665 665 665>
LayerCount: 2
Fore
SplineSet
363 488 m 1,0,-1
 522 488 l 1,1,-1
 522 442 l 1,2,-1
 363 442 l 1,3,-1
 363 -61 l 1,4,-1
 196 -61 l 1,5,-1
 196 442 l 1,6,-1
 38 442 l 1,7,-1
 38 488 l 1,8,-1
 196 488 l 1,9,-1
 196 710 l 1,10,-1
 363 710 l 1,11,-1
 363 488 l 1,0,-1
317 -16 m 1,12,-1
 317 665 l 1,13,-1
 241 665 l 1,14,-1
 241 -16 l 1,15,-1
 317 -16 l 1,12,-1
EndSplineSet
EndChar

StartChar: daggerdbl
Encoding: 8225 8225 137
Width: 582
Flags: HMW
HStem: -61 45<252 328 252 374> 161 46<49 207 49 207 374 533> 442 46<49 207 49 207 374 533> 665 45<252 328 252 252>
VStem: 49 203<161 207 207 207 442 488 488 488> 207 45<-16 161 161 161 207 442 442 442 488 665 -16 710> 328 46<-16 161 207 442 488 665 665 665> 328 205<161 207 442 488>
LayerCount: 2
Fore
SplineSet
533 442 m 1,0,-1
 374 442 l 1,1,-1
 374 207 l 1,2,-1
 533 207 l 1,3,-1
 533 161 l 1,4,-1
 374 161 l 1,5,-1
 374 -61 l 1,6,-1
 207 -61 l 1,7,-1
 207 161 l 1,8,-1
 49 161 l 1,9,-1
 49 207 l 1,10,-1
 207 207 l 1,11,-1
 207 442 l 1,12,-1
 49 442 l 1,13,-1
 49 488 l 1,14,-1
 207 488 l 1,15,-1
 207 710 l 1,16,-1
 374 710 l 1,17,-1
 374 488 l 1,18,-1
 533 488 l 1,19,-1
 533 442 l 1,0,-1
328 -16 m 1,20,-1
 328 665 l 1,21,-1
 252 665 l 1,22,-1
 252 -16 l 1,23,-1
 328 -16 l 1,20,-1
EndSplineSet
EndChar

StartChar: less
Encoding: 60 60 138
Width: 649
Flags: HMW
HStem: 75 21G<570 570> 593 20G<570 570>
VStem: 525 45<149 234 234 234>
LayerCount: 2
Fore
SplineSet
570 613 m 1,0,-1
 570 563 l 1,1,-1
 272 412 l 1,2,-1
 570 261 l 1,3,-1
 570 75 l 1,4,-1
 37 344 l 1,5,-1
 570 613 l 1,0,-1
525 234 m 1,6,-1
 222 387 l 1,7,-1
 138 345 l 1,8,-1
 525 149 l 1,9,-1
 525 234 l 1,6,-1
EndSplineSet
EndChar

StartChar: greater
Encoding: 62 62 139
Width: 649
Flags: HMW
HStem: 75 21G<79 79> 593 20G<79 79>
VStem: 79 45<454 454 454 539>
LayerCount: 2
Fore
SplineSet
79 75 m 1,0,-1
 79 125 l 1,1,-1
 377 276 l 1,2,-1
 79 427 l 1,3,-1
 79 613 l 1,4,-1
 612 344 l 1,5,-1
 79 75 l 1,0,-1
124 454 m 1,6,-1
 427 301 l 1,7,-1
 511 343 l 1,8,-1
 124 539 l 1,9,-1
 124 454 l 1,6,-1
EndSplineSet
EndChar

StartChar: guilsinglleft
Encoding: 8249 8249 140
Width: 528
Flags: HMW
HStem: 103 21G<449 449> 498 20G<449 449>
VStem: 404 45<177 262 262 262>
LayerCount: 2
Fore
SplineSet
38 310 m 1,0,-1
 449 518 l 1,1,-1
 449 468 l 1,2,-1
 273 378 l 1,3,-1
 449 289 l 1,4,-1
 449 103 l 1,5,-1
 38 310 l 1,0,-1
404 262 m 1,6,-1
 223 353 l 1,7,-1
 139 311 l 1,8,-1
 404 177 l 1,9,-1
 404 262 l 1,6,-1
EndSplineSet
EndChar

StartChar: guilsinglright
Encoding: 8250 8250 141
Width: 530
Flags: HMW
HStem: 103 21G<79 79> 498 20G<79 79>
VStem: 79 45<359 359 359 444>
LayerCount: 2
Fore
SplineSet
490 311 m 1,0,-1
 79 103 l 1,1,-1
 79 153 l 1,2,-1
 255 243 l 1,3,-1
 79 332 l 1,4,-1
 79 518 l 1,5,-1
 490 311 l 1,0,-1
124 359 m 1,6,-1
 305 268 l 1,7,-1
 389 310 l 1,8,-1
 124 444 l 1,9,-1
 124 359 l 1,6,-1
EndSplineSet
EndChar

StartChar: guillemotright
Encoding: 187 187 142
Width: 778
Flags: HMW
HStem: 103 21G<79 79> 499 20G<324 324>
VStem: 79 45<359 359 359 444>
LayerCount: 2
Fore
SplineSet
490 311 m 1,0,-1
 79 103 l 1,1,-1
 79 153 l 1,2,-1
 255 243 l 1,3,-1
 79 332 l 1,4,-1
 79 518 l 1,5,-1
 490 311 l 1,0,-1
124 359 m 1,6,-1
 305 268 l 1,7,-1
 389 310 l 1,8,-1
 124 444 l 1,9,-1
 124 359 l 1,6,-1
324 104 m 1,10,-1
 324 154 l 1,11,-1
 634 311 l 1,12,-1
 324 468 l 1,13,-1
 324 519 l 1,14,-1
 735 312 l 1,15,-1
 324 104 l 1,10,-1
EndSplineSet
EndChar

StartChar: guillemotleft
Encoding: 171 171 143
Width: 773
Flags: HMW
HStem: 103 21G<449 449> 499 20G<694 694>
VStem: 649 45<178 263 263 263>
LayerCount: 2
Fore
SplineSet
283 311 m 1,0,-1
 694 519 l 1,1,-1
 694 469 l 1,2,-1
 518 379 l 1,3,-1
 694 290 l 1,4,-1
 694 104 l 1,5,-1
 283 311 l 1,0,-1
649 263 m 1,6,-1
 468 354 l 1,7,-1
 384 312 l 1,8,-1
 649 178 l 1,9,-1
 649 263 l 1,6,-1
449 518 m 1,10,-1
 449 468 l 1,11,-1
 139 311 l 1,12,-1
 449 154 l 1,13,-1
 449 103 l 1,14,-1
 38 310 l 1,15,-1
 449 518 l 1,10,-1
EndSplineSet
EndChar

StartChar: Agrave
Encoding: 192 192 144
Width: 1063
Flags: HMW
HStem: 0 45<31 131 176 252 298 397 31 131 803 902 947 1046> 325 45<298 902 298 902> 650 45<31 131 31 947 176 176 176 252 298 298 298 902> 746 164<533 576 377 700 533 533> 865 45<483 483 483 554>
VStem: 131 45<45 650 45 650> 252 46<45 325 370 650> 902 45<45 325 325 325 370 650 650 650>
LayerCount: 2
Fore
SplineSet
947 45 m 1,0,-1
 1046 45 l 1,1,-1
 1046 0 l 1,2,-1
 803 0 l 1,3,-1
 803 45 l 1,4,-1
 902 45 l 1,5,-1
 902 325 l 1,6,-1
 298 325 l 1,7,-1
 298 45 l 1,8,-1
 397 45 l 1,9,-1
 397 0 l 1,10,-1
 31 0 l 1,11,-1
 31 45 l 1,12,-1
 131 45 l 1,13,-1
 131 650 l 1,14,-1
 31 650 l 1,15,-1
 31 695 l 1,16,-1
 947 695 l 1,17,-1
 947 45 l 1,0,-1
252 45 m 1,18,-1
 252 650 l 1,19,-1
 176 650 l 1,20,-1
 176 45 l 1,21,-1
 252 45 l 1,18,-1
298 370 m 1,22,-1
 902 370 l 1,23,-1
 902 650 l 1,24,-1
 298 650 l 1,25,-1
 298 370 l 1,22,-1
377 910 m 1,26,-1
 576 910 l 1,27,-1
 700 746 l 1,28,-1
 533 746 l 1,29,-1
 377 910 l 1,26,-1
483 865 m 1,30,-1
 556 791 l 1,31,-1
 610 791 l 1,32,-1
 554 865 l 1,33,-1
 483 865 l 1,30,-1
EndSplineSet
EndChar

StartChar: agrave
Encoding: 224 224 145
Width: 1063
Flags: HMW
HStem: 0 45<31 131 176 252 298 397 31 131 803 902 947 1046> 325 45<298 902 298 902> 650 45<31 131 31 947 176 176 176 252 298 298 298 902> 746 164<533 576 377 700 533 533> 865 45<483 483 483 554>
VStem: 131 45<45 650 45 650> 252 46<45 325 370 650> 902 45<45 325 325 325 370 650 650 650>
LayerCount: 2
Fore
SplineSet
947 45 m 1,0,-1
 1046 45 l 1,1,-1
 1046 0 l 1,2,-1
 803 0 l 1,3,-1
 803 45 l 1,4,-1
 902 45 l 1,5,-1
 902 325 l 1,6,-1
 298 325 l 1,7,-1
 298 45 l 1,8,-1
 397 45 l 1,9,-1
 397 0 l 1,10,-1
 31 0 l 1,11,-1
 31 45 l 1,12,-1
 131 45 l 1,13,-1
 131 650 l 1,14,-1
 31 650 l 1,15,-1
 31 695 l 1,16,-1
 947 695 l 1,17,-1
 947 45 l 1,0,-1
252 45 m 1,18,-1
 252 650 l 1,19,-1
 176 650 l 1,20,-1
 176 45 l 1,21,-1
 252 45 l 1,18,-1
298 370 m 1,22,-1
 902 370 l 1,23,-1
 902 650 l 1,24,-1
 298 650 l 1,25,-1
 298 370 l 1,22,-1
377 910 m 1,26,-1
 576 910 l 1,27,-1
 700 746 l 1,28,-1
 533 746 l 1,29,-1
 377 910 l 1,26,-1
483 865 m 1,30,-1
 556 791 l 1,31,-1
 610 791 l 1,32,-1
 554 865 l 1,33,-1
 483 865 l 1,30,-1
EndSplineSet
EndChar

StartChar: Aacute
Encoding: 193 193 146
Width: 1063
Flags: HMW
HStem: 0 45<31 131 176 252 298 397 31 131 803 902 947 1046> 325 45<298 902 298 902> 650 45<31 131 31 947 176 176 176 252 298 298 298 902> 746 164<551 594 427 750> 865 45<573 644 573 573>
VStem: 131 45<45 650 45 650> 252 46<45 325 370 650> 902 45<45 325 325 325 370 650 650 650>
LayerCount: 2
Fore
SplineSet
947 45 m 1,0,-1
 1046 45 l 1,1,-1
 1046 0 l 1,2,-1
 803 0 l 1,3,-1
 803 45 l 1,4,-1
 902 45 l 1,5,-1
 902 325 l 1,6,-1
 298 325 l 1,7,-1
 298 45 l 1,8,-1
 397 45 l 1,9,-1
 397 0 l 1,10,-1
 31 0 l 1,11,-1
 31 45 l 1,12,-1
 131 45 l 1,13,-1
 131 650 l 1,14,-1
 31 650 l 1,15,-1
 31 695 l 1,16,-1
 947 695 l 1,17,-1
 947 45 l 1,0,-1
252 45 m 1,18,-1
 252 650 l 1,19,-1
 176 650 l 1,20,-1
 176 45 l 1,21,-1
 252 45 l 1,18,-1
298 370 m 1,22,-1
 902 370 l 1,23,-1
 902 650 l 1,24,-1
 298 650 l 1,25,-1
 298 370 l 1,22,-1
551 910 m 1,26,-1
 750 910 l 1,27,-1
 594 746 l 1,28,-1
 427 746 l 1,29,-1
 551 910 l 1,26,-1
571 791 m 1,30,-1
 644 865 l 1,31,-1
 573 865 l 1,32,-1
 517 791 l 1,33,-1
 571 791 l 1,30,-1
EndSplineSet
EndChar

StartChar: aacute
Encoding: 225 225 147
Width: 1063
Flags: HMW
HStem: 0 45<31 131 176 252 298 397 31 131 803 902 947 1046> 325 45<298 902 298 902> 650 45<31 131 31 947 176 176 176 252 298 298 298 902> 746 164<551 594 427 750> 865 45<573 644 573 573>
VStem: 131 45<45 650 45 650> 252 46<45 325 370 650> 902 45<45 325 325 325 370 650 650 650>
LayerCount: 2
Fore
SplineSet
947 45 m 1,0,-1
 1046 45 l 1,1,-1
 1046 0 l 1,2,-1
 803 0 l 1,3,-1
 803 45 l 1,4,-1
 902 45 l 1,5,-1
 902 325 l 1,6,-1
 298 325 l 1,7,-1
 298 45 l 1,8,-1
 397 45 l 1,9,-1
 397 0 l 1,10,-1
 31 0 l 1,11,-1
 31 45 l 1,12,-1
 131 45 l 1,13,-1
 131 650 l 1,14,-1
 31 650 l 1,15,-1
 31 695 l 1,16,-1
 947 695 l 1,17,-1
 947 45 l 1,0,-1
252 45 m 1,18,-1
 252 650 l 1,19,-1
 176 650 l 1,20,-1
 176 45 l 1,21,-1
 252 45 l 1,18,-1
298 370 m 1,22,-1
 902 370 l 1,23,-1
 902 650 l 1,24,-1
 298 650 l 1,25,-1
 298 370 l 1,22,-1
551 910 m 1,26,-1
 750 910 l 1,27,-1
 594 746 l 1,28,-1
 427 746 l 1,29,-1
 551 910 l 1,26,-1
571 791 m 1,30,-1
 644 865 l 1,31,-1
 573 865 l 1,32,-1
 517 791 l 1,33,-1
 571 791 l 1,30,-1
EndSplineSet
EndChar

StartChar: Acircumflex
Encoding: 194 194 148
Width: 1063
Flags: HMW
HStem: 0 45<31 131 176 252 298 397 31 131 803 902 947 1046> 325 45<298 902 298 902> 650 45<31 131 31 947 176 176 176 252 298 298 298 902> 746 164<472 515 348 612 472 729 472 673> 865 45<494 565 494 494>
VStem: 131 45<45 650 45 650> 252 46<45 325 370 650> 902 45<45 325 325 325 370 650 650 650>
LayerCount: 2
Fore
SplineSet
947 45 m 1,0,-1
 1046 45 l 1,1,-1
 1046 0 l 1,2,-1
 803 0 l 1,3,-1
 803 45 l 1,4,-1
 902 45 l 1,5,-1
 902 325 l 1,6,-1
 298 325 l 1,7,-1
 298 45 l 1,8,-1
 397 45 l 1,9,-1
 397 0 l 1,10,-1
 31 0 l 1,11,-1
 31 45 l 1,12,-1
 131 45 l 1,13,-1
 131 650 l 1,14,-1
 31 650 l 1,15,-1
 31 695 l 1,16,-1
 947 695 l 1,17,-1
 947 45 l 1,0,-1
252 45 m 1,18,-1
 252 650 l 1,19,-1
 176 650 l 1,20,-1
 176 45 l 1,21,-1
 252 45 l 1,18,-1
298 370 m 1,22,-1
 902 370 l 1,23,-1
 902 650 l 1,24,-1
 298 650 l 1,25,-1
 298 370 l 1,22,-1
612 910 m 1,26,-1
 729 746 l 1,27,-1
 673 746 l 1,28,-1
 606 841 l 1,29,-1
 515 746 l 1,30,-1
 348 746 l 1,31,-1
 472 910 l 1,32,-1
 612 910 l 1,26,-1
492 791 m 1,33,-1
 565 865 l 1,34,-1
 494 865 l 1,35,-1
 438 791 l 1,36,-1
 492 791 l 1,33,-1
EndSplineSet
EndChar

StartChar: acircumflex
Encoding: 226 226 149
Width: 1063
Flags: HMW
HStem: 0 45<31 131 176 252 298 397 31 131 803 902 947 1046> 325 45<298 902 298 902> 650 45<31 131 31 947 176 176 176 252 298 298 298 902> 746 164<472 515 348 612 472 729 472 673> 865 45<494 565 494 494>
VStem: 131 45<45 650 45 650> 252 46<45 325 370 650> 902 45<45 325 325 325 370 650 650 650>
LayerCount: 2
Fore
SplineSet
947 45 m 1,0,-1
 1046 45 l 1,1,-1
 1046 0 l 1,2,-1
 803 0 l 1,3,-1
 803 45 l 1,4,-1
 902 45 l 1,5,-1
 902 325 l 1,6,-1
 298 325 l 1,7,-1
 298 45 l 1,8,-1
 397 45 l 1,9,-1
 397 0 l 1,10,-1
 31 0 l 1,11,-1
 31 45 l 1,12,-1
 131 45 l 1,13,-1
 131 650 l 1,14,-1
 31 650 l 1,15,-1
 31 695 l 1,16,-1
 947 695 l 1,17,-1
 947 45 l 1,0,-1
252 45 m 1,18,-1
 252 650 l 1,19,-1
 176 650 l 1,20,-1
 176 45 l 1,21,-1
 252 45 l 1,18,-1
298 370 m 1,22,-1
 902 370 l 1,23,-1
 902 650 l 1,24,-1
 298 650 l 1,25,-1
 298 370 l 1,22,-1
612 910 m 1,26,-1
 729 746 l 1,27,-1
 673 746 l 1,28,-1
 606 841 l 1,29,-1
 515 746 l 1,30,-1
 348 746 l 1,31,-1
 472 910 l 1,32,-1
 612 910 l 1,26,-1
492 791 m 1,33,-1
 565 865 l 1,34,-1
 494 865 l 1,35,-1
 438 791 l 1,36,-1
 492 791 l 1,33,-1
EndSplineSet
EndChar

StartChar: Atilde
Encoding: 195 195 150
Width: 1063
Flags: HMW
HStem: 0 45<31 131 176 252 298 397 31 131 803 902 947 1046> 325 45<298 902 298 902> 650 45<31 131 31 947 176 176 176 252 298 298 298 902> 746 45<354 408 354 431 646 700> 865 45<410 481 410 410 702 773 702 702>
VStem: 131 45<45 650 45 650> 252 46<45 325 370 650> 902 45<45 325 325 325 370 650 650 650>
LayerCount: 2
Fore
SplineSet
947 45 m 1,0,-1
 1046 45 l 1,1,-1
 1046 0 l 1,2,-1
 803 0 l 1,3,-1
 803 45 l 1,4,-1
 902 45 l 1,5,-1
 902 325 l 1,6,-1
 298 325 l 1,7,-1
 298 45 l 1,8,-1
 397 45 l 1,9,-1
 397 0 l 1,10,-1
 31 0 l 1,11,-1
 31 45 l 1,12,-1
 131 45 l 1,13,-1
 131 650 l 1,14,-1
 31 650 l 1,15,-1
 31 695 l 1,16,-1
 947 695 l 1,17,-1
 947 45 l 1,0,-1
252 45 m 1,18,-1
 252 650 l 1,19,-1
 176 650 l 1,20,-1
 176 45 l 1,21,-1
 252 45 l 1,18,-1
298 370 m 1,22,-1
 902 370 l 1,23,-1
 902 650 l 1,24,-1
 298 650 l 1,25,-1
 298 370 l 1,22,-1
879 910 m 1,26,-1
 723 746 l 1,27,-1
 589 746 l 1,28,-1
 522 841 l 1,29,-1
 431 746 l 1,30,-1
 264 746 l 1,31,-1
 388 910 l 1,32,-1
 528 910 l 1,33,-1
 601 807 l 1,34,-1
 680 910 l 1,35,-1
 879 910 l 1,26,-1
700 791 m 1,36,-1
 773 865 l 1,37,-1
 702 865 l 1,38,-1
 646 791 l 1,39,-1
 700 791 l 1,36,-1
408 791 m 1,40,-1
 481 865 l 1,41,-1
 410 865 l 1,42,-1
 354 791 l 1,43,-1
 408 791 l 1,40,-1
EndSplineSet
EndChar

StartChar: atilde
Encoding: 227 227 151
Width: 1063
Flags: HMW
HStem: 0 45<31 131 176 252 298 397 31 131 803 902 947 1046> 325 45<298 902 298 902> 650 45<31 131 31 947 176 176 176 252 298 298 298 902> 746 45<354 408 354 431 646 700> 865 45<410 481 410 410 702 773 702 702>
VStem: 131 45<45 650 45 650> 252 46<45 325 370 650> 902 45<45 325 325 325 370 650 650 650>
LayerCount: 2
Fore
SplineSet
947 45 m 1,0,-1
 1046 45 l 1,1,-1
 1046 0 l 1,2,-1
 803 0 l 1,3,-1
 803 45 l 1,4,-1
 902 45 l 1,5,-1
 902 325 l 1,6,-1
 298 325 l 1,7,-1
 298 45 l 1,8,-1
 397 45 l 1,9,-1
 397 0 l 1,10,-1
 31 0 l 1,11,-1
 31 45 l 1,12,-1
 131 45 l 1,13,-1
 131 650 l 1,14,-1
 31 650 l 1,15,-1
 31 695 l 1,16,-1
 947 695 l 1,17,-1
 947 45 l 1,0,-1
252 45 m 1,18,-1
 252 650 l 1,19,-1
 176 650 l 1,20,-1
 176 45 l 1,21,-1
 252 45 l 1,18,-1
298 370 m 1,22,-1
 902 370 l 1,23,-1
 902 650 l 1,24,-1
 298 650 l 1,25,-1
 298 370 l 1,22,-1
879 910 m 1,26,-1
 723 746 l 1,27,-1
 589 746 l 1,28,-1
 522 841 l 1,29,-1
 431 746 l 1,30,-1
 264 746 l 1,31,-1
 388 910 l 1,32,-1
 528 910 l 1,33,-1
 601 807 l 1,34,-1
 680 910 l 1,35,-1
 879 910 l 1,26,-1
700 791 m 1,36,-1
 773 865 l 1,37,-1
 702 865 l 1,38,-1
 646 791 l 1,39,-1
 700 791 l 1,36,-1
408 791 m 1,40,-1
 481 865 l 1,41,-1
 410 865 l 1,42,-1
 354 791 l 1,43,-1
 408 791 l 1,40,-1
EndSplineSet
EndChar

StartChar: Adieresis
Encoding: 196 196 152
Width: 1063
Flags: HMW
HStem: 0 45<31 131 176 252 298 397 31 131 803 902 947 1046> 325 45<298 902 298 902> 650 45<31 131 31 947 176 176 176 252 298 298 298 902> 746 45<386 461 386 506 617 692> 843 45<386 461 386 386 617 617 617 692>
VStem: 131 45<45 650 45 650> 252 46<45 325 370 650> 341 45<791 843 791 888> 341 165<746 888 746 888> 572 165<746 888 746 888> 902 45<45 325 325 325 370 650 650 650>
LayerCount: 2
Fore
SplineSet
947 45 m 1,0,-1
 1046 45 l 1,1,-1
 1046 0 l 1,2,-1
 803 0 l 1,3,-1
 803 45 l 1,4,-1
 902 45 l 1,5,-1
 902 325 l 1,6,-1
 298 325 l 1,7,-1
 298 45 l 1,8,-1
 397 45 l 1,9,-1
 397 0 l 1,10,-1
 31 0 l 1,11,-1
 31 45 l 1,12,-1
 131 45 l 1,13,-1
 131 650 l 1,14,-1
 31 650 l 1,15,-1
 31 695 l 1,16,-1
 947 695 l 1,17,-1
 947 45 l 1,0,-1
252 45 m 1,18,-1
 252 650 l 1,19,-1
 176 650 l 1,20,-1
 176 45 l 1,21,-1
 252 45 l 1,18,-1
298 370 m 1,22,-1
 902 370 l 1,23,-1
 902 650 l 1,24,-1
 298 650 l 1,25,-1
 298 370 l 1,22,-1
506 888 m 1,26,-1
 506 746 l 1,27,-1
 341 746 l 1,28,-1
 341 888 l 1,29,-1
 506 888 l 1,26,-1
461 791 m 1,30,-1
 461 843 l 1,31,-1
 386 843 l 1,32,-1
 386 791 l 1,33,-1
 461 791 l 1,30,-1
737 888 m 1,34,-1
 737 746 l 1,35,-1
 572 746 l 1,36,-1
 572 888 l 1,37,-1
 737 888 l 1,34,-1
692 791 m 1,38,-1
 692 843 l 1,39,-1
 617 843 l 1,40,-1
 617 791 l 1,41,-1
 692 791 l 1,38,-1
EndSplineSet
EndChar

StartChar: adieresis
Encoding: 228 228 153
Width: 1063
Flags: HMW
HStem: 0 45<31 131 176 252 298 397 31 131 803 902 947 1046> 325 45<298 902 298 902> 650 45<31 131 31 947 176 176 176 252 298 298 298 902> 746 45<386 461 386 506 617 692> 843 45<386 461 386 386 617 617 617 692>
VStem: 131 45<45 650 45 650> 252 46<45 325 370 650> 341 45<791 843 791 888> 341 165<746 888 746 888> 572 165<746 888 746 888> 902 45<45 325 325 325 370 650 650 650>
LayerCount: 2
Fore
SplineSet
947 45 m 1,0,-1
 1046 45 l 1,1,-1
 1046 0 l 1,2,-1
 803 0 l 1,3,-1
 803 45 l 1,4,-1
 902 45 l 1,5,-1
 902 325 l 1,6,-1
 298 325 l 1,7,-1
 298 45 l 1,8,-1
 397 45 l 1,9,-1
 397 0 l 1,10,-1
 31 0 l 1,11,-1
 31 45 l 1,12,-1
 131 45 l 1,13,-1
 131 650 l 1,14,-1
 31 650 l 1,15,-1
 31 695 l 1,16,-1
 947 695 l 1,17,-1
 947 45 l 1,0,-1
252 45 m 1,18,-1
 252 650 l 1,19,-1
 176 650 l 1,20,-1
 176 45 l 1,21,-1
 252 45 l 1,18,-1
298 370 m 1,22,-1
 902 370 l 1,23,-1
 902 650 l 1,24,-1
 298 650 l 1,25,-1
 298 370 l 1,22,-1
506 888 m 1,26,-1
 506 746 l 1,27,-1
 341 746 l 1,28,-1
 341 888 l 1,29,-1
 506 888 l 1,26,-1
461 791 m 1,30,-1
 461 843 l 1,31,-1
 386 843 l 1,32,-1
 386 791 l 1,33,-1
 461 791 l 1,30,-1
737 888 m 1,34,-1
 737 746 l 1,35,-1
 572 746 l 1,36,-1
 572 888 l 1,37,-1
 737 888 l 1,34,-1
692 791 m 1,38,-1
 692 843 l 1,39,-1
 617 843 l 1,40,-1
 617 791 l 1,41,-1
 692 791 l 1,38,-1
EndSplineSet
EndChar

StartChar: Aring
Encoding: 197 197 154
Width: 1063
Flags: HMW
HStem: 0 45<31 131 176 252 298 397 31 131 803 902 947 1046> 325 45<298 902 298 902> 650 45<31 131 31 947 176 176 176 252 298 298 298 902> 746 45<475 598 475 643> 877 45<475 598 475 475>
VStem: 131 45<45 650 45 650> 252 46<45 325 370 650> 430 45<791 877 791 922> 598 45<791 877 877 877> 902 45<45 325 325 325 370 650 650 650>
LayerCount: 2
Fore
SplineSet
947 45 m 1,0,-1
 1046 45 l 1,1,-1
 1046 0 l 1,2,-1
 803 0 l 1,3,-1
 803 45 l 1,4,-1
 902 45 l 1,5,-1
 902 325 l 1,6,-1
 298 325 l 1,7,-1
 298 45 l 1,8,-1
 397 45 l 1,9,-1
 397 0 l 1,10,-1
 31 0 l 1,11,-1
 31 45 l 1,12,-1
 131 45 l 1,13,-1
 131 650 l 1,14,-1
 31 650 l 1,15,-1
 31 695 l 1,16,-1
 947 695 l 1,17,-1
 947 45 l 1,0,-1
252 45 m 1,18,-1
 252 650 l 1,19,-1
 176 650 l 1,20,-1
 176 45 l 1,21,-1
 252 45 l 1,18,-1
298 370 m 1,22,-1
 902 370 l 1,23,-1
 902 650 l 1,24,-1
 298 650 l 1,25,-1
 298 370 l 1,22,-1
643 922 m 1,26,-1
 643 746 l 1,27,-1
 430 746 l 1,28,-1
 430 922 l 1,29,-1
 643 922 l 1,26,-1
598 791 m 1,30,-1
 598 877 l 1,31,-1
 475 877 l 1,32,-1
 475 791 l 1,33,-1
 598 791 l 1,30,-1
EndSplineSet
EndChar

StartChar: aring
Encoding: 229 229 155
Width: 1063
Flags: HMW
HStem: 0 45<31 131 176 252 298 397 31 131 803 902 947 1046> 325 45<298 902 298 902> 650 45<31 131 31 947 176 176 176 252 298 298 298 902> 746 45<475 598 475 643> 877 45<475 598 475 475>
VStem: 131 45<45 650 45 650> 252 46<45 325 370 650> 430 45<791 877 791 922> 598 45<791 877 877 877> 902 45<45 325 325 325 370 650 650 650>
LayerCount: 2
Fore
SplineSet
947 45 m 1,0,-1
 1046 45 l 1,1,-1
 1046 0 l 1,2,-1
 803 0 l 1,3,-1
 803 45 l 1,4,-1
 902 45 l 1,5,-1
 902 325 l 1,6,-1
 298 325 l 1,7,-1
 298 45 l 1,8,-1
 397 45 l 1,9,-1
 397 0 l 1,10,-1
 31 0 l 1,11,-1
 31 45 l 1,12,-1
 131 45 l 1,13,-1
 131 650 l 1,14,-1
 31 650 l 1,15,-1
 31 695 l 1,16,-1
 947 695 l 1,17,-1
 947 45 l 1,0,-1
252 45 m 1,18,-1
 252 650 l 1,19,-1
 176 650 l 1,20,-1
 176 45 l 1,21,-1
 252 45 l 1,18,-1
298 370 m 1,22,-1
 902 370 l 1,23,-1
 902 650 l 1,24,-1
 298 650 l 1,25,-1
 298 370 l 1,22,-1
643 922 m 1,26,-1
 643 746 l 1,27,-1
 430 746 l 1,28,-1
 430 922 l 1,29,-1
 643 922 l 1,26,-1
598 791 m 1,30,-1
 598 877 l 1,31,-1
 475 877 l 1,32,-1
 475 791 l 1,33,-1
 598 791 l 1,30,-1
EndSplineSet
EndChar

StartChar: AE
Encoding: 198 198 156
Width: 1701
Flags: HMW
HStem: 0 45<-5 103 153 239 -5 103 736 835 880 957 1002 1607> 325 45<275 835 275 835 258 835 1002 1444> 650 45<380 835 380 380 880 880 880 957 1002 1607 1002 1002>
VStem: 835 45<45 325 325 325 370 650 45 650> 957 45<45 325 370 650> 1444 46<226 325 325 325 370 469 226 469> 1607 45<45 185 0 185 510 650 650 650>
CounterMasks: 1 e0
LayerCount: 2
Fore
SplineSet
1652 510 m 1,0,-1
 1607 510 l 1,1,-1
 1607 650 l 1,2,-1
 1002 650 l 1,3,-1
 1002 370 l 1,4,-1
 1444 370 l 1,5,-1
 1444 469 l 1,6,-1
 1490 469 l 1,7,-1
 1490 226 l 1,8,-1
 1444 226 l 1,9,-1
 1444 325 l 1,10,-1
 1002 325 l 1,11,-1
 1002 45 l 1,12,-1
 1607 45 l 1,13,-1
 1607 185 l 1,14,-1
 1652 185 l 1,15,-1
 1652 0 l 1,16,-1
 736 0 l 1,17,-1
 736 45 l 1,18,-1
 835 45 l 1,19,-1
 835 325 l 1,20,-1
 258 325 l 1,21,-1
 153 45 l 1,22,-1
 239 45 l 1,23,-1
 239 0 l 1,24,-1
 -5 0 l 1,25,-1
 -5 45 l 1,26,-1
 103 45 l 1,27,-1
 347 695 l 1,28,-1
 1652 695 l 1,29,-1
 1652 510 l 1,0,-1
275 370 m 1,30,-1
 835 370 l 1,31,-1
 835 650 l 1,32,-1
 380 650 l 1,33,-1
 275 370 l 1,30,-1
957 45 m 1,34,-1
 957 650 l 1,35,-1
 880 650 l 1,36,-1
 880 45 l 1,37,-1
 957 45 l 1,34,-1
EndSplineSet
EndChar

StartChar: ae
Encoding: 230 230 157
Width: 1701
Flags: HMW
HStem: 0 45<-5 103 153 239 -5 103 736 835 880 957 1002 1607> 325 45<275 835 275 835 258 835 1002 1444> 650 45<380 835 380 380 880 880 880 957 1002 1607 1002 1002>
VStem: 835 45<45 325 325 325 370 650 45 650> 957 45<45 325 370 650> 1444 46<226 325 325 325 370 469 226 469> 1607 45<45 185 0 185 510 650 650 650>
CounterMasks: 1 e0
LayerCount: 2
Fore
SplineSet
1652 510 m 1,0,-1
 1607 510 l 1,1,-1
 1607 650 l 1,2,-1
 1002 650 l 1,3,-1
 1002 370 l 1,4,-1
 1444 370 l 1,5,-1
 1444 469 l 1,6,-1
 1490 469 l 1,7,-1
 1490 226 l 1,8,-1
 1444 226 l 1,9,-1
 1444 325 l 1,10,-1
 1002 325 l 1,11,-1
 1002 45 l 1,12,-1
 1607 45 l 1,13,-1
 1607 185 l 1,14,-1
 1652 185 l 1,15,-1
 1652 0 l 1,16,-1
 736 0 l 1,17,-1
 736 45 l 1,18,-1
 835 45 l 1,19,-1
 835 325 l 1,20,-1
 258 325 l 1,21,-1
 153 45 l 1,22,-1
 239 45 l 1,23,-1
 239 0 l 1,24,-1
 -5 0 l 1,25,-1
 -5 45 l 1,26,-1
 103 45 l 1,27,-1
 347 695 l 1,28,-1
 1652 695 l 1,29,-1
 1652 510 l 1,0,-1
275 370 m 1,30,-1
 835 370 l 1,31,-1
 835 650 l 1,32,-1
 380 650 l 1,33,-1
 275 370 l 1,30,-1
957 45 m 1,34,-1
 957 650 l 1,35,-1
 880 650 l 1,36,-1
 880 45 l 1,37,-1
 957 45 l 1,34,-1
EndSplineSet
EndChar

StartChar: Ccedilla
Encoding: 199 199 158
Width: 951
Flags: HMW
HStem: -183 45<431 517 431 545> 0 45<32 131 177 253 298 452 32 131 504 504 504 589 640 855 640 640> 650 45<32 131 32 900 177 177 177 253 298 855 298 298>
VStem: 131 46<45 650 45 650> 253 45<45 650 45 650> 855 45<45 185 0 185 510 650 650 650>
LayerCount: 2
Fore
SplineSet
900 510 m 1,0,-1
 855 510 l 1,1,-1
 855 650 l 1,2,-1
 298 650 l 1,3,-1
 298 45 l 1,4,-1
 855 45 l 1,5,-1
 855 185 l 1,6,-1
 900 185 l 1,7,-1
 900 0 l 1,8,-1
 640 0 l 1,9,-1
 545 -183 l 1,10,-1
 357 -183 l 1,11,-1
 452 0 l 1,12,-1
 32 0 l 1,13,-1
 32 45 l 1,14,-1
 131 45 l 1,15,-1
 131 650 l 1,16,-1
 32 650 l 1,17,-1
 32 695 l 1,18,-1
 900 695 l 1,19,-1
 900 510 l 1,0,-1
253 45 m 1,20,-1
 253 650 l 1,21,-1
 177 650 l 1,22,-1
 177 45 l 1,23,-1
 253 45 l 1,20,-1
431 -138 m 1,24,-1
 517 -138 l 1,25,-1
 589 0 l 1,26,-1
 504 0 l 1,27,-1
 431 -138 l 1,24,-1
EndSplineSet
EndChar

StartChar: ccedilla
Encoding: 231 231 159
Width: 951
Flags: HMW
HStem: -183 45<431 517 431 545> 0 45<32 131 177 253 298 452 32 131 504 504 504 589 640 855 640 640> 650 45<32 131 32 900 177 177 177 253 298 855 298 298>
VStem: 131 46<45 650 45 650> 253 45<45 650 45 650> 855 45<45 185 0 185 510 650 650 650>
LayerCount: 2
Fore
SplineSet
900 510 m 1,0,-1
 855 510 l 1,1,-1
 855 650 l 1,2,-1
 298 650 l 1,3,-1
 298 45 l 1,4,-1
 855 45 l 1,5,-1
 855 185 l 1,6,-1
 900 185 l 1,7,-1
 900 0 l 1,8,-1
 640 0 l 1,9,-1
 545 -183 l 1,10,-1
 357 -183 l 1,11,-1
 452 0 l 1,12,-1
 32 0 l 1,13,-1
 32 45 l 1,14,-1
 131 45 l 1,15,-1
 131 650 l 1,16,-1
 32 650 l 1,17,-1
 32 695 l 1,18,-1
 900 695 l 1,19,-1
 900 510 l 1,0,-1
253 45 m 1,20,-1
 253 650 l 1,21,-1
 177 650 l 1,22,-1
 177 45 l 1,23,-1
 253 45 l 1,20,-1
431 -138 m 1,24,-1
 517 -138 l 1,25,-1
 589 0 l 1,26,-1
 504 0 l 1,27,-1
 431 -138 l 1,24,-1
EndSplineSet
EndChar

StartChar: Eth
Encoding: 208 208 160
Width: 1009
Flags: HMW
HStem: 0 45<33 132 178 254 299 805 33 132> 325 45<33 132 33 132 299 521> 650 45<33 132 33 805 178 178 178 254 299 299 299 805>
VStem: 33 145<0 650 45 650 325 370 370 370 45 695 45 695> 132 46<45 325 325 325 370 650 45 650> 254 45<45 325 370 650> 904 45<144 550>
CounterMasks: 1 e0
LayerCount: 2
Fore
SplineSet
805 695 m 2,0,1
 864 695 864 695 906.5 652.5 c 128,-1,2
 949 610 949 610 949 550 c 2,3,-1
 949 144 l 2,4,5
 949 85 949 85 906.5 42.5 c 128,-1,6
 864 0 864 0 805 0 c 2,7,-1
 33 0 l 1,8,-1
 33 45 l 1,9,-1
 132 45 l 1,10,-1
 132 325 l 1,11,-1
 33 325 l 1,12,-1
 33 370 l 1,13,-1
 132 370 l 1,14,-1
 132 650 l 1,15,-1
 33 650 l 1,16,-1
 33 695 l 1,17,-1
 805 695 l 2,0,1
254 45 m 1,18,-1
 254 650 l 1,19,-1
 178 650 l 1,20,-1
 178 45 l 1,21,-1
 254 45 l 1,18,-1
904 144 m 2,22,-1
 904 550 l 2,23,24
 904 591 904 591 875 620.5 c 128,-1,25
 846 650 846 650 805 650 c 2,26,-1
 299 650 l 1,27,-1
 299 370 l 1,28,-1
 521 370 l 1,29,-1
 521 325 l 1,30,-1
 299 325 l 1,31,-1
 299 45 l 1,32,-1
 805 45 l 2,33,34
 846 45 846 45 875 74.5 c 128,-1,35
 904 104 904 104 904 144 c 2,22,-1
EndSplineSet
EndChar

StartChar: eth
Encoding: 240 240 161
Width: 1009
Flags: HMW
HStem: 0 45<33 132 178 254 299 805 33 132> 325 45<33 132 33 132 299 521> 650 45<33 132 33 805 178 178 178 254 299 299 299 805>
VStem: 33 145<0 650 45 650 325 370 370 370 45 695 45 695> 132 46<45 325 325 325 370 650 45 650> 254 45<45 325 370 650> 904 45<144 550>
CounterMasks: 1 e0
LayerCount: 2
Fore
SplineSet
805 695 m 2,0,1
 864 695 864 695 906.5 652.5 c 128,-1,2
 949 610 949 610 949 550 c 2,3,-1
 949 144 l 2,4,5
 949 85 949 85 906.5 42.5 c 128,-1,6
 864 0 864 0 805 0 c 2,7,-1
 33 0 l 1,8,-1
 33 45 l 1,9,-1
 132 45 l 1,10,-1
 132 325 l 1,11,-1
 33 325 l 1,12,-1
 33 370 l 1,13,-1
 132 370 l 1,14,-1
 132 650 l 1,15,-1
 33 650 l 1,16,-1
 33 695 l 1,17,-1
 805 695 l 2,0,1
254 45 m 1,18,-1
 254 650 l 1,19,-1
 178 650 l 1,20,-1
 178 45 l 1,21,-1
 254 45 l 1,18,-1
904 144 m 2,22,-1
 904 550 l 2,23,24
 904 591 904 591 875 620.5 c 128,-1,25
 846 650 846 650 805 650 c 2,26,-1
 299 650 l 1,27,-1
 299 370 l 1,28,-1
 521 370 l 1,29,-1
 521 325 l 1,30,-1
 299 325 l 1,31,-1
 299 45 l 1,32,-1
 805 45 l 2,33,34
 846 45 846 45 875 74.5 c 128,-1,35
 904 104 904 104 904 144 c 2,22,-1
EndSplineSet
EndChar

StartChar: Egrave
Encoding: 200 200 162
Width: 997
Flags: HMW
HStem: 0 45<32 131 176 253 298 903 32 131> 325 45<298 740 298 740> 650 45<32 131 32 948 176 176 176 253 298 903 298 298> 746 164<492 535 336 659 492 492> 865 45<442 442 442 513>
VStem: 131 45<45 650 45 650> 253 45<45 325 370 650> 740 46<226 325 325 325 370 469 226 469> 903 45<45 185 0 185 510 650 650 650>
LayerCount: 2
Fore
SplineSet
948 510 m 1,0,-1
 903 510 l 1,1,-1
 903 650 l 1,2,-1
 298 650 l 1,3,-1
 298 370 l 1,4,-1
 740 370 l 1,5,-1
 740 469 l 1,6,-1
 786 469 l 1,7,-1
 786 226 l 1,8,-1
 740 226 l 1,9,-1
 740 325 l 1,10,-1
 298 325 l 1,11,-1
 298 45 l 1,12,-1
 903 45 l 1,13,-1
 903 185 l 1,14,-1
 948 185 l 1,15,-1
 948 0 l 1,16,-1
 32 0 l 1,17,-1
 32 45 l 1,18,-1
 131 45 l 1,19,-1
 131 650 l 1,20,-1
 32 650 l 1,21,-1
 32 695 l 1,22,-1
 948 695 l 1,23,-1
 948 510 l 1,0,-1
253 45 m 1,24,-1
 253 650 l 1,25,-1
 176 650 l 1,26,-1
 176 45 l 1,27,-1
 253 45 l 1,24,-1
336 910 m 1,28,-1
 535 910 l 1,29,-1
 659 746 l 1,30,-1
 492 746 l 1,31,-1
 336 910 l 1,28,-1
442 865 m 1,32,-1
 515 791 l 1,33,-1
 569 791 l 1,34,-1
 513 865 l 1,35,-1
 442 865 l 1,32,-1
EndSplineSet
EndChar

StartChar: egrave
Encoding: 232 232 163
Width: 997
Flags: HMW
HStem: 0 45<32 131 176 253 298 903 32 131> 325 45<298 740 298 740> 650 45<32 131 32 948 176 176 176 253 298 903 298 298> 746 164<492 535 336 659 492 492> 865 45<442 442 442 513>
VStem: 131 45<45 650 45 650> 253 45<45 325 370 650> 740 46<226 325 325 325 370 469 226 469> 903 45<45 185 0 185 510 650 650 650>
LayerCount: 2
Fore
SplineSet
948 510 m 1,0,-1
 903 510 l 1,1,-1
 903 650 l 1,2,-1
 298 650 l 1,3,-1
 298 370 l 1,4,-1
 740 370 l 1,5,-1
 740 469 l 1,6,-1
 786 469 l 1,7,-1
 786 226 l 1,8,-1
 740 226 l 1,9,-1
 740 325 l 1,10,-1
 298 325 l 1,11,-1
 298 45 l 1,12,-1
 903 45 l 1,13,-1
 903 185 l 1,14,-1
 948 185 l 1,15,-1
 948 0 l 1,16,-1
 32 0 l 1,17,-1
 32 45 l 1,18,-1
 131 45 l 1,19,-1
 131 650 l 1,20,-1
 32 650 l 1,21,-1
 32 695 l 1,22,-1
 948 695 l 1,23,-1
 948 510 l 1,0,-1
253 45 m 1,24,-1
 253 650 l 1,25,-1
 176 650 l 1,26,-1
 176 45 l 1,27,-1
 253 45 l 1,24,-1
336 910 m 1,28,-1
 535 910 l 1,29,-1
 659 746 l 1,30,-1
 492 746 l 1,31,-1
 336 910 l 1,28,-1
442 865 m 1,32,-1
 515 791 l 1,33,-1
 569 791 l 1,34,-1
 513 865 l 1,35,-1
 442 865 l 1,32,-1
EndSplineSet
EndChar

StartChar: Eacute
Encoding: 201 201 164
Width: 997
Flags: HMW
HStem: 0 45<32 131 176 253 298 903 32 131> 325 45<298 740 298 740> 650 45<32 131 32 948 176 176 176 253 298 903 298 298> 746 164<510 553 386 709> 865 45<532 603 532 532>
VStem: 131 45<45 650 45 650> 253 45<45 325 370 650> 740 46<226 325 325 325 370 469 226 469> 903 45<45 185 0 185 510 650 650 650>
LayerCount: 2
Fore
SplineSet
948 510 m 1,0,-1
 903 510 l 1,1,-1
 903 650 l 1,2,-1
 298 650 l 1,3,-1
 298 370 l 1,4,-1
 740 370 l 1,5,-1
 740 469 l 1,6,-1
 786 469 l 1,7,-1
 786 226 l 1,8,-1
 740 226 l 1,9,-1
 740 325 l 1,10,-1
 298 325 l 1,11,-1
 298 45 l 1,12,-1
 903 45 l 1,13,-1
 903 185 l 1,14,-1
 948 185 l 1,15,-1
 948 0 l 1,16,-1
 32 0 l 1,17,-1
 32 45 l 1,18,-1
 131 45 l 1,19,-1
 131 650 l 1,20,-1
 32 650 l 1,21,-1
 32 695 l 1,22,-1
 948 695 l 1,23,-1
 948 510 l 1,0,-1
253 45 m 1,24,-1
 253 650 l 1,25,-1
 176 650 l 1,26,-1
 176 45 l 1,27,-1
 253 45 l 1,24,-1
510 910 m 1,28,-1
 709 910 l 1,29,-1
 553 746 l 1,30,-1
 386 746 l 1,31,-1
 510 910 l 1,28,-1
530 791 m 1,32,-1
 603 865 l 1,33,-1
 532 865 l 1,34,-1
 476 791 l 1,35,-1
 530 791 l 1,32,-1
EndSplineSet
EndChar

StartChar: eacute
Encoding: 233 233 165
Width: 997
Flags: HMW
HStem: 0 45<32 131 176 253 298 903 32 131> 325 45<298 740 298 740> 650 45<32 131 32 948 176 176 176 253 298 903 298 298> 746 164<510 553 386 709> 865 45<532 603 532 532>
VStem: 131 45<45 650 45 650> 253 45<45 325 370 650> 740 46<226 325 325 325 370 469 226 469> 903 45<45 185 0 185 510 650 650 650>
LayerCount: 2
Fore
SplineSet
948 510 m 1,0,-1
 903 510 l 1,1,-1
 903 650 l 1,2,-1
 298 650 l 1,3,-1
 298 370 l 1,4,-1
 740 370 l 1,5,-1
 740 469 l 1,6,-1
 786 469 l 1,7,-1
 786 226 l 1,8,-1
 740 226 l 1,9,-1
 740 325 l 1,10,-1
 298 325 l 1,11,-1
 298 45 l 1,12,-1
 903 45 l 1,13,-1
 903 185 l 1,14,-1
 948 185 l 1,15,-1
 948 0 l 1,16,-1
 32 0 l 1,17,-1
 32 45 l 1,18,-1
 131 45 l 1,19,-1
 131 650 l 1,20,-1
 32 650 l 1,21,-1
 32 695 l 1,22,-1
 948 695 l 1,23,-1
 948 510 l 1,0,-1
253 45 m 1,24,-1
 253 650 l 1,25,-1
 176 650 l 1,26,-1
 176 45 l 1,27,-1
 253 45 l 1,24,-1
510 910 m 1,28,-1
 709 910 l 1,29,-1
 553 746 l 1,30,-1
 386 746 l 1,31,-1
 510 910 l 1,28,-1
530 791 m 1,32,-1
 603 865 l 1,33,-1
 532 865 l 1,34,-1
 476 791 l 1,35,-1
 530 791 l 1,32,-1
EndSplineSet
EndChar

StartChar: Ecircumflex
Encoding: 202 202 166
Width: 997
Flags: HMW
HStem: 0 45<32 131 176 253 298 903 32 131> 325 45<298 740 298 740> 650 45<32 131 32 948 176 176 176 253 298 903 298 298> 746 164<431 474 307 571 431 688 431 632> 865 45<453 524 453 453>
VStem: 131 45<45 650 45 650> 253 45<45 325 370 650> 740 46<226 325 325 325 370 469 226 469> 903 45<45 185 0 185 510 650 650 650>
LayerCount: 2
Fore
SplineSet
948 510 m 1,0,-1
 903 510 l 1,1,-1
 903 650 l 1,2,-1
 298 650 l 1,3,-1
 298 370 l 1,4,-1
 740 370 l 1,5,-1
 740 469 l 1,6,-1
 786 469 l 1,7,-1
 786 226 l 1,8,-1
 740 226 l 1,9,-1
 740 325 l 1,10,-1
 298 325 l 1,11,-1
 298 45 l 1,12,-1
 903 45 l 1,13,-1
 903 185 l 1,14,-1
 948 185 l 1,15,-1
 948 0 l 1,16,-1
 32 0 l 1,17,-1
 32 45 l 1,18,-1
 131 45 l 1,19,-1
 131 650 l 1,20,-1
 32 650 l 1,21,-1
 32 695 l 1,22,-1
 948 695 l 1,23,-1
 948 510 l 1,0,-1
253 45 m 1,24,-1
 253 650 l 1,25,-1
 176 650 l 1,26,-1
 176 45 l 1,27,-1
 253 45 l 1,24,-1
571 910 m 1,28,-1
 688 746 l 1,29,-1
 632 746 l 1,30,-1
 565 841 l 1,31,-1
 474 746 l 1,32,-1
 307 746 l 1,33,-1
 431 910 l 1,34,-1
 571 910 l 1,28,-1
451 791 m 1,35,-1
 524 865 l 1,36,-1
 453 865 l 1,37,-1
 397 791 l 1,38,-1
 451 791 l 1,35,-1
EndSplineSet
EndChar

StartChar: ecircumflex
Encoding: 234 234 167
Width: 997
Flags: HMW
HStem: 0 45<32 131 176 253 298 903 32 131> 325 45<298 740 298 740> 650 45<32 131 32 948 176 176 176 253 298 903 298 298> 746 164<431 474 307 571 431 688 431 632> 865 45<453 524 453 453>
VStem: 131 45<45 650 45 650> 253 45<45 325 370 650> 740 46<226 325 325 325 370 469 226 469> 903 45<45 185 0 185 510 650 650 650>
LayerCount: 2
Fore
SplineSet
948 510 m 1,0,-1
 903 510 l 1,1,-1
 903 650 l 1,2,-1
 298 650 l 1,3,-1
 298 370 l 1,4,-1
 740 370 l 1,5,-1
 740 469 l 1,6,-1
 786 469 l 1,7,-1
 786 226 l 1,8,-1
 740 226 l 1,9,-1
 740 325 l 1,10,-1
 298 325 l 1,11,-1
 298 45 l 1,12,-1
 903 45 l 1,13,-1
 903 185 l 1,14,-1
 948 185 l 1,15,-1
 948 0 l 1,16,-1
 32 0 l 1,17,-1
 32 45 l 1,18,-1
 131 45 l 1,19,-1
 131 650 l 1,20,-1
 32 650 l 1,21,-1
 32 695 l 1,22,-1
 948 695 l 1,23,-1
 948 510 l 1,0,-1
253 45 m 1,24,-1
 253 650 l 1,25,-1
 176 650 l 1,26,-1
 176 45 l 1,27,-1
 253 45 l 1,24,-1
571 910 m 1,28,-1
 688 746 l 1,29,-1
 632 746 l 1,30,-1
 565 841 l 1,31,-1
 474 746 l 1,32,-1
 307 746 l 1,33,-1
 431 910 l 1,34,-1
 571 910 l 1,28,-1
451 791 m 1,35,-1
 524 865 l 1,36,-1
 453 865 l 1,37,-1
 397 791 l 1,38,-1
 451 791 l 1,35,-1
EndSplineSet
EndChar

StartChar: Edieresis
Encoding: 203 203 168
Width: 997
Flags: HMW
HStem: 0 45<32 131 176 253 298 903 32 131> 325 45<298 740 298 740> 650 45<32 131 32 948 176 176 176 253 298 903 298 298> 746 45<370 445 370 490 601 676> 843 45<370 445 370 370 601 601 601 676>
VStem: 131 45<45 650 45 650> 253 45<45 325 370 650> 325 165<746 888 746 888> 556 165<746 888 746 888> 740 46<226 325 325 325 370 469 226 469> 903 45<45 185 0 185 510 650 650 650>
LayerCount: 2
Fore
SplineSet
948 510 m 1,0,-1
 903 510 l 1,1,-1
 903 650 l 1,2,-1
 298 650 l 1,3,-1
 298 370 l 1,4,-1
 740 370 l 1,5,-1
 740 469 l 1,6,-1
 786 469 l 1,7,-1
 786 226 l 1,8,-1
 740 226 l 1,9,-1
 740 325 l 1,10,-1
 298 325 l 1,11,-1
 298 45 l 1,12,-1
 903 45 l 1,13,-1
 903 185 l 1,14,-1
 948 185 l 1,15,-1
 948 0 l 1,16,-1
 32 0 l 1,17,-1
 32 45 l 1,18,-1
 131 45 l 1,19,-1
 131 650 l 1,20,-1
 32 650 l 1,21,-1
 32 695 l 1,22,-1
 948 695 l 1,23,-1
 948 510 l 1,0,-1
253 45 m 1,24,-1
 253 650 l 1,25,-1
 176 650 l 1,26,-1
 176 45 l 1,27,-1
 253 45 l 1,24,-1
490 888 m 1,28,-1
 490 746 l 1,29,-1
 325 746 l 1,30,-1
 325 888 l 1,31,-1
 490 888 l 1,28,-1
445 791 m 1,32,-1
 445 843 l 1,33,-1
 370 843 l 1,34,-1
 370 791 l 1,35,-1
 445 791 l 1,32,-1
721 888 m 1,36,-1
 721 746 l 1,37,-1
 556 746 l 1,38,-1
 556 888 l 1,39,-1
 721 888 l 1,36,-1
676 791 m 1,40,-1
 676 843 l 1,41,-1
 601 843 l 1,42,-1
 601 791 l 1,43,-1
 676 791 l 1,40,-1
EndSplineSet
EndChar

StartChar: edieresis
Encoding: 235 235 169
Width: 997
Flags: HMW
HStem: 0 45<32 131 176 253 298 903 32 131> 325 45<298 740 298 740> 650 45<32 131 32 948 176 176 176 253 298 903 298 298> 746 45<370 445 370 490 601 676> 843 45<370 445 370 370 601 601 601 676>
VStem: 131 45<45 650 45 650> 253 45<45 325 370 650> 325 165<746 888 746 888> 556 165<746 888 746 888> 740 46<226 325 325 325 370 469 226 469> 903 45<45 185 0 185 510 650 650 650>
LayerCount: 2
Fore
SplineSet
948 510 m 1,0,-1
 903 510 l 1,1,-1
 903 650 l 1,2,-1
 298 650 l 1,3,-1
 298 370 l 1,4,-1
 740 370 l 1,5,-1
 740 469 l 1,6,-1
 786 469 l 1,7,-1
 786 226 l 1,8,-1
 740 226 l 1,9,-1
 740 325 l 1,10,-1
 298 325 l 1,11,-1
 298 45 l 1,12,-1
 903 45 l 1,13,-1
 903 185 l 1,14,-1
 948 185 l 1,15,-1
 948 0 l 1,16,-1
 32 0 l 1,17,-1
 32 45 l 1,18,-1
 131 45 l 1,19,-1
 131 650 l 1,20,-1
 32 650 l 1,21,-1
 32 695 l 1,22,-1
 948 695 l 1,23,-1
 948 510 l 1,0,-1
253 45 m 1,24,-1
 253 650 l 1,25,-1
 176 650 l 1,26,-1
 176 45 l 1,27,-1
 253 45 l 1,24,-1
490 888 m 1,28,-1
 490 746 l 1,29,-1
 325 746 l 1,30,-1
 325 888 l 1,31,-1
 490 888 l 1,28,-1
445 791 m 1,32,-1
 445 843 l 1,33,-1
 370 843 l 1,34,-1
 370 791 l 1,35,-1
 445 791 l 1,32,-1
721 888 m 1,36,-1
 721 746 l 1,37,-1
 556 746 l 1,38,-1
 556 888 l 1,39,-1
 721 888 l 1,36,-1
676 791 m 1,40,-1
 676 843 l 1,41,-1
 601 843 l 1,42,-1
 601 791 l 1,43,-1
 676 791 l 1,40,-1
EndSplineSet
EndChar

StartChar: Igrave
Encoding: 204 204 170
Width: 565
Flags: HMW
HStem: 0 45<19 199 244 321 366 546 19 199> 650 45<19 199 19 546 244 244 244 321 366 546 366 366> 746 164<246 289 90 413 246 246> 865 45<196 196 196 267>
VStem: 199 45<45 650 45 650> 321 45<45 650 45 650>
LayerCount: 2
Fore
SplineSet
546 650 m 1,0,-1
 366 650 l 1,1,-1
 366 45 l 1,2,-1
 546 45 l 1,3,-1
 546 0 l 1,4,-1
 19 0 l 1,5,-1
 19 45 l 1,6,-1
 199 45 l 1,7,-1
 199 650 l 1,8,-1
 19 650 l 1,9,-1
 19 695 l 1,10,-1
 546 695 l 1,11,-1
 546 650 l 1,0,-1
321 45 m 1,12,-1
 321 650 l 1,13,-1
 244 650 l 1,14,-1
 244 45 l 1,15,-1
 321 45 l 1,12,-1
90 910 m 1,16,-1
 289 910 l 1,17,-1
 413 746 l 1,18,-1
 246 746 l 1,19,-1
 90 910 l 1,16,-1
196 865 m 1,20,-1
 269 791 l 1,21,-1
 323 791 l 1,22,-1
 267 865 l 1,23,-1
 196 865 l 1,20,-1
EndSplineSet
EndChar

StartChar: igrave
Encoding: 236 236 171
Width: 565
Flags: HMW
HStem: 0 45<19 199 244 321 366 546 19 199> 650 45<19 199 19 546 244 244 244 321 366 546 366 366> 746 164<246 289 90 413 246 246> 865 45<196 196 196 267>
VStem: 199 45<45 650 45 650> 321 45<45 650 45 650>
LayerCount: 2
Fore
SplineSet
546 650 m 1,0,-1
 366 650 l 1,1,-1
 366 45 l 1,2,-1
 546 45 l 1,3,-1
 546 0 l 1,4,-1
 19 0 l 1,5,-1
 19 45 l 1,6,-1
 199 45 l 1,7,-1
 199 650 l 1,8,-1
 19 650 l 1,9,-1
 19 695 l 1,10,-1
 546 695 l 1,11,-1
 546 650 l 1,0,-1
321 45 m 1,12,-1
 321 650 l 1,13,-1
 244 650 l 1,14,-1
 244 45 l 1,15,-1
 321 45 l 1,12,-1
90 910 m 1,16,-1
 289 910 l 1,17,-1
 413 746 l 1,18,-1
 246 746 l 1,19,-1
 90 910 l 1,16,-1
196 865 m 1,20,-1
 269 791 l 1,21,-1
 323 791 l 1,22,-1
 267 865 l 1,23,-1
 196 865 l 1,20,-1
EndSplineSet
EndChar

StartChar: Iacute
Encoding: 205 205 172
Width: 565
Flags: HMW
HStem: 0 45<19 199 244 321 366 546 19 199> 650 45<19 199 19 546 244 244 244 321 366 546 366 366> 746 164<276 319 152 475> 865 45<298 369 298 298>
VStem: 199 45<45 650 45 650> 321 45<45 650 45 650>
LayerCount: 2
Fore
SplineSet
546 650 m 1,0,-1
 366 650 l 1,1,-1
 366 45 l 1,2,-1
 546 45 l 1,3,-1
 546 0 l 1,4,-1
 19 0 l 1,5,-1
 19 45 l 1,6,-1
 199 45 l 1,7,-1
 199 650 l 1,8,-1
 19 650 l 1,9,-1
 19 695 l 1,10,-1
 546 695 l 1,11,-1
 546 650 l 1,0,-1
321 45 m 1,12,-1
 321 650 l 1,13,-1
 244 650 l 1,14,-1
 244 45 l 1,15,-1
 321 45 l 1,12,-1
276 910 m 1,16,-1
 475 910 l 1,17,-1
 319 746 l 1,18,-1
 152 746 l 1,19,-1
 276 910 l 1,16,-1
296 791 m 1,20,-1
 369 865 l 1,21,-1
 298 865 l 1,22,-1
 242 791 l 1,23,-1
 296 791 l 1,20,-1
EndSplineSet
EndChar

StartChar: iacute
Encoding: 237 237 173
Width: 565
Flags: HMW
HStem: 0 45<19 199 244 321 366 546 19 199> 650 45<19 199 19 546 244 244 244 321 366 546 366 366> 746 164<276 319 152 475> 865 45<298 369 298 298>
VStem: 199 45<45 650 45 650> 321 45<45 650 45 650>
LayerCount: 2
Fore
SplineSet
546 650 m 1,0,-1
 366 650 l 1,1,-1
 366 45 l 1,2,-1
 546 45 l 1,3,-1
 546 0 l 1,4,-1
 19 0 l 1,5,-1
 19 45 l 1,6,-1
 199 45 l 1,7,-1
 199 650 l 1,8,-1
 19 650 l 1,9,-1
 19 695 l 1,10,-1
 546 695 l 1,11,-1
 546 650 l 1,0,-1
321 45 m 1,12,-1
 321 650 l 1,13,-1
 244 650 l 1,14,-1
 244 45 l 1,15,-1
 321 45 l 1,12,-1
276 910 m 1,16,-1
 475 910 l 1,17,-1
 319 746 l 1,18,-1
 152 746 l 1,19,-1
 276 910 l 1,16,-1
296 791 m 1,20,-1
 369 865 l 1,21,-1
 298 865 l 1,22,-1
 242 791 l 1,23,-1
 296 791 l 1,20,-1
EndSplineSet
EndChar

StartChar: Icircumflex
Encoding: 206 206 174
Width: 565
Flags: HMW
HStem: 0 45<19 199 244 321 366 546 19 199> 650 45<19 199 19 546 244 244 244 321 366 546 366 366> 746 164<207 250 83 347 207 464 207 408> 865 45<229 300 229 229>
VStem: 199 45<45 650 45 650> 321 45<45 650 45 650>
LayerCount: 2
Fore
SplineSet
546 650 m 1,0,-1
 366 650 l 1,1,-1
 366 45 l 1,2,-1
 546 45 l 1,3,-1
 546 0 l 1,4,-1
 19 0 l 1,5,-1
 19 45 l 1,6,-1
 199 45 l 1,7,-1
 199 650 l 1,8,-1
 19 650 l 1,9,-1
 19 695 l 1,10,-1
 546 695 l 1,11,-1
 546 650 l 1,0,-1
321 45 m 1,12,-1
 321 650 l 1,13,-1
 244 650 l 1,14,-1
 244 45 l 1,15,-1
 321 45 l 1,12,-1
347 910 m 1,16,-1
 464 746 l 1,17,-1
 408 746 l 1,18,-1
 341 841 l 1,19,-1
 250 746 l 1,20,-1
 83 746 l 1,21,-1
 207 910 l 1,22,-1
 347 910 l 1,16,-1
227 791 m 1,23,-1
 300 865 l 1,24,-1
 229 865 l 1,25,-1
 173 791 l 1,26,-1
 227 791 l 1,23,-1
EndSplineSet
EndChar

StartChar: icircumflex
Encoding: 238 238 175
Width: 565
Flags: HMW
HStem: 0 45<19 199 244 321 366 546 19 199> 650 45<19 199 19 546 244 244 244 321 366 546 366 366> 746 164<207 250 83 347 207 464 207 408> 865 45<229 300 229 229>
VStem: 199 45<45 650 45 650> 321 45<45 650 45 650>
LayerCount: 2
Fore
SplineSet
546 650 m 1,0,-1
 366 650 l 1,1,-1
 366 45 l 1,2,-1
 546 45 l 1,3,-1
 546 0 l 1,4,-1
 19 0 l 1,5,-1
 19 45 l 1,6,-1
 199 45 l 1,7,-1
 199 650 l 1,8,-1
 19 650 l 1,9,-1
 19 695 l 1,10,-1
 546 695 l 1,11,-1
 546 650 l 1,0,-1
321 45 m 1,12,-1
 321 650 l 1,13,-1
 244 650 l 1,14,-1
 244 45 l 1,15,-1
 321 45 l 1,12,-1
347 910 m 1,16,-1
 464 746 l 1,17,-1
 408 746 l 1,18,-1
 341 841 l 1,19,-1
 250 746 l 1,20,-1
 83 746 l 1,21,-1
 207 910 l 1,22,-1
 347 910 l 1,16,-1
227 791 m 1,23,-1
 300 865 l 1,24,-1
 229 865 l 1,25,-1
 173 791 l 1,26,-1
 227 791 l 1,23,-1
EndSplineSet
EndChar

StartChar: Idieresis
Encoding: 207 207 176
Width: 565
Flags: HMW
HStem: 0 45<19 199 244 321 366 546 19 199> 650 45<19 199 19 546 244 244 244 321 366 546 366 366> 746 45<129 204 129 249 360 435> 843 45<129 204 129 129 360 360 360 435>
VStem: 84 160<45 888> 199 45<45 650 45 650> 321 45<45 650 45 650> 321 159<45 888 650 888>
LayerCount: 2
Fore
SplineSet
546 650 m 1,0,-1
 366 650 l 1,1,-1
 366 45 l 1,2,-1
 546 45 l 1,3,-1
 546 0 l 1,4,-1
 19 0 l 1,5,-1
 19 45 l 1,6,-1
 199 45 l 1,7,-1
 199 650 l 1,8,-1
 19 650 l 1,9,-1
 19 695 l 1,10,-1
 546 695 l 1,11,-1
 546 650 l 1,0,-1
321 45 m 1,12,-1
 321 650 l 1,13,-1
 244 650 l 1,14,-1
 244 45 l 1,15,-1
 321 45 l 1,12,-1
249 888 m 1,16,-1
 249 746 l 1,17,-1
 84 746 l 1,18,-1
 84 888 l 1,19,-1
 249 888 l 1,16,-1
204 791 m 1,20,-1
 204 843 l 1,21,-1
 129 843 l 1,22,-1
 129 791 l 1,23,-1
 204 791 l 1,20,-1
480 888 m 1,24,-1
 480 746 l 1,25,-1
 315 746 l 1,26,-1
 315 888 l 1,27,-1
 480 888 l 1,24,-1
435 791 m 1,28,-1
 435 843 l 1,29,-1
 360 843 l 1,30,-1
 360 791 l 1,31,-1
 435 791 l 1,28,-1
EndSplineSet
EndChar

StartChar: idieresis
Encoding: 239 239 177
Width: 565
Flags: HMW
HStem: 0 45<19 199 244 321 366 546 19 199> 650 45<19 199 19 546 244 244 244 321 366 546 366 366> 746 45<129 204 129 249 360 435> 843 45<129 204 129 129 360 360 360 435>
VStem: 84 160<45 888> 199 45<45 650 45 650> 321 45<45 650 45 650> 321 159<45 888 650 888>
LayerCount: 2
Fore
SplineSet
546 650 m 1,0,-1
 366 650 l 1,1,-1
 366 45 l 1,2,-1
 546 45 l 1,3,-1
 546 0 l 1,4,-1
 19 0 l 1,5,-1
 19 45 l 1,6,-1
 199 45 l 1,7,-1
 199 650 l 1,8,-1
 19 650 l 1,9,-1
 19 695 l 1,10,-1
 546 695 l 1,11,-1
 546 650 l 1,0,-1
321 45 m 1,12,-1
 321 650 l 1,13,-1
 244 650 l 1,14,-1
 244 45 l 1,15,-1
 321 45 l 1,12,-1
249 888 m 1,16,-1
 249 746 l 1,17,-1
 84 746 l 1,18,-1
 84 888 l 1,19,-1
 249 888 l 1,16,-1
204 791 m 1,20,-1
 204 843 l 1,21,-1
 129 843 l 1,22,-1
 129 791 l 1,23,-1
 204 791 l 1,20,-1
480 888 m 1,24,-1
 480 746 l 1,25,-1
 315 746 l 1,26,-1
 315 888 l 1,27,-1
 480 888 l 1,24,-1
435 791 m 1,28,-1
 435 843 l 1,29,-1
 360 843 l 1,30,-1
 360 791 l 1,31,-1
 435 791 l 1,28,-1
EndSplineSet
EndChar

StartChar: Ntilde
Encoding: 209 209 178
Width: 1119
Flags: HMW
HStem: 0 45<32 131 176 253 298 397 32 131 866 943 988 1087> 650 45<32 131 32 286 176 176 176 253 722 821 866 866 866 943 988 1087 988 988> 746 45<352 406 352 429 644 698> 865 45<408 479 408 408 700 771 700 700>
VStem: 131 45<45 650> 253 45<45 612 45 650 45 650> 821 45<83 650 45 650> 943 45<45 650 45 650>
LayerCount: 2
Fore
SplineSet
1087 650 m 1,0,-1
 988 650 l 1,1,-1
 988 45 l 1,2,-1
 1087 45 l 1,3,-1
 1087 0 l 1,4,-1
 834 0 l 1,5,-1
 298 612 l 1,6,-1
 298 45 l 1,7,-1
 397 45 l 1,8,-1
 397 0 l 1,9,-1
 32 0 l 1,10,-1
 32 45 l 1,11,-1
 131 45 l 1,12,-1
 131 650 l 1,13,-1
 32 650 l 1,14,-1
 32 695 l 1,15,-1
 286 695 l 1,16,-1
 821 83 l 1,17,-1
 821 650 l 1,18,-1
 722 650 l 1,19,-1
 722 695 l 1,20,-1
 1087 695 l 1,21,-1
 1087 650 l 1,0,-1
176 45 m 1,22,-1
 253 45 l 1,23,-1
 253 650 l 1,24,-1
 176 650 l 1,25,-1
 176 45 l 1,22,-1
943 45 m 1,26,-1
 943 650 l 1,27,-1
 866 650 l 1,28,-1
 866 45 l 1,29,-1
 943 45 l 1,26,-1
877 910 m 1,30,-1
 721 746 l 1,31,-1
 587 746 l 1,32,-1
 520 841 l 1,33,-1
 429 746 l 1,34,-1
 262 746 l 1,35,-1
 386 910 l 1,36,-1
 526 910 l 1,37,-1
 599 807 l 1,38,-1
 678 910 l 1,39,-1
 877 910 l 1,30,-1
698 791 m 1,40,-1
 771 865 l 1,41,-1
 700 865 l 1,42,-1
 644 791 l 1,43,-1
 698 791 l 1,40,-1
406 791 m 1,44,-1
 479 865 l 1,45,-1
 408 865 l 1,46,-1
 352 791 l 1,47,-1
 406 791 l 1,44,-1
EndSplineSet
EndChar

StartChar: ntilde
Encoding: 241 241 179
Width: 1119
Flags: HMW
HStem: 0 45<32 131 176 253 298 397 32 131 866 943 988 1087> 650 45<32 131 32 286 176 176 176 253 722 821 866 866 866 943 988 1087 988 988> 746 45<352 406 352 429 644 698> 865 45<408 479 408 408 700 771 700 700>
VStem: 131 45<45 650> 253 45<45 612 45 650 45 650> 821 45<83 650 45 650> 943 45<45 650 45 650>
LayerCount: 2
Fore
SplineSet
1087 650 m 1,0,-1
 988 650 l 1,1,-1
 988 45 l 1,2,-1
 1087 45 l 1,3,-1
 1087 0 l 1,4,-1
 834 0 l 1,5,-1
 298 612 l 1,6,-1
 298 45 l 1,7,-1
 397 45 l 1,8,-1
 397 0 l 1,9,-1
 32 0 l 1,10,-1
 32 45 l 1,11,-1
 131 45 l 1,12,-1
 131 650 l 1,13,-1
 32 650 l 1,14,-1
 32 695 l 1,15,-1
 286 695 l 1,16,-1
 821 83 l 1,17,-1
 821 650 l 1,18,-1
 722 650 l 1,19,-1
 722 695 l 1,20,-1
 1087 695 l 1,21,-1
 1087 650 l 1,0,-1
176 45 m 1,22,-1
 253 45 l 1,23,-1
 253 650 l 1,24,-1
 176 650 l 1,25,-1
 176 45 l 1,22,-1
943 45 m 1,26,-1
 943 650 l 1,27,-1
 866 650 l 1,28,-1
 866 45 l 1,29,-1
 943 45 l 1,26,-1
877 910 m 1,30,-1
 721 746 l 1,31,-1
 587 746 l 1,32,-1
 520 841 l 1,33,-1
 429 746 l 1,34,-1
 262 746 l 1,35,-1
 386 910 l 1,36,-1
 526 910 l 1,37,-1
 599 807 l 1,38,-1
 678 910 l 1,39,-1
 877 910 l 1,30,-1
698 791 m 1,40,-1
 771 865 l 1,41,-1
 700 865 l 1,42,-1
 644 791 l 1,43,-1
 698 791 l 1,40,-1
406 791 m 1,44,-1
 479 865 l 1,45,-1
 408 865 l 1,46,-1
 352 791 l 1,47,-1
 406 791 l 1,44,-1
EndSplineSet
EndChar

StartChar: Ograve
Encoding: 210 210 180
Width: 946
Flags: HMW
HStem: 0 45<110 187 232 836> 650 45<110 187 110 110 232 232 232 836> 746 164<466 509 310 633 466 466> 865 45<416 416 416 487>
VStem: 65 45<45 45 45 650> 187 45<45 650 45 650> 836 45<45 650 650 650>
LayerCount: 2
Fore
SplineSet
65 695 m 1,0,-1
 881 695 l 1,1,-1
 881 0 l 1,2,-1
 65 0 l 1,3,-1
 65 695 l 1,0,-1
110 45 m 1,4,-1
 187 45 l 1,5,-1
 187 650 l 1,6,-1
 110 650 l 1,7,-1
 110 45 l 1,4,-1
836 45 m 1,8,-1
 836 650 l 1,9,-1
 232 650 l 1,10,-1
 232 45 l 1,11,-1
 836 45 l 1,8,-1
310 910 m 1,12,-1
 509 910 l 1,13,-1
 633 746 l 1,14,-1
 466 746 l 1,15,-1
 310 910 l 1,12,-1
416 865 m 1,16,-1
 489 791 l 1,17,-1
 543 791 l 1,18,-1
 487 865 l 1,19,-1
 416 865 l 1,16,-1
EndSplineSet
EndChar

StartChar: ograve
Encoding: 242 242 181
Width: 946
Flags: HMW
HStem: 0 45<110 187 232 836> 650 45<110 187 110 110 232 232 232 836> 746 164<466 509 310 633 466 466> 865 45<416 416 416 487>
VStem: 65 45<45 45 45 650> 187 45<45 650 45 650> 836 45<45 650 650 650>
LayerCount: 2
Fore
SplineSet
65 695 m 1,0,-1
 881 695 l 1,1,-1
 881 0 l 1,2,-1
 65 0 l 1,3,-1
 65 695 l 1,0,-1
110 45 m 1,4,-1
 187 45 l 1,5,-1
 187 650 l 1,6,-1
 110 650 l 1,7,-1
 110 45 l 1,4,-1
836 45 m 1,8,-1
 836 650 l 1,9,-1
 232 650 l 1,10,-1
 232 45 l 1,11,-1
 836 45 l 1,8,-1
310 910 m 1,12,-1
 509 910 l 1,13,-1
 633 746 l 1,14,-1
 466 746 l 1,15,-1
 310 910 l 1,12,-1
416 865 m 1,16,-1
 489 791 l 1,17,-1
 543 791 l 1,18,-1
 487 865 l 1,19,-1
 416 865 l 1,16,-1
EndSplineSet
EndChar

StartChar: Oacute
Encoding: 211 211 182
Width: 946
Flags: HMW
HStem: 0 45<110 187 232 836> 650 45<110 187 110 110 232 232 232 836> 746 164<478 521 354 677> 865 45<500 571 500 500>
VStem: 65 45<45 45 45 650> 187 45<45 650 45 650> 836 45<45 650 650 650>
LayerCount: 2
Fore
SplineSet
65 695 m 1,0,-1
 881 695 l 1,1,-1
 881 0 l 1,2,-1
 65 0 l 1,3,-1
 65 695 l 1,0,-1
110 45 m 1,4,-1
 187 45 l 1,5,-1
 187 650 l 1,6,-1
 110 650 l 1,7,-1
 110 45 l 1,4,-1
836 45 m 1,8,-1
 836 650 l 1,9,-1
 232 650 l 1,10,-1
 232 45 l 1,11,-1
 836 45 l 1,8,-1
478 910 m 1,12,-1
 677 910 l 1,13,-1
 521 746 l 1,14,-1
 354 746 l 1,15,-1
 478 910 l 1,12,-1
498 791 m 1,16,-1
 571 865 l 1,17,-1
 500 865 l 1,18,-1
 444 791 l 1,19,-1
 498 791 l 1,16,-1
EndSplineSet
EndChar

StartChar: oacute
Encoding: 243 243 183
Width: 946
Flags: HMW
HStem: 0 45<110 187 232 836> 650 45<110 187 110 110 232 232 232 836> 746 164<478 521 354 677> 865 45<500 571 500 500>
VStem: 65 45<45 45 45 650> 187 45<45 650 45 650> 836 45<45 650 650 650>
LayerCount: 2
Fore
SplineSet
65 695 m 1,0,-1
 881 695 l 1,1,-1
 881 0 l 1,2,-1
 65 0 l 1,3,-1
 65 695 l 1,0,-1
110 45 m 1,4,-1
 187 45 l 1,5,-1
 187 650 l 1,6,-1
 110 650 l 1,7,-1
 110 45 l 1,4,-1
836 45 m 1,8,-1
 836 650 l 1,9,-1
 232 650 l 1,10,-1
 232 45 l 1,11,-1
 836 45 l 1,8,-1
478 910 m 1,12,-1
 677 910 l 1,13,-1
 521 746 l 1,14,-1
 354 746 l 1,15,-1
 478 910 l 1,12,-1
498 791 m 1,16,-1
 571 865 l 1,17,-1
 500 865 l 1,18,-1
 444 791 l 1,19,-1
 498 791 l 1,16,-1
EndSplineSet
EndChar

StartChar: Ocircumflex
Encoding: 212 212 184
Width: 946
Flags: HMW
HStem: 0 45<110 187 232 836> 650 45<110 187 110 110 232 232 232 836> 746 164<422 465 298 562 422 679 422 623> 865 45<444 515 444 444>
VStem: 65 45<45 45 45 650> 187 45<45 650 45 650> 836 45<45 650 650 650>
LayerCount: 2
Fore
SplineSet
65 695 m 1,0,-1
 881 695 l 1,1,-1
 881 0 l 1,2,-1
 65 0 l 1,3,-1
 65 695 l 1,0,-1
110 45 m 1,4,-1
 187 45 l 1,5,-1
 187 650 l 1,6,-1
 110 650 l 1,7,-1
 110 45 l 1,4,-1
836 45 m 1,8,-1
 836 650 l 1,9,-1
 232 650 l 1,10,-1
 232 45 l 1,11,-1
 836 45 l 1,8,-1
562 910 m 1,12,-1
 679 746 l 1,13,-1
 623 746 l 1,14,-1
 556 841 l 1,15,-1
 465 746 l 1,16,-1
 298 746 l 1,17,-1
 422 910 l 1,18,-1
 562 910 l 1,12,-1
442 791 m 1,19,-1
 515 865 l 1,20,-1
 444 865 l 1,21,-1
 388 791 l 1,22,-1
 442 791 l 1,19,-1
EndSplineSet
EndChar

StartChar: ocircumflex
Encoding: 244 244 185
Width: 946
Flags: HMW
HStem: 0 45<110 187 232 836> 650 45<110 187 110 110 232 232 232 836> 746 164<422 465 298 562 422 679 422 623> 865 45<444 515 444 444>
VStem: 65 45<45 45 45 650> 187 45<45 650 45 650> 836 45<45 650 650 650>
LayerCount: 2
Fore
SplineSet
65 695 m 1,0,-1
 881 695 l 1,1,-1
 881 0 l 1,2,-1
 65 0 l 1,3,-1
 65 695 l 1,0,-1
110 45 m 1,4,-1
 187 45 l 1,5,-1
 187 650 l 1,6,-1
 110 650 l 1,7,-1
 110 45 l 1,4,-1
836 45 m 1,8,-1
 836 650 l 1,9,-1
 232 650 l 1,10,-1
 232 45 l 1,11,-1
 836 45 l 1,8,-1
562 910 m 1,12,-1
 679 746 l 1,13,-1
 623 746 l 1,14,-1
 556 841 l 1,15,-1
 465 746 l 1,16,-1
 298 746 l 1,17,-1
 422 910 l 1,18,-1
 562 910 l 1,12,-1
442 791 m 1,19,-1
 515 865 l 1,20,-1
 444 865 l 1,21,-1
 388 791 l 1,22,-1
 442 791 l 1,19,-1
EndSplineSet
EndChar

StartChar: Otilde
Encoding: 213 213 186
Width: 946
Flags: HMW
HStem: 0 45<110 187 232 836> 650 45<110 187 110 110 232 232 232 836> 746 45<296 350 296 373 588 642> 865 45<352 423 352 352 644 715 644 644>
VStem: 65 45<45 45 45 650> 187 45<45 650 45 650> 836 45<45 650 650 650>
LayerCount: 2
Fore
SplineSet
65 695 m 1,0,-1
 881 695 l 1,1,-1
 881 0 l 1,2,-1
 65 0 l 1,3,-1
 65 695 l 1,0,-1
110 45 m 1,4,-1
 187 45 l 1,5,-1
 187 650 l 1,6,-1
 110 650 l 1,7,-1
 110 45 l 1,4,-1
836 45 m 1,8,-1
 836 650 l 1,9,-1
 232 650 l 1,10,-1
 232 45 l 1,11,-1
 836 45 l 1,8,-1
821 910 m 1,12,-1
 665 746 l 1,13,-1
 531 746 l 1,14,-1
 464 841 l 1,15,-1
 373 746 l 1,16,-1
 206 746 l 1,17,-1
 330 910 l 1,18,-1
 470 910 l 1,19,-1
 543 807 l 1,20,-1
 622 910 l 1,21,-1
 821 910 l 1,12,-1
642 791 m 1,22,-1
 715 865 l 1,23,-1
 644 865 l 1,24,-1
 588 791 l 1,25,-1
 642 791 l 1,22,-1
350 791 m 1,26,-1
 423 865 l 1,27,-1
 352 865 l 1,28,-1
 296 791 l 1,29,-1
 350 791 l 1,26,-1
EndSplineSet
EndChar

StartChar: otilde
Encoding: 245 245 187
Width: 946
Flags: HMW
HStem: 0 45<110 187 232 836> 650 45<110 187 110 110 232 232 232 836> 746 45<296 350 296 373 588 642> 865 45<352 423 352 352 644 715 644 644>
VStem: 65 45<45 45 45 650> 187 45<45 650 45 650> 836 45<45 650 650 650>
LayerCount: 2
Fore
SplineSet
65 695 m 1,0,-1
 881 695 l 1,1,-1
 881 0 l 1,2,-1
 65 0 l 1,3,-1
 65 695 l 1,0,-1
110 45 m 1,4,-1
 187 45 l 1,5,-1
 187 650 l 1,6,-1
 110 650 l 1,7,-1
 110 45 l 1,4,-1
836 45 m 1,8,-1
 836 650 l 1,9,-1
 232 650 l 1,10,-1
 232 45 l 1,11,-1
 836 45 l 1,8,-1
821 910 m 1,12,-1
 665 746 l 1,13,-1
 531 746 l 1,14,-1
 464 841 l 1,15,-1
 373 746 l 1,16,-1
 206 746 l 1,17,-1
 330 910 l 1,18,-1
 470 910 l 1,19,-1
 543 807 l 1,20,-1
 622 910 l 1,21,-1
 821 910 l 1,12,-1
642 791 m 1,22,-1
 715 865 l 1,23,-1
 644 865 l 1,24,-1
 588 791 l 1,25,-1
 642 791 l 1,22,-1
350 791 m 1,26,-1
 423 865 l 1,27,-1
 352 865 l 1,28,-1
 296 791 l 1,29,-1
 350 791 l 1,26,-1
EndSplineSet
EndChar

StartChar: Odieresis
Encoding: 214 214 188
Width: 946
Flags: HMW
HStem: 0 45<110 187 232 836> 650 45<110 187 110 110 232 232 232 836> 746 45<335 410 335 455 566 641> 843 45<335 410 335 335 566 566 566 641>
VStem: 65 45<45 45 45 650> 187 45<45 650 45 650> 290 165<746 888 746 888> 521 165<746 888 746 888> 836 45<45 650 650 650>
LayerCount: 2
Fore
SplineSet
65 695 m 1,0,-1
 881 695 l 1,1,-1
 881 0 l 1,2,-1
 65 0 l 1,3,-1
 65 695 l 1,0,-1
110 45 m 1,4,-1
 187 45 l 1,5,-1
 187 650 l 1,6,-1
 110 650 l 1,7,-1
 110 45 l 1,4,-1
836 45 m 1,8,-1
 836 650 l 1,9,-1
 232 650 l 1,10,-1
 232 45 l 1,11,-1
 836 45 l 1,8,-1
455 888 m 1,12,-1
 455 746 l 1,13,-1
 290 746 l 1,14,-1
 290 888 l 1,15,-1
 455 888 l 1,12,-1
410 791 m 1,16,-1
 410 843 l 1,17,-1
 335 843 l 1,18,-1
 335 791 l 1,19,-1
 410 791 l 1,16,-1
686 888 m 1,20,-1
 686 746 l 1,21,-1
 521 746 l 1,22,-1
 521 888 l 1,23,-1
 686 888 l 1,20,-1
641 791 m 1,24,-1
 641 843 l 1,25,-1
 566 843 l 1,26,-1
 566 791 l 1,27,-1
 641 791 l 1,24,-1
EndSplineSet
EndChar

StartChar: odieresis
Encoding: 246 246 189
Width: 946
Flags: HMW
HStem: 0 45<110 187 232 836> 650 45<110 187 110 110 232 232 232 836> 746 45<335 410 335 455 566 641> 843 45<335 410 335 335 566 566 566 641>
VStem: 65 45<45 45 45 650> 187 45<45 650 45 650> 290 165<746 888 746 888> 521 165<746 888 746 888> 836 45<45 650 650 650>
LayerCount: 2
Fore
SplineSet
65 695 m 1,0,-1
 881 695 l 1,1,-1
 881 0 l 1,2,-1
 65 0 l 1,3,-1
 65 695 l 1,0,-1
110 45 m 1,4,-1
 187 45 l 1,5,-1
 187 650 l 1,6,-1
 110 650 l 1,7,-1
 110 45 l 1,4,-1
836 45 m 1,8,-1
 836 650 l 1,9,-1
 232 650 l 1,10,-1
 232 45 l 1,11,-1
 836 45 l 1,8,-1
455 888 m 1,12,-1
 455 746 l 1,13,-1
 290 746 l 1,14,-1
 290 888 l 1,15,-1
 455 888 l 1,12,-1
410 791 m 1,16,-1
 410 843 l 1,17,-1
 335 843 l 1,18,-1
 335 791 l 1,19,-1
 410 791 l 1,16,-1
686 888 m 1,20,-1
 686 746 l 1,21,-1
 521 746 l 1,22,-1
 521 888 l 1,23,-1
 686 888 l 1,20,-1
641 791 m 1,24,-1
 641 843 l 1,25,-1
 566 843 l 1,26,-1
 566 791 l 1,27,-1
 641 791 l 1,24,-1
EndSplineSet
EndChar

StartChar: OE
Encoding: 338 338 190
Width: 1703
Flags: HMW
HStem: 0 45<111 188 233 837 882 959 1004 1609> 325 45<1004 1446 1004 1446> 650 45<111 188 111 111 233 233 233 837 882 882 882 959 1004 1609 1004 1004>
VStem: 66 45<45 45 45 650> 188 45<45 650 45 650> 837 45<45 650 45 650> 959 45<45 325 370 650> 1446 46<226 325 325 325 370 469 226 469> 1609 45<45 185 0 185 510 650 650 650>
CounterMasks: 1 e0
LayerCount: 2
Fore
SplineSet
1654 510 m 1,0,-1
 1609 510 l 1,1,-1
 1609 650 l 1,2,-1
 1004 650 l 1,3,-1
 1004 370 l 1,4,-1
 1446 370 l 1,5,-1
 1446 469 l 1,6,-1
 1492 469 l 1,7,-1
 1492 226 l 1,8,-1
 1446 226 l 1,9,-1
 1446 325 l 1,10,-1
 1004 325 l 1,11,-1
 1004 45 l 1,12,-1
 1609 45 l 1,13,-1
 1609 185 l 1,14,-1
 1654 185 l 1,15,-1
 1654 0 l 1,16,-1
 66 0 l 1,17,-1
 66 695 l 1,18,-1
 1654 695 l 1,19,-1
 1654 510 l 1,0,-1
233 650 m 1,20,-1
 233 45 l 1,21,-1
 837 45 l 1,22,-1
 837 650 l 1,23,-1
 233 650 l 1,20,-1
959 45 m 1,24,-1
 959 650 l 1,25,-1
 882 650 l 1,26,-1
 882 45 l 1,27,-1
 959 45 l 1,24,-1
111 45 m 1,28,-1
 188 45 l 1,29,-1
 188 650 l 1,30,-1
 111 650 l 1,31,-1
 111 45 l 1,28,-1
EndSplineSet
EndChar

StartChar: oe
Encoding: 339 339 191
Width: 1703
Flags: HMW
HStem: 0 45<111 188 233 837 882 959 1004 1609> 325 45<1004 1446 1004 1446> 650 45<111 188 111 111 233 233 233 837 882 882 882 959 1004 1609 1004 1004>
VStem: 66 45<45 45 45 650> 188 45<45 650 45 650> 837 45<45 650 45 650> 959 45<45 325 370 650> 1446 46<226 325 325 325 370 469 226 469> 1609 45<45 185 0 185 510 650 650 650>
CounterMasks: 1 e0
LayerCount: 2
Fore
SplineSet
1654 510 m 1,0,-1
 1609 510 l 1,1,-1
 1609 650 l 1,2,-1
 1004 650 l 1,3,-1
 1004 370 l 1,4,-1
 1446 370 l 1,5,-1
 1446 469 l 1,6,-1
 1492 469 l 1,7,-1
 1492 226 l 1,8,-1
 1446 226 l 1,9,-1
 1446 325 l 1,10,-1
 1004 325 l 1,11,-1
 1004 45 l 1,12,-1
 1609 45 l 1,13,-1
 1609 185 l 1,14,-1
 1654 185 l 1,15,-1
 1654 0 l 1,16,-1
 66 0 l 1,17,-1
 66 695 l 1,18,-1
 1654 695 l 1,19,-1
 1654 510 l 1,0,-1
233 650 m 1,20,-1
 233 45 l 1,21,-1
 837 45 l 1,22,-1
 837 650 l 1,23,-1
 233 650 l 1,20,-1
959 45 m 1,24,-1
 959 650 l 1,25,-1
 882 650 l 1,26,-1
 882 45 l 1,27,-1
 959 45 l 1,24,-1
111 45 m 1,28,-1
 188 45 l 1,29,-1
 188 650 l 1,30,-1
 111 650 l 1,31,-1
 111 45 l 1,28,-1
EndSplineSet
EndChar

StartChar: Oslash
Encoding: 216 216 192
Width: 976
Flags: HMW
HStem: -129 21G<94 94> 0 45<111 160 269 837 111 224> 650 45<111 111 111 188 233 813 233 233> 755 20G<939 939>
VStem: 66 45<45 650 45 695> 188 45<73 650 73 650 73 650> 837 45<45 611 611 611>
LayerCount: 2
Fore
SplineSet
882 655 m 1,0,-1
 882 0 l 1,1,-1
 224 0 l 1,2,-1
 94 -129 l 1,3,-1
 62 -97 l 1,4,-1
 160 0 l 1,5,-1
 66 0 l 1,6,-1
 66 695 l 1,7,-1
 858 695 l 1,8,-1
 939 775 l 1,9,-1
 970 743 l 1,10,-1
 882 655 l 1,0,-1
111 650 m 1,11,-1
 111 45 l 1,12,-1
 188 45 l 1,13,-1
 188 650 l 1,14,-1
 111 650 l 1,11,-1
233 650 m 1,15,-1
 233 73 l 1,16,-1
 813 650 l 1,17,-1
 233 650 l 1,15,-1
269 45 m 1,18,-1
 837 45 l 1,19,-1
 837 611 l 1,20,-1
 269 45 l 1,18,-1
EndSplineSet
EndChar

StartChar: oslash
Encoding: 248 248 193
Width: 976
Flags: HMW
HStem: -129 21G<94 94> 0 45<111 160 269 837 111 224> 650 45<111 111 111 188 233 813 233 233> 755 20G<939 939>
VStem: 66 45<45 650 45 695> 188 45<73 650 73 650 73 650> 837 45<45 611 611 611>
LayerCount: 2
Fore
SplineSet
882 655 m 1,0,-1
 882 0 l 1,1,-1
 224 0 l 1,2,-1
 94 -129 l 1,3,-1
 62 -97 l 1,4,-1
 160 0 l 1,5,-1
 66 0 l 1,6,-1
 66 695 l 1,7,-1
 858 695 l 1,8,-1
 939 775 l 1,9,-1
 970 743 l 1,10,-1
 882 655 l 1,0,-1
111 650 m 1,11,-1
 111 45 l 1,12,-1
 188 45 l 1,13,-1
 188 650 l 1,14,-1
 111 650 l 1,11,-1
233 650 m 1,15,-1
 233 73 l 1,16,-1
 813 650 l 1,17,-1
 233 650 l 1,15,-1
269 45 m 1,18,-1
 837 45 l 1,19,-1
 837 611 l 1,20,-1
 269 45 l 1,18,-1
EndSplineSet
EndChar

StartChar: Thorn
Encoding: 222 222 194
Width: 963
Flags: HMW
HStem: 0 45<32 131 177 253 298 398 32 131> 176 45<298 872 298 917 298 872> 501 45<298 917 298 872> 650 45<32 131 32 397 177 177 177 253 298 298 298 397>
VStem: 131 46<45 650 45 650> 253 45<45 176 221 501 546 650> 872 45<221 501 501 501>
LayerCount: 2
Fore
SplineSet
917 176 m 1,0,-1
 298 176 l 1,1,-1
 298 45 l 1,2,-1
 398 45 l 1,3,-1
 398 0 l 1,4,-1
 32 0 l 1,5,-1
 32 45 l 1,6,-1
 131 45 l 1,7,-1
 131 650 l 1,8,-1
 32 650 l 1,9,-1
 32 695 l 1,10,-1
 397 695 l 1,11,-1
 397 650 l 1,12,-1
 298 650 l 1,13,-1
 298 546 l 1,14,-1
 917 546 l 1,15,-1
 917 176 l 1,0,-1
253 45 m 1,16,-1
 253 650 l 1,17,-1
 177 650 l 1,18,-1
 177 45 l 1,19,-1
 253 45 l 1,16,-1
298 501 m 1,20,-1
 298 221 l 1,21,-1
 872 221 l 1,22,-1
 872 501 l 1,23,-1
 298 501 l 1,20,-1
EndSplineSet
EndChar

StartChar: thorn
Encoding: 254 254 195
Width: 963
Flags: HMW
HStem: 0 45<32 131 177 253 298 398 32 131> 176 45<298 872 298 917 298 872> 501 45<298 917 298 872> 650 45<32 131 32 397 177 177 177 253 298 298 298 397>
VStem: 131 46<45 650 45 650> 253 45<45 176 221 501 546 650> 872 45<221 501 501 501>
LayerCount: 2
Fore
SplineSet
917 176 m 1,0,-1
 298 176 l 1,1,-1
 298 45 l 1,2,-1
 398 45 l 1,3,-1
 398 0 l 1,4,-1
 32 0 l 1,5,-1
 32 45 l 1,6,-1
 131 45 l 1,7,-1
 131 650 l 1,8,-1
 32 650 l 1,9,-1
 32 695 l 1,10,-1
 397 695 l 1,11,-1
 397 650 l 1,12,-1
 298 650 l 1,13,-1
 298 546 l 1,14,-1
 917 546 l 1,15,-1
 917 176 l 1,0,-1
253 45 m 1,16,-1
 253 650 l 1,17,-1
 177 650 l 1,18,-1
 177 45 l 1,19,-1
 253 45 l 1,16,-1
298 501 m 1,20,-1
 298 221 l 1,21,-1
 872 221 l 1,22,-1
 872 501 l 1,23,-1
 298 501 l 1,20,-1
EndSplineSet
EndChar

StartChar: Scaron
Encoding: 352 352 196
Width: 940
Flags: HMW
HStem: 0 45<107 711 756 833> 325 45<107 183 229 711 756 756 756 833> 650 45<107 183 107 107 229 833 229 229> 741 45<465 536 465 558> 741 164<301 418 515 558>
VStem: 62 45<45 185 45 185 45 185 370 650> 183 46<370 650 370 650> 711 45<45 325 45 325> 833 45<45 325 325 325 510 650 650 650>
LayerCount: 2
Fore
SplineSet
418 741 m 1,0,-1
 301 905 l 1,1,-1
 357 905 l 1,2,-1
 424 810 l 1,3,-1
 515 905 l 1,4,-1
 682 905 l 1,5,-1
 558 741 l 1,6,-1
 418 741 l 1,0,-1
538 860 m 1,7,-1
 465 786 l 1,8,-1
 536 786 l 1,9,-1
 592 860 l 1,10,-1
 538 860 l 1,7,-1
62 695 m 1,11,-1
 878 695 l 1,12,-1
 878 510 l 1,13,-1
 833 510 l 1,14,-1
 833 650 l 1,15,-1
 229 650 l 1,16,-1
 229 370 l 1,17,-1
 878 370 l 1,18,-1
 878 0 l 1,19,-1
 62 0 l 1,20,-1
 62 185 l 1,21,-1
 107 185 l 1,22,-1
 107 45 l 1,23,-1
 711 45 l 1,24,-1
 711 325 l 1,25,-1
 62 325 l 1,26,-1
 62 695 l 1,11,-1
833 325 m 1,27,-1
 756 325 l 1,28,-1
 756 45 l 1,29,-1
 833 45 l 1,30,-1
 833 325 l 1,27,-1
183 370 m 1,31,-1
 183 650 l 1,32,-1
 107 650 l 1,33,-1
 107 370 l 1,34,-1
 183 370 l 1,31,-1
EndSplineSet
EndChar

StartChar: scaron
Encoding: 353 353 197
Width: 940
Flags: HMW
HStem: 0 45<107 711 756 833> 325 45<107 183 229 711 756 756 756 833> 650 45<107 183 107 107 229 833 229 229> 741 45<465 536 465 558> 741 164<301 418 515 558>
VStem: 62 45<45 185 45 185 45 185 370 650> 183 46<370 650 370 650> 711 45<45 325 45 325> 833 45<45 325 325 325 510 650 650 650>
LayerCount: 2
Fore
SplineSet
418 741 m 1,0,-1
 301 905 l 1,1,-1
 357 905 l 1,2,-1
 424 810 l 1,3,-1
 515 905 l 1,4,-1
 682 905 l 1,5,-1
 558 741 l 1,6,-1
 418 741 l 1,0,-1
538 860 m 1,7,-1
 465 786 l 1,8,-1
 536 786 l 1,9,-1
 592 860 l 1,10,-1
 538 860 l 1,7,-1
62 695 m 1,11,-1
 878 695 l 1,12,-1
 878 510 l 1,13,-1
 833 510 l 1,14,-1
 833 650 l 1,15,-1
 229 650 l 1,16,-1
 229 370 l 1,17,-1
 878 370 l 1,18,-1
 878 0 l 1,19,-1
 62 0 l 1,20,-1
 62 185 l 1,21,-1
 107 185 l 1,22,-1
 107 45 l 1,23,-1
 711 45 l 1,24,-1
 711 325 l 1,25,-1
 62 325 l 1,26,-1
 62 695 l 1,11,-1
833 325 m 1,27,-1
 756 325 l 1,28,-1
 756 45 l 1,29,-1
 833 45 l 1,30,-1
 833 325 l 1,27,-1
183 370 m 1,31,-1
 183 650 l 1,32,-1
 107 650 l 1,33,-1
 107 370 l 1,34,-1
 183 370 l 1,31,-1
EndSplineSet
EndChar

StartChar: Ugrave
Encoding: 217 217 198
Width: 1063
Flags: HMW
HStem: 0 45<32 131 176 253 298 903 32 131> 650 45<32 131 32 397 176 176 176 253 298 298 298 397 803 903 948 1047 948 948> 746 164<534 577 378 701 534 534> 865 45<484 484 484 555>
VStem: 131 45<45 650 45 650> 253 45<45 650 45 650> 903 45<45 650 0 650>
LayerCount: 2
Fore
SplineSet
1047 695 m 1,0,-1
 1047 650 l 1,1,-1
 948 650 l 1,2,-1
 948 0 l 1,3,-1
 32 0 l 1,4,-1
 32 45 l 1,5,-1
 131 45 l 1,6,-1
 131 650 l 1,7,-1
 32 650 l 1,8,-1
 32 695 l 1,9,-1
 397 695 l 1,10,-1
 397 650 l 1,11,-1
 298 650 l 1,12,-1
 298 45 l 1,13,-1
 903 45 l 1,14,-1
 903 650 l 1,15,-1
 803 650 l 1,16,-1
 803 695 l 1,17,-1
 1047 695 l 1,0,-1
253 45 m 1,18,-1
 253 650 l 1,19,-1
 176 650 l 1,20,-1
 176 45 l 1,21,-1
 253 45 l 1,18,-1
378 910 m 1,22,-1
 577 910 l 1,23,-1
 701 746 l 1,24,-1
 534 746 l 1,25,-1
 378 910 l 1,22,-1
484 865 m 1,26,-1
 557 791 l 1,27,-1
 611 791 l 1,28,-1
 555 865 l 1,29,-1
 484 865 l 1,26,-1
EndSplineSet
EndChar

StartChar: ugrave
Encoding: 249 249 199
Width: 1063
Flags: HMW
HStem: 0 45<32 131 176 253 298 903 32 131> 650 45<32 131 32 397 176 176 176 253 298 298 298 397 803 903 948 1047 948 948> 746 164<534 577 378 701 534 534> 865 45<484 484 484 555>
VStem: 131 45<45 650 45 650> 253 45<45 650 45 650> 903 45<45 650 0 650>
LayerCount: 2
Fore
SplineSet
1047 695 m 1,0,-1
 1047 650 l 1,1,-1
 948 650 l 1,2,-1
 948 0 l 1,3,-1
 32 0 l 1,4,-1
 32 45 l 1,5,-1
 131 45 l 1,6,-1
 131 650 l 1,7,-1
 32 650 l 1,8,-1
 32 695 l 1,9,-1
 397 695 l 1,10,-1
 397 650 l 1,11,-1
 298 650 l 1,12,-1
 298 45 l 1,13,-1
 903 45 l 1,14,-1
 903 650 l 1,15,-1
 803 650 l 1,16,-1
 803 695 l 1,17,-1
 1047 695 l 1,0,-1
253 45 m 1,18,-1
 253 650 l 1,19,-1
 176 650 l 1,20,-1
 176 45 l 1,21,-1
 253 45 l 1,18,-1
378 910 m 1,22,-1
 577 910 l 1,23,-1
 701 746 l 1,24,-1
 534 746 l 1,25,-1
 378 910 l 1,22,-1
484 865 m 1,26,-1
 557 791 l 1,27,-1
 611 791 l 1,28,-1
 555 865 l 1,29,-1
 484 865 l 1,26,-1
EndSplineSet
EndChar

StartChar: Uacute
Encoding: 218 218 200
Width: 1063
Flags: HMW
HStem: 0 45<32 131 176 253 298 903 32 131> 650 45<32 131 32 397 176 176 176 253 298 298 298 397 803 903 948 1047 948 948> 746 164<556 599 432 755> 865 45<578 649 578 578>
VStem: 131 45<45 650 45 650> 253 45<45 650 45 650> 903 45<45 650 0 650>
LayerCount: 2
Fore
SplineSet
1047 695 m 1,0,-1
 1047 650 l 1,1,-1
 948 650 l 1,2,-1
 948 0 l 1,3,-1
 32 0 l 1,4,-1
 32 45 l 1,5,-1
 131 45 l 1,6,-1
 131 650 l 1,7,-1
 32 650 l 1,8,-1
 32 695 l 1,9,-1
 397 695 l 1,10,-1
 397 650 l 1,11,-1
 298 650 l 1,12,-1
 298 45 l 1,13,-1
 903 45 l 1,14,-1
 903 650 l 1,15,-1
 803 650 l 1,16,-1
 803 695 l 1,17,-1
 1047 695 l 1,0,-1
253 45 m 1,18,-1
 253 650 l 1,19,-1
 176 650 l 1,20,-1
 176 45 l 1,21,-1
 253 45 l 1,18,-1
556 910 m 1,22,-1
 755 910 l 1,23,-1
 599 746 l 1,24,-1
 432 746 l 1,25,-1
 556 910 l 1,22,-1
576 791 m 1,26,-1
 649 865 l 1,27,-1
 578 865 l 1,28,-1
 522 791 l 1,29,-1
 576 791 l 1,26,-1
EndSplineSet
EndChar

StartChar: uacute
Encoding: 250 250 201
Width: 1063
Flags: HMW
HStem: 0 45<32 131 176 253 298 903 32 131> 650 45<32 131 32 397 176 176 176 253 298 298 298 397 803 903 948 1047 948 948> 746 164<556 599 432 755> 865 45<578 649 578 578>
VStem: 131 45<45 650 45 650> 253 45<45 650 45 650> 903 45<45 650 0 650>
LayerCount: 2
Fore
SplineSet
1047 695 m 1,0,-1
 1047 650 l 1,1,-1
 948 650 l 1,2,-1
 948 0 l 1,3,-1
 32 0 l 1,4,-1
 32 45 l 1,5,-1
 131 45 l 1,6,-1
 131 650 l 1,7,-1
 32 650 l 1,8,-1
 32 695 l 1,9,-1
 397 695 l 1,10,-1
 397 650 l 1,11,-1
 298 650 l 1,12,-1
 298 45 l 1,13,-1
 903 45 l 1,14,-1
 903 650 l 1,15,-1
 803 650 l 1,16,-1
 803 695 l 1,17,-1
 1047 695 l 1,0,-1
253 45 m 1,18,-1
 253 650 l 1,19,-1
 176 650 l 1,20,-1
 176 45 l 1,21,-1
 253 45 l 1,18,-1
556 910 m 1,22,-1
 755 910 l 1,23,-1
 599 746 l 1,24,-1
 432 746 l 1,25,-1
 556 910 l 1,22,-1
576 791 m 1,26,-1
 649 865 l 1,27,-1
 578 865 l 1,28,-1
 522 791 l 1,29,-1
 576 791 l 1,26,-1
EndSplineSet
EndChar

StartChar: Ucircumflex
Encoding: 219 219 202
Width: 1063
Flags: HMW
HStem: 0 45<32 131 176 253 298 903 32 131> 650 45<32 131 32 397 176 176 176 253 298 298 298 397 803 903 948 1047 948 948> 746 164<487 530 363 627 487 744 487 688> 865 45<509 580 509 509>
VStem: 131 45<45 650 45 650> 253 45<45 650 45 650> 903 45<45 650 0 650>
LayerCount: 2
Fore
SplineSet
1047 695 m 1,0,-1
 1047 650 l 1,1,-1
 948 650 l 1,2,-1
 948 0 l 1,3,-1
 32 0 l 1,4,-1
 32 45 l 1,5,-1
 131 45 l 1,6,-1
 131 650 l 1,7,-1
 32 650 l 1,8,-1
 32 695 l 1,9,-1
 397 695 l 1,10,-1
 397 650 l 1,11,-1
 298 650 l 1,12,-1
 298 45 l 1,13,-1
 903 45 l 1,14,-1
 903 650 l 1,15,-1
 803 650 l 1,16,-1
 803 695 l 1,17,-1
 1047 695 l 1,0,-1
253 45 m 1,18,-1
 253 650 l 1,19,-1
 176 650 l 1,20,-1
 176 45 l 1,21,-1
 253 45 l 1,18,-1
627 910 m 1,22,-1
 744 746 l 1,23,-1
 688 746 l 1,24,-1
 621 841 l 1,25,-1
 530 746 l 1,26,-1
 363 746 l 1,27,-1
 487 910 l 1,28,-1
 627 910 l 1,22,-1
507 791 m 1,29,-1
 580 865 l 1,30,-1
 509 865 l 1,31,-1
 453 791 l 1,32,-1
 507 791 l 1,29,-1
EndSplineSet
EndChar

StartChar: ucircumflex
Encoding: 251 251 203
Width: 1063
Flags: HMW
HStem: 0 45<32 131 176 253 298 903 32 131> 650 45<32 131 32 397 176 176 176 253 298 298 298 397 803 903 948 1047 948 948> 746 164<487 530 363 627 487 744 487 688> 865 45<509 580 509 509>
VStem: 131 45<45 650 45 650> 253 45<45 650 45 650> 903 45<45 650 0 650>
LayerCount: 2
Fore
SplineSet
1047 695 m 1,0,-1
 1047 650 l 1,1,-1
 948 650 l 1,2,-1
 948 0 l 1,3,-1
 32 0 l 1,4,-1
 32 45 l 1,5,-1
 131 45 l 1,6,-1
 131 650 l 1,7,-1
 32 650 l 1,8,-1
 32 695 l 1,9,-1
 397 695 l 1,10,-1
 397 650 l 1,11,-1
 298 650 l 1,12,-1
 298 45 l 1,13,-1
 903 45 l 1,14,-1
 903 650 l 1,15,-1
 803 650 l 1,16,-1
 803 695 l 1,17,-1
 1047 695 l 1,0,-1
253 45 m 1,18,-1
 253 650 l 1,19,-1
 176 650 l 1,20,-1
 176 45 l 1,21,-1
 253 45 l 1,18,-1
627 910 m 1,22,-1
 744 746 l 1,23,-1
 688 746 l 1,24,-1
 621 841 l 1,25,-1
 530 746 l 1,26,-1
 363 746 l 1,27,-1
 487 910 l 1,28,-1
 627 910 l 1,22,-1
507 791 m 1,29,-1
 580 865 l 1,30,-1
 509 865 l 1,31,-1
 453 791 l 1,32,-1
 507 791 l 1,29,-1
EndSplineSet
EndChar

StartChar: Udieresis
Encoding: 220 220 204
Width: 1063
Flags: HMW
HStem: 0 45<32 131 176 253 298 903 32 131> 650 45<32 131 32 397 176 176 176 253 298 298 298 397 803 903 948 1047 948 948> 746 45<399 474 399 519 630 705> 843 45<399 474 399 399 630 630 630 705>
VStem: 131 45<45 650 45 650> 253 45<45 650 45 650> 354 45<791 843 791 888> 354 165<746 888 746 888> 585 165<746 888 746 888> 903 45<45 650 0 650>
LayerCount: 2
Fore
SplineSet
1047 695 m 1,0,-1
 1047 650 l 1,1,-1
 948 650 l 1,2,-1
 948 0 l 1,3,-1
 32 0 l 1,4,-1
 32 45 l 1,5,-1
 131 45 l 1,6,-1
 131 650 l 1,7,-1
 32 650 l 1,8,-1
 32 695 l 1,9,-1
 397 695 l 1,10,-1
 397 650 l 1,11,-1
 298 650 l 1,12,-1
 298 45 l 1,13,-1
 903 45 l 1,14,-1
 903 650 l 1,15,-1
 803 650 l 1,16,-1
 803 695 l 1,17,-1
 1047 695 l 1,0,-1
253 45 m 1,18,-1
 253 650 l 1,19,-1
 176 650 l 1,20,-1
 176 45 l 1,21,-1
 253 45 l 1,18,-1
519 888 m 1,22,-1
 519 746 l 1,23,-1
 354 746 l 1,24,-1
 354 888 l 1,25,-1
 519 888 l 1,22,-1
474 791 m 1,26,-1
 474 843 l 1,27,-1
 399 843 l 1,28,-1
 399 791 l 1,29,-1
 474 791 l 1,26,-1
750 888 m 1,30,-1
 750 746 l 1,31,-1
 585 746 l 1,32,-1
 585 888 l 1,33,-1
 750 888 l 1,30,-1
705 791 m 1,34,-1
 705 843 l 1,35,-1
 630 843 l 1,36,-1
 630 791 l 1,37,-1
 705 791 l 1,34,-1
EndSplineSet
EndChar

StartChar: udieresis
Encoding: 252 252 205
Width: 1063
Flags: HMW
HStem: 0 45<32 131 176 253 298 903 32 131> 650 45<32 131 32 397 176 176 176 253 298 298 298 397 803 903 948 1047 948 948> 746 45<399 474 399 519 630 705> 843 45<399 474 399 399 630 630 630 705>
VStem: 131 45<45 650 45 650> 253 45<45 650 45 650> 354 45<791 843 791 888> 354 165<746 888 746 888> 585 165<746 888 746 888> 903 45<45 650 0 650>
LayerCount: 2
Fore
SplineSet
1047 695 m 1,0,-1
 1047 650 l 1,1,-1
 948 650 l 1,2,-1
 948 0 l 1,3,-1
 32 0 l 1,4,-1
 32 45 l 1,5,-1
 131 45 l 1,6,-1
 131 650 l 1,7,-1
 32 650 l 1,8,-1
 32 695 l 1,9,-1
 397 695 l 1,10,-1
 397 650 l 1,11,-1
 298 650 l 1,12,-1
 298 45 l 1,13,-1
 903 45 l 1,14,-1
 903 650 l 1,15,-1
 803 650 l 1,16,-1
 803 695 l 1,17,-1
 1047 695 l 1,0,-1
253 45 m 1,18,-1
 253 650 l 1,19,-1
 176 650 l 1,20,-1
 176 45 l 1,21,-1
 253 45 l 1,18,-1
519 888 m 1,22,-1
 519 746 l 1,23,-1
 354 746 l 1,24,-1
 354 888 l 1,25,-1
 519 888 l 1,22,-1
474 791 m 1,26,-1
 474 843 l 1,27,-1
 399 843 l 1,28,-1
 399 791 l 1,29,-1
 474 791 l 1,26,-1
750 888 m 1,30,-1
 750 746 l 1,31,-1
 585 746 l 1,32,-1
 585 888 l 1,33,-1
 750 888 l 1,30,-1
705 791 m 1,34,-1
 705 843 l 1,35,-1
 630 843 l 1,36,-1
 630 791 l 1,37,-1
 705 791 l 1,34,-1
EndSplineSet
EndChar

StartChar: mu
Encoding: 181 181 206
Width: 1047
Flags: HMW
HStem: -170 45<16 115 160 237 282 381 16 115> 0 45<282 887 282 932 282 887> 650 45<16 115 16 381 160 160 160 237 282 282 282 381 787 887 932 1031 932 932>
VStem: 115 45<-125 650 -125 650> 237 45<-125 0 45 650> 887 45<45 650 0 650>
LayerCount: 2
Fore
SplineSet
787 695 m 1,0,-1
 1031 695 l 1,1,-1
 1031 650 l 1,2,-1
 932 650 l 1,3,-1
 932 0 l 1,4,-1
 282 0 l 1,5,-1
 282 -125 l 1,6,-1
 381 -125 l 1,7,-1
 381 -170 l 1,8,-1
 16 -170 l 1,9,-1
 16 -125 l 1,10,-1
 115 -125 l 1,11,-1
 115 650 l 1,12,-1
 16 650 l 1,13,-1
 16 695 l 1,14,-1
 381 695 l 1,15,-1
 381 650 l 1,16,-1
 282 650 l 1,17,-1
 282 45 l 1,18,-1
 887 45 l 1,19,-1
 887 650 l 1,20,-1
 787 650 l 1,21,-1
 787 695 l 1,0,-1
237 -125 m 1,22,-1
 237 650 l 1,23,-1
 160 650 l 1,24,-1
 160 -125 l 1,25,-1
 237 -125 l 1,22,-1
EndSplineSet
EndChar

StartChar: Yacute
Encoding: 221 221 207
Width: 924
Flags: HMW
HStem: 0 45<280 379 424 501 546 645 280 379> 325 45<424 501 424 424> 650 45<-5 107 -5 239 167 167 167 239 686 758 818 818 818 929> 746 164<469 512 345 668> 865 45<491 562 491 491>
VStem: 379 45<45 325> 501 45<45 325 325 325>
LayerCount: 2
Fore
SplineSet
686 650 m 1,0,-1
 686 695 l 1,1,-1
 929 695 l 1,2,-1
 929 650 l 1,3,-1
 818 650 l 1,4,-1
 546 339 l 1,5,-1
 546 45 l 1,6,-1
 645 45 l 1,7,-1
 645 0 l 1,8,-1
 280 0 l 1,9,-1
 280 45 l 1,10,-1
 379 45 l 1,11,-1
 379 339 l 1,12,-1
 107 650 l 1,13,-1
 -5 650 l 1,14,-1
 -5 695 l 1,15,-1
 239 695 l 1,16,-1
 239 650 l 1,17,-1
 167 650 l 1,18,-1
 412 370 l 1,19,-1
 513 370 l 1,20,-1
 758 650 l 1,21,-1
 686 650 l 1,0,-1
424 45 m 1,22,-1
 501 45 l 1,23,-1
 501 325 l 1,24,-1
 424 325 l 1,25,-1
 424 45 l 1,22,-1
469 910 m 1,26,-1
 668 910 l 1,27,-1
 512 746 l 1,28,-1
 345 746 l 1,29,-1
 469 910 l 1,26,-1
489 791 m 1,30,-1
 562 865 l 1,31,-1
 491 865 l 1,32,-1
 435 791 l 1,33,-1
 489 791 l 1,30,-1
EndSplineSet
EndChar

StartChar: yacute
Encoding: 253 253 208
Width: 924
Flags: HMW
HStem: 0 45<280 379 424 501 546 645 280 379> 325 45<424 501 424 424> 650 45<-5 107 -5 239 167 167 167 239 686 758 818 818 818 929> 746 164<469 512 345 668> 865 45<491 562 491 491>
VStem: 379 45<45 325> 501 45<45 325 325 325>
LayerCount: 2
Fore
SplineSet
686 650 m 1,0,-1
 686 695 l 1,1,-1
 929 695 l 1,2,-1
 929 650 l 1,3,-1
 818 650 l 1,4,-1
 546 339 l 1,5,-1
 546 45 l 1,6,-1
 645 45 l 1,7,-1
 645 0 l 1,8,-1
 280 0 l 1,9,-1
 280 45 l 1,10,-1
 379 45 l 1,11,-1
 379 339 l 1,12,-1
 107 650 l 1,13,-1
 -5 650 l 1,14,-1
 -5 695 l 1,15,-1
 239 695 l 1,16,-1
 239 650 l 1,17,-1
 167 650 l 1,18,-1
 412 370 l 1,19,-1
 513 370 l 1,20,-1
 758 650 l 1,21,-1
 686 650 l 1,0,-1
424 45 m 1,22,-1
 501 45 l 1,23,-1
 501 325 l 1,24,-1
 424 325 l 1,25,-1
 424 45 l 1,22,-1
469 910 m 1,26,-1
 668 910 l 1,27,-1
 512 746 l 1,28,-1
 345 746 l 1,29,-1
 469 910 l 1,26,-1
489 791 m 1,30,-1
 562 865 l 1,31,-1
 491 865 l 1,32,-1
 435 791 l 1,33,-1
 489 791 l 1,30,-1
EndSplineSet
EndChar

StartChar: Ydieresis
Encoding: 376 376 209
Width: 924
Flags: HMW
HStem: 0 45<280 379 424 501 546 645 280 379> 325 45<424 501 424 424> 650 45<-5 107 -5 239 167 167 167 239 686 758 818 818 818 929> 746 45<309 384 309 429 540 615> 843 45<309 384 309 309 540 540 540 615>
VStem: 264 160 379 45<45 325> 501 45<45 325 325 325> 501 159
LayerCount: 2
Fore
SplineSet
686 650 m 1,0,-1
 686 695 l 1,1,-1
 929 695 l 1,2,-1
 929 650 l 1,3,-1
 818 650 l 1,4,-1
 546 339 l 1,5,-1
 546 45 l 1,6,-1
 645 45 l 1,7,-1
 645 0 l 1,8,-1
 280 0 l 1,9,-1
 280 45 l 1,10,-1
 379 45 l 1,11,-1
 379 339 l 1,12,-1
 107 650 l 1,13,-1
 -5 650 l 1,14,-1
 -5 695 l 1,15,-1
 239 695 l 1,16,-1
 239 650 l 1,17,-1
 167 650 l 1,18,-1
 412 370 l 1,19,-1
 513 370 l 1,20,-1
 758 650 l 1,21,-1
 686 650 l 1,0,-1
424 45 m 1,22,-1
 501 45 l 1,23,-1
 501 325 l 1,24,-1
 424 325 l 1,25,-1
 424 45 l 1,22,-1
429 888 m 1,26,-1
 429 746 l 1,27,-1
 264 746 l 1,28,-1
 264 888 l 1,29,-1
 429 888 l 1,26,-1
384 791 m 1,30,-1
 384 843 l 1,31,-1
 309 843 l 1,32,-1
 309 791 l 1,33,-1
 384 791 l 1,30,-1
660 888 m 1,34,-1
 660 746 l 1,35,-1
 495 746 l 1,36,-1
 495 888 l 1,37,-1
 660 888 l 1,34,-1
615 791 m 1,38,-1
 615 843 l 1,39,-1
 540 843 l 1,40,-1
 540 791 l 1,41,-1
 615 791 l 1,38,-1
EndSplineSet
EndChar

StartChar: ydieresis
Encoding: 255 255 210
Width: 924
Flags: HMW
HStem: 0 45<280 379 424 501 546 645 280 379> 325 45<424 501 424 424> 650 45<-5 107 -5 239 167 167 167 239 686 758 818 818 818 929> 746 45<309 384 309 429 540 615> 843 45<309 384 309 309 540 540 540 615>
VStem: 264 160 379 45<45 325> 501 45<45 325 325 325> 501 159
LayerCount: 2
Fore
SplineSet
686 650 m 1,0,-1
 686 695 l 1,1,-1
 929 695 l 1,2,-1
 929 650 l 1,3,-1
 818 650 l 1,4,-1
 546 339 l 1,5,-1
 546 45 l 1,6,-1
 645 45 l 1,7,-1
 645 0 l 1,8,-1
 280 0 l 1,9,-1
 280 45 l 1,10,-1
 379 45 l 1,11,-1
 379 339 l 1,12,-1
 107 650 l 1,13,-1
 -5 650 l 1,14,-1
 -5 695 l 1,15,-1
 239 695 l 1,16,-1
 239 650 l 1,17,-1
 167 650 l 1,18,-1
 412 370 l 1,19,-1
 513 370 l 1,20,-1
 758 650 l 1,21,-1
 686 650 l 1,0,-1
424 45 m 1,22,-1
 501 45 l 1,23,-1
 501 325 l 1,24,-1
 424 325 l 1,25,-1
 424 45 l 1,22,-1
429 888 m 1,26,-1
 429 746 l 1,27,-1
 264 746 l 1,28,-1
 264 888 l 1,29,-1
 429 888 l 1,26,-1
384 791 m 1,30,-1
 384 843 l 1,31,-1
 309 843 l 1,32,-1
 309 791 l 1,33,-1
 384 791 l 1,30,-1
660 888 m 1,34,-1
 660 746 l 1,35,-1
 495 746 l 1,36,-1
 495 888 l 1,37,-1
 660 888 l 1,34,-1
615 791 m 1,38,-1
 615 843 l 1,39,-1
 540 843 l 1,40,-1
 540 791 l 1,41,-1
 615 791 l 1,38,-1
EndSplineSet
EndChar

StartChar: Zcaron
Encoding: 381 381 211
Width: 901
Flags: HMW
HStem: 0 45<127 230 291 818> 650 45<84 612 84 84 672 672 672 776> 746 45<415 486 415 508> 746 164<251 368 465 508>
VStem: 39 45<510 650 510 695> 818 45<45 185 0 185>
LayerCount: 2
Fore
SplineSet
368 746 m 1,0,-1
 251 910 l 1,1,-1
 307 910 l 1,2,-1
 374 815 l 1,3,-1
 465 910 l 1,4,-1
 632 910 l 1,5,-1
 508 746 l 1,6,-1
 368 746 l 1,0,-1
488 865 m 1,7,-1
 415 791 l 1,8,-1
 486 791 l 1,9,-1
 542 865 l 1,10,-1
 488 865 l 1,7,-1
818 185 m 1,11,-1
 863 185 l 1,12,-1
 863 0 l 1,13,-1
 25 0 l 1,14,-1
 612 650 l 1,15,-1
 84 650 l 1,16,-1
 84 510 l 1,17,-1
 39 510 l 1,18,-1
 39 695 l 1,19,-1
 877 695 l 1,20,-1
 291 45 l 1,21,-1
 818 45 l 1,22,-1
 818 185 l 1,11,-1
230 45 m 1,23,-1
 776 650 l 1,24,-1
 672 650 l 1,25,-1
 127 45 l 1,26,-1
 230 45 l 1,23,-1
EndSplineSet
EndChar

StartChar: zcaron
Encoding: 382 382 212
Width: 901
Flags: HMW
HStem: 0 45<127 230 291 818> 650 45<84 612 84 84 672 672 672 776> 746 45<415 486 415 508> 746 164<251 368 465 508>
VStem: 39 45<510 650 510 695> 818 45<45 185 0 185>
LayerCount: 2
Fore
SplineSet
368 746 m 1,0,-1
 251 910 l 1,1,-1
 307 910 l 1,2,-1
 374 815 l 1,3,-1
 465 910 l 1,4,-1
 632 910 l 1,5,-1
 508 746 l 1,6,-1
 368 746 l 1,0,-1
488 865 m 1,7,-1
 415 791 l 1,8,-1
 486 791 l 1,9,-1
 542 865 l 1,10,-1
 488 865 l 1,7,-1
818 185 m 1,11,-1
 863 185 l 1,12,-1
 863 0 l 1,13,-1
 25 0 l 1,14,-1
 612 650 l 1,15,-1
 84 650 l 1,16,-1
 84 510 l 1,17,-1
 39 510 l 1,18,-1
 39 695 l 1,19,-1
 877 695 l 1,20,-1
 291 45 l 1,21,-1
 818 45 l 1,22,-1
 818 185 l 1,11,-1
230 45 m 1,23,-1
 776 650 l 1,24,-1
 672 650 l 1,25,-1
 127 45 l 1,26,-1
 230 45 l 1,23,-1
EndSplineSet
EndChar

StartChar: grave
Encoding: 96 96 213
Width: 423
Flags: HMW
HStem: 546 164<222 265 66 389 222 222> 665 45<172 172 172 243>
LayerCount: 2
Fore
SplineSet
66 710 m 1,0,-1
 265 710 l 1,1,-1
 389 546 l 1,2,-1
 222 546 l 1,3,-1
 66 710 l 1,0,-1
172 665 m 1,4,-1
 245 591 l 1,5,-1
 299 591 l 1,6,-1
 243 665 l 1,7,-1
 172 665 l 1,4,-1
EndSplineSet
EndChar

StartChar: acute
Encoding: 180 180 214
Width: 451
Flags: HMW
HStem: 546 164<190 233 66 389> 665 45<212 283 212 212>
LayerCount: 2
Fore
SplineSet
190 710 m 1,0,-1
 389 710 l 1,1,-1
 233 546 l 1,2,-1
 66 546 l 1,3,-1
 190 710 l 1,0,-1
210 591 m 1,4,-1
 283 665 l 1,5,-1
 212 665 l 1,6,-1
 156 591 l 1,7,-1
 210 591 l 1,4,-1
EndSplineSet
EndChar

StartChar: circumflex
Encoding: 710 710 215
Width: 524
Flags: HMW
HStem: 546 164<190 233 66 330 190 447 190 391> 665 45<212 283 212 212>
LayerCount: 2
Fore
SplineSet
330 710 m 1,0,-1
 447 546 l 1,1,-1
 391 546 l 1,2,-1
 324 641 l 1,3,-1
 233 546 l 1,4,-1
 66 546 l 1,5,-1
 190 710 l 1,6,-1
 330 710 l 1,0,-1
210 591 m 1,7,-1
 283 665 l 1,8,-1
 212 665 l 1,9,-1
 156 591 l 1,10,-1
 210 591 l 1,7,-1
EndSplineSet
EndChar

StartChar: caron
Encoding: 711 711 216
Width: 502
Flags: HMW
HStem: 546 45<230 301 230 323> 546 164<66 183 280 323>
LayerCount: 2
Fore
SplineSet
183 546 m 1,0,-1
 66 710 l 1,1,-1
 122 710 l 1,2,-1
 189 615 l 1,3,-1
 280 710 l 1,4,-1
 447 710 l 1,5,-1
 323 546 l 1,6,-1
 183 546 l 1,0,-1
303 665 m 1,7,-1
 230 591 l 1,8,-1
 301 591 l 1,9,-1
 357 665 l 1,10,-1
 303 665 l 1,7,-1
EndSplineSet
EndChar

StartChar: cedilla
Encoding: 184 184 217
Width: 541
Flags: HMW
HStem: -183 45<170 256 170 284> 0 45<243 328 243 243>
LayerCount: 2
Fore
SplineSet
215 45 m 1,0,-1
 403 45 l 1,1,-1
 284 -183 l 1,2,-1
 96 -183 l 1,3,-1
 215 45 l 1,0,-1
170 -138 m 1,4,-1
 256 -138 l 1,5,-1
 328 0 l 1,6,-1
 243 0 l 1,7,-1
 170 -138 l 1,4,-1
EndSplineSet
EndChar

StartChar: tilde
Encoding: 732 732 218
Width: 733
Flags: HMW
HStem: 546 45<156 210 156 233 448 502> 665 45<212 283 212 212 504 575 504 504>
LayerCount: 2
Fore
SplineSet
681 710 m 1,0,-1
 525 546 l 1,1,-1
 391 546 l 1,2,-1
 324 641 l 1,3,-1
 233 546 l 1,4,-1
 66 546 l 1,5,-1
 190 710 l 1,6,-1
 330 710 l 1,7,-1
 403 607 l 1,8,-1
 482 710 l 1,9,-1
 681 710 l 1,0,-1
502 591 m 1,10,-1
 575 665 l 1,11,-1
 504 665 l 1,12,-1
 448 591 l 1,13,-1
 502 591 l 1,10,-1
210 591 m 1,14,-1
 283 665 l 1,15,-1
 212 665 l 1,16,-1
 156 591 l 1,17,-1
 210 591 l 1,14,-1
EndSplineSet
EndChar

StartChar: dieresis
Encoding: 168 168 219
Width: 582
Flags: HMW
HStem: 546 45<140 215 140 260 371 446> 643 45<140 215 140 140 371 371 371 446>
VStem: 95 165<546 688 546 688> 326 165<546 688 546 688>
LayerCount: 2
Fore
SplineSet
260 688 m 1,0,-1
 260 546 l 1,1,-1
 95 546 l 1,2,-1
 95 688 l 1,3,-1
 260 688 l 1,0,-1
215 591 m 1,4,-1
 215 643 l 1,5,-1
 140 643 l 1,6,-1
 140 591 l 1,7,-1
 215 591 l 1,4,-1
491 688 m 1,8,-1
 491 546 l 1,9,-1
 326 546 l 1,10,-1
 326 688 l 1,11,-1
 491 688 l 1,8,-1
446 591 m 1,12,-1
 446 643 l 1,13,-1
 371 643 l 1,14,-1
 371 591 l 1,15,-1
 446 591 l 1,12,-1
EndSplineSet
EndChar

StartChar: ring
Encoding: 730 730 220
Width: 540
Flags: HMW
HStem: 546 45<199 322 199 367> 677 45<199 322 199 199>
VStem: 154 45<591 677 591 722> 322 45<591 677 677 677>
LayerCount: 2
Fore
SplineSet
367 722 m 1,0,-1
 367 546 l 1,1,-1
 154 546 l 1,2,-1
 154 722 l 1,3,-1
 367 722 l 1,0,-1
322 591 m 1,4,-1
 322 677 l 1,5,-1
 199 677 l 1,6,-1
 199 591 l 1,7,-1
 322 591 l 1,4,-1
EndSplineSet
EndChar

StartChar: hungarumlaut
Encoding: 733 733 221
Width: 744
Flags: HMW
HStem: 546 45<156 210 156 233 448 502> 665 45<212 283 212 212 504 504 504 575>
LayerCount: 2
Fore
SplineSet
190 710 m 1,0,-1
 389 710 l 1,1,-1
 233 546 l 1,2,-1
 66 546 l 1,3,-1
 190 710 l 1,0,-1
210 591 m 1,4,-1
 283 665 l 1,5,-1
 212 665 l 1,6,-1
 156 591 l 1,7,-1
 210 591 l 1,4,-1
482 710 m 1,8,-1
 681 710 l 1,9,-1
 525 546 l 1,10,-1
 358 546 l 1,11,-1
 482 710 l 1,8,-1
502 591 m 1,12,-1
 575 665 l 1,13,-1
 504 665 l 1,14,-1
 448 591 l 1,15,-1
 502 591 l 1,12,-1
EndSplineSet
EndChar

StartChar: dotaccent
Encoding: 729 729 222
Width: 356
Flags: HMW
HStem: 546 45<140 215 140 260> 643 45<140 215 140 140>
VStem: 95 165<546 688 546 688>
LayerCount: 2
Fore
SplineSet
260 688 m 1,0,-1
 260 546 l 1,1,-1
 95 546 l 1,2,-1
 95 688 l 1,3,-1
 260 688 l 1,0,-1
215 591 m 1,4,-1
 215 643 l 1,5,-1
 140 643 l 1,6,-1
 140 591 l 1,7,-1
 215 591 l 1,4,-1
EndSplineSet
EndChar
